{
.appVersion = "1365";
copyright = "Copyright © 2021 by Deni Anggara. All rights reserved.";
customParameters = (
{
name = vendorID;
value = LCT;
},
{
name = Axes;
value = (
{
Name = Weight;
Tag = wght;
}
);
}
);
date = "2021-05-30 19:27:38 +0000";
designer = "Deni Anggara";
designerURL = www.degarism.com;
familyName = Iptex;
featurePrefixes = (
{
automatic = 1;
code = "languagesystem DFLT dflt;\012";
name = Languagesystems;
}
);
features = (
{
automatic = 1;
code = "feature numr;\012feature dnom;\012feature frac;\012feature salt;\012feature ss01;\012feature ss02;\012feature ss03;\012";
name = aalt;
},
{
automatic = 1;
code = "lookup ccmp_Other_1 {\012	@CombiningTopAccents = [acutecomb brevecomb caroncomb circumflexcomb commaturnedabovecomb dieresiscomb dotaccentcomb gravecomb hungarumlautcomb macroncomb ringcomb tildecomb];\012	@CombiningNonTopAccents = [cedillacomb ogonekcomb];\012	sub [i]' @CombiningTopAccents by [idotless];\012	sub [i]' @CombiningNonTopAccents @CombiningTopAccents by [idotless];\012} ccmp_Other_1;\012";
name = ccmp;
},
{
automatic = 1;
code = "sub zero by zero.numr;\012sub one by one.numr;\012sub two by two.numr;\012sub three by three.numr;\012sub four by four.numr;\012sub five by five.numr;\012sub six by six.numr;\012sub seven by seven.numr;\012sub eight by eight.numr;\012sub nine by nine.numr;\012";
name = numr;
},
{
automatic = 1;
code = "sub zero by zero.dnom;\012sub one by one.dnom;\012sub two by two.dnom;\012sub three by three.dnom;\012sub four by four.dnom;\012sub five by five.dnom;\012sub six by six.dnom;\012sub seven by seven.dnom;\012sub eight by eight.dnom;\012sub nine by nine.dnom;\012";
name = dnom;
},
{
automatic = 1;

glyphs = (
{
glyphname = A;
lastChange = "2025-01-06 22:41:58 +0000";
layers = (
{
anchors = (
{
name = bottom;
position = "{300, 0}";
},
{
name = ogonek;
position = "{539, 0}";
},
{
name = top;
position = "{300, 633}";
}
);
background = {
paths = (
{
closed = 1;
nodes = (
"191 0 LINE",
"191 143 LINE",
"408 143 LINE",
"408 0 LINE",
"539 0 LINE",
"539 207 LINE",
"407 633 LINE",
"192 633 LINE",
"60 207 LINE",
"60 0 LINE"
);
},
{
closed = 1;
nodes = (
"285 517 LINE",
"314 517 LINE",
"388 262 LINE",
"213 262 LINE"
);
}
);
};
layerId = "1F2775BA-6CBC-4576-9106-FF363AAD7539";
paths = (
{
closed = 1;
nodes = (
"196 0 LINE",
"196 143 LINE",
"404 143 LINE",
"404 0 LINE",
"536 0 LINE",
"536 166 LINE",
"403 633 LINE",
"196 633 LINE",
"64 166 LINE",
"64 0 LINE"
);
},
{
closed = 1;
nodes = (
"285 517 LINE",
"314 517 LINE",
"377 262 LINE",
"225 262 LINE"
);
}
);
width = 600;
},
{
anchors = (
{
name = bottom;
position = "{300, 0}";
},
{
name = ogonek;
position = "{513, 0}";
},
{
name = top;
position = "{300, 633}";
}
);
layerId = "07E2A1A4-9842-4AD3-8988-1CD562B06979";
paths = (
{
closed = 1;
nodes = (
"155 0 LINE",
"155 161 LINE",
"445 161 LINE",
"445 0 LINE",
"524 0 LINE",
"524 175 LINE",
"365 633 LINE",
"235 633 LINE",
"76 175 LINE",
"76 0 LINE"
);
},
{
closed = 1;
nodes = (
"287 556 LINE",
"313 556 LINE",
"425 234 LINE",
"175 234 LINE"
);
}
);
width = 600;
}
);
leftKerningGroup = A;
rightKerningGroup = A;
unicode = 0041;
},
{
glyphname = AE;
lastChange = "2025-01-06 22:41:58 +0000";
layers = (
{
layerId = "1F2775BA-6CBC-4576-9106-FF363AAD7539";
paths = (
{
closed = 1;
nodes = (
"155 0 LINE",
"155 143 LINE",
"281 143 LINE",
"281 0 LINE",
"587 0 LINE",
"587 121 LINE",
"412 121 LINE",
"412 264 LINE",
"529 264 LINE",
"529 382 LINE",
"412 382 LINE",
"412 512 LINE",
"587 512 LINE",
"587 633 LINE",
"169 633 LINE",
"25 207 LINE",
"25 0 LINE"
);
},
{
closed = 1;
nodes = (
"261 517 LINE",
"281 517 LINE",
"281 262 LINE",
"181 262 LINE"
);
}
);
width = 600;
},
{
layerId = "07E2A1A4-9842-4AD3-8988-1CD562B06979";
paths = (
{
closed = 1;
nodes = (
"119 0 LINE",
"119 147 LINE",
"264 147 LINE",
"264 0 LINE",
"576 0 LINE",
"576 77 LINE",
"343 77 LINE",
"343 287 LINE",
"506 287 LINE",
"506 363 LINE",
"343 363 LINE",
"343 556 LINE",
"576 556 LINE",
"576 633 LINE",
"184 633 LINE",
"40 177 LINE",
"40 0 LINE"
);
},
{
closed = 1;
nodes = (
"239 556 LINE",
"264 556 LINE",
"264 220 LINE",
"136 220 LINE"
);
}
);
width = 600;
}
);
unicode = 00C6;
},
{
glyphname = B;
lastChange = "2025-01-06 22:41:58 +0000";
layers = (
{
anchors = (
{
name = bottom;
position = "{315, 0}";
},
{
name = top;
position = "{315, 633}";
}
);
background = {
paths = (
{
closed = 1;
nodes = (
"417 0 LINE",
"461 44 OFFCURVE",
"506 87 OFFCURVE",
"550 131 CURVE",
"550 242 LINE",
"539 253 OFFCURVE",
"529 263 OFFCURVE",
"518 274 CURVE SMOOTH",
"491 300 LINE",
"491 333 LINE",
"518 360 LINE SMOOTH",
"529 371 OFFCURVE",
"539 381 OFFCURVE",
"550 391 CURVE",
"550 502 LINE",
"506 546 OFFCURVE",
"461 589 OFFCURVE",
"417 633 CURVE",
"70 633 LINE",
"70 0 LINE"
);
},
{
closed = 1;
nodes = (
"202 512 LINE",
"418 512 LINE",
"418 377 LINE",
"186 377 LINE",
"186 256 LINE",
"418 256 LINE",
"418 121 LINE",
"202 121 LINE"
);
}
);
};
layerId = "1F2775BA-6CBC-4576-9106-FF363AAD7539";
paths = (
{
closed = 1;
nodes = (
"391 0 LINE SMOOTH",
"487 0 OFFCURVE",
"551 54 OFFCURVE",
"551 155 CURVE SMOOTH",
"551 189 LINE SMOOTH",
"551 235 OFFCURVE",
"534 276 OFFCURVE",
"502 295 CURVE SMOOTH",
"482 307 LINE",
"482 336 LINE",
"502 348 LINE SMOOTH",
"531 365 OFFCURVE",
"551 401 OFFCURVE",
"551 454 CURVE SMOOTH",
"551 478 LINE SMOOTH",
"551 573 OFFCURVE",
"495 633 OFFCURVE",
"391 633 CURVE SMOOTH",
"60 633 LINE",
"60 0 LINE"
);
},
{
closed = 1;
nodes = (
"192 512 LINE",
"420 512 LINE",
"419 382 LINE",
"176 382 LINE",
"176 262 LINE",
"419 262 LINE",
"419 121 LINE",
"192 121 LINE"
);
}
);
width = 600;
},
{
anchors = (
{
name = bottom;
position = "{280, 0}";
},
{
name = top;
position = "{280, 633}";
}
);
layerId = "07E2A1A4-9842-4AD3-8988-1CD562B06979";
paths = (
{
closed = 1;
nodes = (
"384 0 LINE SMOOTH",
"475 0 OFFCURVE",
"524 49 OFFCURVE",
"524 141 CURVE SMOOTH",
"524 194 LINE SMOOTH",
"524 245 OFFCURVE",
"515 271 OFFCURVE",
"483 292 CURVE SMOOTH",
"465 304 LINE",
"465 333 LINE",
"479 343 LINE SMOOTH",
"515 369 OFFCURVE",
"524 392 OFFCURVE",
"524 444 CURVE SMOOTH",
"524 492 LINE SMOOTH",
"524 583 OFFCURVE",
"475 633 OFFCURVE",
"384 633 CURVE SMOOTH",
"76 633 LINE",
"76 0 LINE"
);
},
{
closed = 1;
nodes = (
"155 556 LINE",
"445 556 LINE",
"445 356 LINE",
"139 356 LINE",
"139 280 LINE",
"445 280 LINE",
"445 77 LINE",
"155 77 LINE"
);
}
);
width = 600;
}
);
unicode = 0042;
},
{
glyphname = C;
lastChange = "2025-01-06 22:41:58 +0000";
layers = (
{
anchors = (
{
name = bottom;
position = "{380, 0}";
},
{
name = top;
position = "{380, 633}";
}
);
background = {
paths = (
{
closed = 1;
nodes = (
"518 0 LINE",
"518 121 LINE",
"193 121 LINE",
"193 512 LINE",
"509 512 LINE",
"509 633 LINE",
"162 633 LINE SMOOTH",
"97 633 OFFCURVE",
"64 600 OFFCURVE",
"64 535 CURVE SMOOTH",
"64 98 LINE SMOOTH",
"64 33 OFFCURVE",
"97 0 OFFCURVE",
"162 0 CURVE SMOOTH"
);
}
);
};
layerId = "1F2775BA-6CBC-4576-9106-FF363AAD7539";
paths = (
{
closed = 1;
nodes = (
"533 0 LINE",
"533 121 LINE",
"208 121 LINE",
"208 512 LINE",
"524 512 LINE",
"524 633 LINE",
"239 633 LINE SMOOTH",
"135 633 OFFCURVE",
"79 577 OFFCURVE",
"79 473 CURVE SMOOTH",
"79 160 LINE SMOOTH",
"79 56 OFFCURVE",
"135 0 OFFCURVE",
"239 0 CURVE SMOOTH"
);
}
);
width = 600;
},
{
anchors = (
{
name = bottom;
position = "{358, 0}";
},
{
name = top;
position = "{358, 633}";
}
);
layerId = "07E2A1A4-9842-4AD3-8988-1CD562B06979";
paths = (
{
closed = 1;
nodes = (
"523 0 LINE",
"523 77 LINE",
"196 77 LINE",
"196 556 LINE",
"522 556 LINE",
"522 633 LINE",
"257 633 LINE SMOOTH",
"166 633 OFFCURVE",
"117 584 OFFCURVE",
"117 492 CURVE SMOOTH",
"117 141 LINE SMOOTH",
"117 49 OFFCURVE",
"166 0 OFFCURVE",
"257 0 CURVE SMOOTH"
);
}
);
width = 600;
}
);
unicode = 0043;
},
{
glyphname = D;
lastChange = "2025-01-06 22:41:58 +0000";
layers = (
{
anchors = (
{
name = bottom;
position = "{300, 0}";
},
{
name = center;
position = "{300, 317}";
},
{
name = top;
position = "{300, 633}";
}
);
background = {
paths = (
{
closed = 1;
nodes = (
"417 0 LINE",
"461 44 OFFCURVE",
"506 87 OFFCURVE",
"550 131 CURVE",
"550 502 LINE",
"506 546 OFFCURVE",
"461 589 OFFCURVE",
"417 633 CURVE",
"70 633 LINE",
"70 0 LINE"
);
},
{
closed = 1;
nodes = (
"201 512 LINE",
"418 512 LINE",
"418 121 LINE",
"201 121 LINE"
);
}
);
};
layerId = "1F2775BA-6CBC-4576-9106-FF363AAD7539";
paths = (
{
closed = 1;
nodes = (
"390 0 LINE SMOOTH",
"494 0 OFFCURVE",
"550 56 OFFCURVE",
"550 160 CURVE SMOOTH",
"550 473 LINE SMOOTH",
"550 577 OFFCURVE",
"494 633 OFFCURVE",
"390 633 CURVE SMOOTH",
"70 633 LINE",
"70 0 LINE"
);
},
{
closed = 1;
nodes = (
"201 512 LINE",
"418 512 LINE",
"418 121 LINE",
"201 121 LINE"
);
}
);
width = 600;
},
{
anchors = (
{
name = bottom;
position = "{300, 0}";
},
{
name = center;
position = "{300, 317}";
},
{
name = top;
position = "{300, 633}";
}
);
layerId = "07E2A1A4-9842-4AD3-8988-1CD562B06979";
paths = (
{
closed = 1;
nodes = (
"384 0 LINE SMOOTH",
"475 0 OFFCURVE",
"524 49 OFFCURVE",
"524 141 CURVE SMOOTH",
"524 492 LINE SMOOTH",
"524 584 OFFCURVE",
"475 633 OFFCURVE",
"384 633 CURVE SMOOTH",
"76 633 LINE",
"76 0 LINE"
);
},
{
closed = 1;
nodes = (
"155 556 LINE",
"445 556 LINE",
"445 77 LINE",
"155 77 LINE"
);
}
);
width = 600;
}
);
unicode = 0044;
},
{
glyphname = Eth;
lastChange = "2025-01-06 22:41:58 +0000";
layers = (
{
layerId = "1F2775BA-6CBC-4576-9106-FF363AAD7539";
paths = (
{
closed = 1;
nodes = (
"376 0 LINE SMOOTH",
"480 0 OFFCURVE",
"536 56 OFFCURVE",
"536 160 CURVE SMOOTH",
"536 473 LINE SMOOTH",
"536 577 OFFCURVE",
"480 633 OFFCURVE",
"376 633 CURVE SMOOTH",
"65 633 LINE",
"65 0 LINE"
);
},
{
closed = 1;
nodes = (
"313 259 LINE",
"313 375 LINE",
"13 375 LINE",
"13 259 LINE"
);
},
{
closed = 1;
nodes = (
"196 512 LINE",
"404 512 LINE",
"404 121 LINE",
"196 121 LINE"
);
}
);
width = 600;
},
{
layerId = "07E2A1A4-9842-4AD3-8988-1CD562B06979";
paths = (
{
closed = 1;
nodes = (
"414 0 LINE SMOOTH",
"485 0 OFFCURVE",
"524 40 OFFCURVE",
"524 113 CURVE SMOOTH",
"524 521 LINE SMOOTH",
"524 593 OFFCURVE",
"485 633 OFFCURVE",
"414 633 CURVE SMOOTH",
"76 633 LINE",
"76 0 LINE"
);
},
{
closed = 1;
nodes = (
"313 278 LINE",
"313 356 LINE",
"13 356 LINE",
"13 278 LINE"
);
},
{
closed = 1;
nodes = (
"155 556 LINE",
"445 556 LINE",
"445 77 LINE",
"155 77 LINE"
);
}
);
width = 600;
}
);
unicode = 00D0;
},
{
glyphname = E;
lastChange = "2025-01-06 22:41:58 +0000";
layers = (
{
anchors = (
{
name = bottom;
position = "{310, 0}";
},
{
name = ogonek;
position = "{536, 0}";
},
{
name = top;
position = "{315, 633}";
},
{
name = topleft;
position = "{30, 633}";
}
);
background = {
paths = (
{
closed = 1;
nodes = (
"196 0 LINE",
"196 257 LINE",
"404 257 LINE",
"404 0 LINE",
"536 0 LINE",
"536 633 LINE",
"404 633 LINE",
"404 376 LINE",
"196 376 LINE",
"196 633 LINE",
"64 633 LINE",
"64 0 LINE"
);
}
);
};
layerId = "1F2775BA-6CBC-4576-9106-FF363AAD7539";
paths = (
{
closed = 1;
nodes = (
"550 0 LINE",
"550 121 LINE",
"203 121 LINE",
"203 512 LINE",
"545 512 LINE",
"545 633 LINE",
"70 633 LINE",
"70 0 LINE"
);
},
{
closed = 1;
nodes = (
"411 264 LINE",
"411 382 LINE",
"187 382 LINE",
"187 264 LINE"
);
}
);
width = 600;
},
{
anchors = (
{
name = bottom;
position = "{329, 0}";
},
{
name = ogonek;
position = "{532, 0}";
},
{
name = top;
position = "{342, 633}";
},
{
name = topleft;
position = "{30, 633}";
}
);
layerId = "07E2A1A4-9842-4AD3-8988-1CD562B06979";
paths = (
{
closed = 1;
nodes = (
"532 0 LINE",
"532 77 LINE",
"205 77 LINE",
"205 556 LINE",
"529 556 LINE",
"529 633 LINE",
"126 633 LINE",
"126 0 LINE"
);
},
{
closed = 1;
nodes = (
"407 287 LINE",
"407 363 LINE",
"188 363 LINE",
"188 287 LINE"
);
}
);
width = 600;
}
);
unicode = 0045;
},
{
glyphname = F;
lastChange = "2025-01-06 22:41:58 +0000";
layers = (
{
anchors = (
{
name = bottom;
position = "{320, 0}";
},
{
name = top;
position = "{320, 633}";
}
);
background = {
paths = (
{
closed = 1;
nodes = (
"196 0 LINE",
"196 257 LINE",
"404 257 LINE",
"404 0 LINE",
"536 0 LINE",
"536 633 LINE",
"404 633 LINE",
"404 376 LINE",
"196 376 LINE",
"196 633 LINE",
"64 633 LINE",
"64 0 LINE"
);
}
);
};
layerId = "1F2775BA-6CBC-4576-9106-FF363AAD7539";
paths = (
{
closed = 1;
nodes = (
"202 0 LINE",
"202 243 LINE",
"424 243 LINE",
"424 363 LINE",
"202 363 LINE",
"202 512 LINE",
"556 512 LINE",
"556 633 LINE",
"70 633 LINE",
"70 0 LINE"
);
}
);
width = 600;
},
{
anchors = (
{
name = bottom;
position = "{300, 0}";
},
{
name = top;
position = "{300, 633}";
}
);
layerId = "07E2A1A4-9842-4AD3-8988-1CD562B06979";
paths = (
{
closed = 1;
nodes = (
"199 0 LINE",
"199 281 LINE",
"441 281 LINE",
"441 358 LINE",
"199 358 LINE",
"199 556 LINE",
"541 556 LINE",
"541 633 LINE",
"120 633 LINE",
"120 0 LINE"
);
}
);
width = 600;
}
);
unicode = 0046;
},
{
glyphname = G;
lastChange = "2025-01-06 22:41:58 +0000";
layers = (
{
anchors = (
{
name = bottom;
position = "{300, 0}";
},
{
name = top;
position = "{300, 633}";
}
);
background = {
paths = (
{
closed = 1;
nodes = (
"360 0 LINE",
"416 61 LINE",
"447 61 LINE",
"494 0 LINE",
"547 0 LINE",
"547 281 LINE SMOOTH",
"547 346 OFFCURVE",
"514 379 OFFCURVE",
"448 379 CURVE SMOOTH",
"293 379 LINE",
"293 269 LINE",
"417 269 LINE",
"417 121 LINE",
"198 121 LINE",
"198 512 LINE",
"532 512 LINE",
"532 633 LINE",
"167 633 LINE SMOOTH",
"102 633 OFFCURVE",
"69 600 OFFCURVE",
"69 535 CURVE SMOOTH",
"69 98 LINE SMOOTH",
"69 33 OFFCURVE",
"102 0 OFFCURVE",
"167 0 CURVE SMOOTH"
);
}
);
};
layerId = "1F2775BA-6CBC-4576-9106-FF363AAD7539";
paths = (
{
closed = 1;
nodes = (
"315 0 LINE SMOOTH",
"346 0 OFFCURVE",
"368 9 OFFCURVE",
"389 32 CURVE SMOOTH",
"415 61 LINE",
"446 61 LINE",
"493 0 LINE",
"546 0 LINE",
"546 352 LINE",
"414 352 LINE",
"414 121 LINE",
"186 121 LINE",
"186 512 LINE",
"531 512 LINE",
"531 633 LINE",
"214 633 LINE SMOOTH",
"110 633 OFFCURVE",
"54 577 OFFCURVE",
"54 473 CURVE SMOOTH",
"54 160 LINE SMOOTH",
"54 56 OFFCURVE",
"110 0 OFFCURVE",
"214 0 CURVE SMOOTH"
);
}
);
width = 600;
},
{
anchors = (
{
name = bottom;
position = "{300, 0}";
},
{
name = top;
position = "{300, 633}";
}
);
layerId = "07E2A1A4-9842-4AD3-8988-1CD562B06979";
paths = (
{
closed = 1;
nodes = (
"336 0 LINE SMOOTH",
"369 0 OFFCURVE",
"391 6 OFFCURVE",
"415 30 CURVE SMOOTH",
"429 45 LINE",
"455 45 LINE",
"486 0 LINE",
"524 0 LINE",
"524 350 LINE",
"445 350 LINE",
"445 77 LINE",
"155 77 LINE",
"155 556 LINE",
"513 556 LINE",
"513 633 LINE",
"216 633 LINE SMOOTH",
"125 633 OFFCURVE",
"76 584 OFFCURVE",
"76 492 CURVE SMOOTH",
"76 141 LINE SMOOTH",
"76 49 OFFCURVE",
"125 0 OFFCURVE",
"216 0 CURVE SMOOTH"
);
}
);
width = 600;
}
);
unicode = 0047;
},
{
glyphname = H;
lastChange = "2025-01-06 23:21:58 +0000";
layers = (
{
anchors = (
{
name = bottom;
position = "{300, 0}";
},
{
name = center;
position = "{300, 317}";
},
{
name = top;
position = "{300, 633}";
},
{
name = topleft;
position = "{20, 633}";
}
);
layerId = "1F2775BA-6CBC-4576-9106-FF363AAD7539";
paths = (
{
closed = 1;
nodes = (
"196 0 LINE",
"196 257 LINE",
"404 257 LINE",
"404 0 LINE",
"536 0 LINE",
"536 633 LINE",
"404 633 LINE",
"404 378 LINE",
"196 378 LINE",
"196 633 LINE",
"64 633 LINE",
"64 0 LINE"
);
}
);
width = 600;
},
{
anchors = (
{
name = bottom;
position = "{300, 0}";
},
{
name = center;
position = "{300, 317}";
},
{
name = top;
position = "{300, 633}";
},
{
name = topleft;
position = "{20, 633}";
}
);
layerId = "07E2A1A4-9842-4AD3-8988-1CD562B06979";
paths = (
{
closed = 1;
nodes = (
"155 0 LINE",
"155 284 LINE",
"445 284 LINE",
"445 0 LINE",
"524 0 LINE",
"524 633 LINE",
"445 633 LINE",
"445 361 LINE",
"155 361 LINE",
"155 633 LINE",
"76 633 LINE",
"76 0 LINE"
);
}
);
width = 600;
}
);
unicode = 0048;
},
{
glyphname = I;
lastChange = "2025-01-06 22:41:58 +0000";
layers = (
{
anchors = (
{
name = bottom;
position = "{300, 0}";
},
{
name = ogonek;
position = "{533, 0}";
},
{
name = top;
position = "{300, 633}";
},
{
name = topleft;
position = "{20, 633}";
}
);
background = {
paths = (
{
closed = 1;
nodes = (
"554 0 LINE",
"554 121 LINE",
"367 121 LINE",
"367 512 LINE",
"554 512 LINE",
"554 633 LINE",
"46 633 LINE",
"46 512 LINE",
"234 512 LINE",
"234 121 LINE",
"46 121 LINE",
"46 0 LINE"
);
},
{
closed = 1;
nodes = (
"536 0 LINE",
"536 121 LINE",
"367 121 LINE",
"367 512 LINE",
"536 512 LINE",
"536 633 LINE",
"64 633 LINE",
"64 512 LINE",
"234 512 LINE",
"234 121 LINE",
"64 121 LINE",
"64 0 LINE"
);
}
);
};
layerId = "1F2775BA-6CBC-4576-9106-FF363AAD7539";
paths = (
{
closed = 1;
nodes = (
"548 0 LINE",
"548 121 LINE",
"367 121 LINE",
"367 512 LINE",
"548 512 LINE",
"548 633 LINE",
"52 633 LINE",
"52 512 LINE",
"231 512 LINE",
"231 121 LINE",
"52 121 LINE",
"52 0 LINE"
);
}
);
width = 600;
},
{
anchors = (
{
name = bottom;
position = "{300, 0}";
},
{
name = ogonek;
position = "{502, 0}";
},
{
name = top;
position = "{300, 633}";
},
{
name = topleft;
position = "{20, 633}";
}
);
layerId = "07E2A1A4-9842-4AD3-8988-1CD562B06979";
paths = (
{
closed = 1;
nodes = (
"535 0 LINE",
"535 77 LINE",
"340 77 LINE",
"340 556 LINE",
"535 556 LINE",
"535 633 LINE",
"65 633 LINE",
"65 556 LINE",
"261 556 LINE",
"261 77 LINE",
"65 77 LINE",
"65 0 LINE"
);
}
);
width = 600;
}
);
unicode = 0049;
},
{
glyphname = J;
lastChange = "2025-01-06 22:41:58 +0000";
layers = (
{
anchors = (
{
name = bottom;
position = "{300, 0}";
},
{
name = top;
position = "{300, 633}";
}
);
background = {
paths = (
{
closed = 1;
nodes = (
"386 0 LINE",
"430 44 OFFCURVE",
"475 87 OFFCURVE",
"519 131 CURVE",
"519 633 LINE",
"387 633 LINE",
"387 121 LINE",
"179 121 LINE",
"179 274 LINE",
"47 274 LINE",
"47 131 LINE",
"91 87 OFFCURVE",
"136 44 OFFCURVE",
"180 0 CURVE"
);
}
);
};
guideLines = (
{
position = "{47, 274}";
}
);
layerId = "1F2775BA-6CBC-4576-9106-FF363AAD7539";
paths = (
{
closed = 1;
nodes = (
"359 0 LINE SMOOTH",
"463 0 OFFCURVE",
"519 56 OFFCURVE",
"519 160 CURVE SMOOTH",
"519 633 LINE",
"110 633 LINE",
"110 512 LINE",
"387 512 LINE",
"387 121 LINE",
"179 121 LINE",
"179 274 LINE",
"47 274 LINE",
"47 160 LINE SMOOTH",
"47 56 OFFCURVE",
"103 0 OFFCURVE",
"207 0 CURVE SMOOTH"
);
}
);
width = 600;
},
{
anchors = (
{
name = bottom;
position = "{300, 0}";
},
{
name = top;
position = "{300, 633}";
}
);
layerId = "07E2A1A4-9842-4AD3-8988-1CD562B06979";
paths = (
{
closed = 1;
nodes = (
"354 0 LINE SMOOTH",
"445 0 OFFCURVE",
"494 49 OFFCURVE",
"494 141 CURVE SMOOTH",
"494 633 LINE",
"115 633 LINE",
"115 556 LINE",
"415 556 LINE",
"415 77 LINE",
"155 77 LINE",
"155 246 LINE",
"76 246 LINE",
"76 141 LINE SMOOTH",
"76 49 OFFCURVE",
"125 0 OFFCURVE",
"216 0 CURVE SMOOTH"
);
}
);
width = 600;
}
);
leftKerningGroup = J;
unicode = 004A;
},
{
glyphname = K;
lastChange = "2025-01-06 22:41:58 +0000";
layers = (
{
anchors = (
{
name = bottom;
position = "{300, 0}";
},
{
name = top;
position = "{300, 633}";
}
);
background = {
paths = (
{
closed = 1;
nodes = (
"559 0 LINE",
"559 125 LINE",
"428 303 LINE",
"428 331 LINE",
"559 509 LINE",
"559 633 LINE",
"427 633 LINE",
"427 544 LINE",
"310 382 LINE",
"180 382 LINE",
"180 252 LINE",
"310 252 LINE",
"427 90 LINE",
"427 0 LINE"
);
},
{
closed = 1;
nodes = (
"196 0 LINE",
"196 633 LINE",
"64 633 LINE",
"64 0 LINE"
);
}
);
};
layerId = "1F2775BA-6CBC-4576-9106-FF363AAD7539";
paths = (
{
closed = 1;
nodes = (
"575 0 LINE",
"575 35 LINE",
"419 303 LINE",
"419 331 LINE",
"575 598 LINE",
"575 633 LINE",
"442 633 LINE",
"301 382 LINE",
"186 382 LINE",
"186 252 LINE",
"301 252 LINE",
"442 0 LINE"
);
},
{
closed = 1;
nodes = (
"202 0 LINE",
"202 633 LINE",
"70 633 LINE",
"70 0 LINE"
);
}
);
width = 600;
},
{
anchors = (
{
name = bottom;
position = "{300, 0}";
},
{
name = top;
position = "{300, 633}";
}
);
layerId = "07E2A1A4-9842-4AD3-8988-1CD562B06979";
paths = (
{
closed = 1;
nodes = (
"555 0 LINE",
"555 26 LINE",
"381 301 LINE",
"381 332 LINE",
"555 608 LINE",
"555 633 LINE",
"475 633 LINE",
"302 355 LINE",
"135 355 LINE",
"135 278 LINE",
"302 278 LINE",
"475 0 LINE"
);
},
{
closed = 1;
nodes = (
"151 0 LINE",
"151 633 LINE",
"72 633 LINE",
"72 0 LINE"
);
}
);
width = 600;
}
);
unicode = 004B;
},
{
glyphname = L;
lastChange = "2025-01-06 22:41:58 +0000";
layers = (
{
anchors = (
{
name = bottom;
position = "{331, 0}";
},
{
name = center;
position = "{300, 317}";
},
{
name = top;
position = "{176, 633}";
},
{
name = topright;
position = "{580, 633}";
}
);
background = {
paths = (
{
closed = 1;
nodes = (
"561 0 LINE",
"561 121 LINE",
"211 121 LINE",
"211 633 LINE",
"81 633 LINE",
"81 98 LINE SMOOTH",
"81 33 OFFCURVE",
"114 0 OFFCURVE",
"181 0 CURVE SMOOTH"
);
}
);
};
layerId = "1F2775BA-6CBC-4576-9106-FF363AAD7539";
paths = (
{
closed = 1;
nodes = (
"536 0 LINE",
"536 121 LINE",
"200 121 LINE",
"200 633 LINE",
"70 633 LINE",
"70 0 LINE"
);
}
);
width = 600;
},
{
anchors = (
{
name = bottom;
position = "{328, 0}";
},
{
name = center;
position = "{300, 317}";
},
{
name = top;
position = "{145, 633}";
},
{
name = topright;
position = "{580, 633}";
}
);
layerId = "07E2A1A4-9842-4AD3-8988-1CD562B06979";
paths = (
{
closed = 1;
nodes = (
"551 0 LINE",
"551 77 LINE",
"184 77 LINE",
"184 633 LINE",
"105 633 LINE",
"105 0 LINE"
);
}
);
width = 600;
}
);
rightKerningGroup = L;
unicode = 004C;
},
{
glyphname = Lslash;
lastChange = "2025-01-06 22:41:58 +0000";
layers = (
{
layerId = "1F2775BA-6CBC-4576-9106-FF363AAD7539";
paths = (
{
closed = 1;
nodes = (
"551 0 LINE",
"551 121 LINE",
"241 121 LINE",
"241 633 LINE",
"111 633 LINE",
"111 0 LINE"
);
},
{
closed = 1;
nodes = (
"356 355 LINE",
"356 471 LINE",
"27 371 LINE",
"27 255 LINE"
);
}
);
width = 600;
},
{
layerId = "07E2A1A4-9842-4AD3-8988-1CD562B06979";
paths = (
{
closed = 1;
nodes = (
"531 0 LINE",
"531 77 LINE",
"204 77 LINE",
"204 633 LINE",
"125 633 LINE",
"125 0 LINE"
);
},
{
closed = 1;
nodes = (
"371 379 LINE",
"371 455 LINE",
"42 355 LINE",
"42 279 LINE"
);
}
);
width = 600;
}
);
unicode = 0141;
},
{
glyphname = M;
lastChange = "2025-01-06 22:41:58 +0000";
layers = (
{
anchors = (
{
name = bottom;
position = "{300, 0}";
},
{
name = top;
position = "{300, 633}";
}
);
background = {
paths = (
{
closed = 1;
nodes = (
"171 0 LINE",
"171 471 LINE",
"201 471 LINE",
"234 269 LINE",
"234 230 LINE",
"367 230 LINE",
"367 269 LINE",
"399 471 LINE",
"428 471 LINE",
"428 0 LINE",
"555 0 LINE",
"555 633 LINE",
"345 633 LINE",
"307 413 LINE",
"292 413 LINE",
"254 633 LINE",
"44 633 LINE",
"44 0 LINE"
);
}
);
};
layerId = "1F2775BA-6CBC-4576-9106-FF363AAD7539";
paths = (
{
closed = 1;
nodes = (
"172 0 LINE",
"172 266 LINE",
"154 495 LINE",
"192 495 LINE",
"236 205 LINE",
"363 205 LINE",
"407 495 LINE",
"445 495 LINE",
"427 266 LINE",
"427 0 LINE",
"560 0 LINE",
"560 633 LINE",
"336 633 LINE",
"312 407 LINE",
"287 407 LINE",
"263 633 LINE",
"39 633 LINE",
"39 0 LINE"
);
}
);
width = 600;
},
{
anchors = (
{
name = bottom;
position = "{300, 0}";
},
{
name = top;
position = "{300, 633}";
}
);
layerId = "07E2A1A4-9842-4AD3-8988-1CD562B06979";
paths = (
{
closed = 1;
nodes = (
"137 0 LINE",
"137 457 LINE",
"136 553 LINE",
"170 553 LINE",
"250 242 LINE",
"349 242 LINE",
"430 553 LINE",
"463 553 LINE",
"462 457 LINE",
"462 0 LINE",
"541 0 LINE",
"541 633 LINE",
"376 633 LINE",
"311 375 LINE",
"288 375 LINE",
"224 633 LINE",
"58 633 LINE",
"58 0 LINE"
);
}
);
width = 600;
}
);
unicode = 004D;
},
{
glyphname = N;
lastChange = "2025-01-06 22:41:58 +0000";
layers = (
{
anchors = (
{
name = bottom;
position = "{301, 0}";
},
{
name = top;
position = "{301, 633}";
}
);
background = {
paths = (
{
closed = 1;
nodes = (
"190 0 LINE",
"190 487 LINE",
"220 487 LINE",
"295 0 LINE",
"537 0 LINE",
"537 633 LINE",
"411 633 LINE",
"411 146 LINE",
"381 146 LINE",
"306 633 LINE",
"64 633 LINE",
"64 0 LINE"
);
}
);
};
layerId = "1F2775BA-6CBC-4576-9106-FF363AAD7539";
paths = (
{
closed = 1;
nodes = (
"190 0 LINE",
"190 342 LINE",
"180 510 LINE",
"220 510 LINE",
"242 312 LINE",
"294 0 LINE",
"536 0 LINE",
"536 633 LINE",
"410 633 LINE",
"410 291 LINE",
"420 123 LINE",
"381 123 LINE",
"359 321 LINE",
"306 633 LINE",
"64 633 LINE",
"64 0 LINE"
);
}
);
width = 600;
},
{
anchors = (
{
name = bottom;
position = "{299, 0}";
},
{
name = top;
position = "{299, 633}";
}
);
layerId = "07E2A1A4-9842-4AD3-8988-1CD562B06979";
paths = (
{
closed = 1;
nodes = (
"151 0 LINE",
"151 402 LINE",
"148 554 LINE",
"185 554 LINE",
"229 400 LINE",
"366 0 LINE",
"528 0 LINE",
"528 633 LINE",
"449 633 LINE",
"449 231 LINE",
"452 79 LINE",
"415 79 LINE",
"371 233 LINE",
"235 633 LINE",
"72 633 LINE",
"72 0 LINE"
);
}
);
width = 600;
}
);
unicode = 004E;
},
{
glyphname = Eng;
lastChange = "2025-01-06 22:41:58 +0000";
layers = (
{
layerId = "1F2775BA-6CBC-4576-9106-FF363AAD7539";
paths = (
{
closed = 1;
nodes = (
"437 -200 LINE SMOOTH",
"504 -200 OFFCURVE",
"537 -167 OFFCURVE",
"537 -102 CURVE SMOOTH",
"537 633 LINE",
"411 633 LINE",
"411 291 LINE",
"421 123 LINE",
"381 123 LINE",
"359 321 LINE",
"306 633 LINE",
"64 633 LINE",
"64 0 LINE",
"190 0 LINE",
"190 342 LINE",
"180 510 LINE",
"220 510 LINE",
"242 312 LINE",
"295 0 LINE",
"408 0 LINE",
"408 -79 LINE",
"261 -79 LINE",
"261 -200 LINE"
);
}
);
width = 600;
},
{
layerId = "07E2A1A4-9842-4AD3-8988-1CD562B06979";
paths = (
{
closed = 1;
nodes = (
"452 -200 LINE SMOOTH",
"503 -200 OFFCURVE",
"528 -175 OFFCURVE",
"528 -124 CURVE SMOOTH",
"528 633 LINE",
"449 633 LINE",
"449 231 LINE",
"452 79 LINE",
"415 79 LINE",
"371 233 LINE",
"235 633 LINE",
"72 633 LINE",
"72 0 LINE",
"151 0 LINE",
"151 402 LINE",
"148 554 LINE",
"185 554 LINE",
"229 400 LINE",
"366 0 LINE",
"449 0 LINE",
"449 -123 LINE",
"284 -123 LINE",
"284 -200 LINE"
);
}
);
width = 600;
}
);
unicode = 014A;
},
{
glyphname = O;
lastChange = "2025-01-06 22:41:58 +0000";
layers = (
{
anchors = (
{
name = bottom;
position = "{300, 0}";
},
{
name = center;
position = "{300, 317}";
},
{
name = ogonek;
position = "{540, 10}";
},
{
name = top;
position = "{300, 633}";
},
{
name = topleft;
position = "{20, 633}";
},
{
name = topright;
position = "{580, 633}";
}
);
background = {
paths = (
{
closed = 1;
nodes = (
"412 0 LINE",
"456 44 OFFCURVE",
"501 87 OFFCURVE",
"545 131 CURVE",
"545 502 LINE",
"501 546 OFFCURVE",
"456 589 OFFCURVE",
"412 633 CURVE",
"188 633 LINE",
"144 589 OFFCURVE",
"99 546 OFFCURVE",
"55 502 CURVE",
"55 131 LINE",
"99 87 OFFCURVE",
"144 44 OFFCURVE",
"188 0 CURVE"
);
},
{
closed = 1;
nodes = (
"187 512 LINE",
"413 512 LINE",
"413 121 LINE",
"187 121 LINE"
);
}
);
};
layerId = "1F2775BA-6CBC-4576-9106-FF363AAD7539";
paths = (
{
closed = 1;
nodes = (
"385 0 LINE SMOOTH",
"489 0 OFFCURVE",
"545 56 OFFCURVE",
"545 160 CURVE SMOOTH",
"545 473 LINE SMOOTH",
"545 577 OFFCURVE",
"489 633 OFFCURVE",
"385 633 CURVE SMOOTH",
"215 633 LINE SMOOTH",
"111 633 OFFCURVE",
"55 577 OFFCURVE",
"55 473 CURVE SMOOTH",
"55 160 LINE SMOOTH",
"55 56 OFFCURVE",
"111 0 OFFCURVE",
"215 0 CURVE SMOOTH"
);
},
{
closed = 1;
nodes = (
"187 512 LINE",
"413 512 LINE",
"413 121 LINE",
"187 121 LINE"
);
}
);
width = 600;
},
{
anchors = (
{
name = bottom;
position = "{300, 0}";
},
{
name = center;
position = "{300, 317}";
},
{
name = ogonek;
position = "{540, 10}";
},
{
name = top;
position = "{300, 633}";
},
{
name = topleft;
position = "{20, 633}";
},
{
name = topright;
position = "{580, 633}";
}
);
layerId = "07E2A1A4-9842-4AD3-8988-1CD562B06979";
paths = (
{
closed = 1;
nodes = (
"384 0 LINE SMOOTH",
"475 0 OFFCURVE",
"524 49 OFFCURVE",
"524 141 CURVE SMOOTH",
"524 492 LINE SMOOTH",
"524 584 OFFCURVE",
"475 633 OFFCURVE",
"384 633 CURVE SMOOTH",
"216 633 LINE SMOOTH",
"125 633 OFFCURVE",
"76 584 OFFCURVE",
"76 492 CURVE SMOOTH",
"76 141 LINE SMOOTH",
"76 49 OFFCURVE",
"125 0 OFFCURVE",
"216 0 CURVE SMOOTH"
);
},
{
closed = 1;
nodes = (
"155 556 LINE",
"445 556 LINE",
"445 77 LINE",
"155 77 LINE"
);
}
);
width = 600;
}
);
unicode = 004F;
},
{
glyphname = Oslash;
lastChange = "2025-01-06 22:41:58 +0000";
layers = (
{
components = (
{
name = O;
transform = "{1, 0, 0, 1, -1, 0}";
}
);
layerId = "1F2775BA-6CBC-4576-9106-FF363AAD7539";
paths = (
{
closed = 1;
nodes = (
"586 550 LINE",
"532 602 LINE",
"13 83 LINE",
"67 31 LINE"
);
}
);
width = 600;
},
{
components = (
{
alignment = -1;
name = O;
}
);
layerId = "07E2A1A4-9842-4AD3-8988-1CD562B06979";
paths = (
{
closed = 1;
nodes = (
"583 553 LINE",
"536 599 LINE",
"17 80 LINE",
"64 34 LINE"
);
}
);
width = 600;
}
);
unicode = 00D8;
},
{
glyphname = OE;
lastChange = "2025-01-06 22:41:58 +0000";
layers = (
{
layerId = "1F2775BA-6CBC-4576-9106-FF363AAD7539";
paths = (
{
closed = 1;
nodes = (
"576 0 LINE",
"576 121 LINE",
"403 121 LINE",
"403 265 LINE",
"510 265 LINE",
"510 383 LINE",
"403 383 LINE",
"403 512 LINE",
"576 512 LINE",
"576 633 LINE",
"200 633 LINE SMOOTH",
"96 633 OFFCURVE",
"40 577 OFFCURVE",
"40 473 CURVE SMOOTH",
"40 160 LINE SMOOTH",
"40 56 OFFCURVE",
"96 0 OFFCURVE",
"200 0 CURVE SMOOTH"
);
},
{
closed = 1;
nodes = (
"170 512 LINE",
"272 512 LINE",
"272 121 LINE",
"170 121 LINE"
);
}
);
width = 600;
},
{
layerId = "07E2A1A4-9842-4AD3-8988-1CD562B06979";
paths = (
{
closed = 1;
nodes = (
"565 0 LINE",
"565 77 LINE",
"364 77 LINE",
"364 294 LINE",
"497 294 LINE",
"497 371 LINE",
"364 371 LINE",
"364 556 LINE",
"565 556 LINE",
"565 633 LINE",
"163 633 LINE SMOOTH",
"92 633 OFFCURVE",
"53 593 OFFCURVE",
"53 521 CURVE SMOOTH",
"53 113 LINE SMOOTH",
"53 40 OFFCURVE",
"92 0 OFFCURVE",
"163 0 CURVE SMOOTH"
);
},
{
closed = 1;
nodes = (
"131 556 LINE",
"285 556 LINE",
"285 77 LINE",
"131 77 LINE"
);
}
);
width = 600;
}
);
unicode = 0152;
},
{
glyphname = P;
lastChange = "2025-01-06 22:41:58 +0000";
layers = (
{
anchors = (
{
name = bottom;
position = "{310, 0}";
},
{
name = top;
position = "{310, 633}";
}
);
background = {
paths = (
{
closed = 1;
nodes = (
"201 0 LINE",
"201 237 LINE",
"413 237 LINE",
"457 281 OFFCURVE",
"502 324 OFFCURVE",
"546 368 CURVE",
"546 502 LINE",
"502 546 OFFCURVE",
"457 589 OFFCURVE",
"413 633 CURVE",
"70 633 LINE",
"70 0 LINE"
);
},
{
closed = 1;
nodes = (
"201 512 LINE",
"414 512 LINE",
"414 358 LINE",
"201 358 LINE"
);
}
);
};
layerId = "1F2775BA-6CBC-4576-9106-FF363AAD7539";
paths = (
{
closed = 1;
nodes = (
"201 0 LINE",
"201 246 LINE",
"386 246 LINE SMOOTH",
"490 246 OFFCURVE",
"546 302 OFFCURVE",
"546 406 CURVE SMOOTH",
"546 473 LINE SMOOTH",
"546 577 OFFCURVE",
"490 633 OFFCURVE",
"386 633 CURVE SMOOTH",
"70 633 LINE",
"70 0 LINE"
);
},
{
closed = 1;
nodes = (
"201 512 LINE",
"415 512 LINE",
"415 367 LINE",
"201 367 LINE"
);
}
);
width = 600;
},
{
anchors = (
{
name = bottom;
position = "{300, 0}";
},
{
name = top;
position = "{300, 633}";
}
);
layerId = "07E2A1A4-9842-4AD3-8988-1CD562B06979";
paths = (
{
closed = 1;
nodes = (
"179 0 LINE",
"179 267 LINE",
"410 267 LINE SMOOTH",
"481 267 OFFCURVE",
"520 307 OFFCURVE",
"520 379 CURVE SMOOTH",
"520 521 LINE SMOOTH",
"520 593 OFFCURVE",
"481 633 OFFCURVE",
"410 633 CURVE SMOOTH",
"100 633 LINE",
"100 0 LINE"
);
},
{
closed = 1;
nodes = (
"179 556 LINE",
"441 556 LINE",
"441 344 LINE",
"179 344 LINE"
);
}
);
width = 600;
}
);
rightKerningGroup = P;
unicode = 0050;
},
{
glyphname = Thorn;
lastChange = "2025-01-06 22:41:58 +0000";
layers = (
{
layerId = "1F2775BA-6CBC-4576-9106-FF363AAD7539";
paths = (
{
closed = 1;
nodes = (
"209 0 LINE",
"209 137 LINE",
"444 137 LINE SMOOTH",
"511 137 OFFCURVE",
"544 169 OFFCURVE",
"544 234 CURVE SMOOTH",
"544 398 LINE SMOOTH",
"544 464 OFFCURVE",
"511 497 OFFCURVE",
"444 497 CURVE SMOOTH",
"209 497 LINE",
"209 633 LINE",
"78 633 LINE",
"78 0 LINE"
);
},
{
closed = 1;
nodes = (
"209 376 LINE",
"413 376 LINE",
"413 257 LINE",
"209 257 LINE"
);
}
);
width = 600;
},
{
layerId = "07E2A1A4-9842-4AD3-8988-1CD562B06979";
paths = (
{
closed = 1;
nodes = (
"179 0 LINE",
"179 140 LINE",
"444 140 LINE SMOOTH",
"495 140 OFFCURVE",
"520 165 OFFCURVE",
"520 215 CURVE SMOOTH",
"520 417 LINE SMOOTH",
"520 468 OFFCURVE",
"495 493 OFFCURVE",
"444 493 CURVE SMOOTH",
"179 493 LINE",
"179 633 LINE",
"100 633 LINE",
"100 0 LINE"
);
},
{
closed = 1;
nodes = (
"179 416 LINE",
"441 416 LINE",
"441 217 LINE",
"179 217 LINE"
);
}
);
width = 600;
}
);
unicode = 00DE;
},
{
glyphname = Q;
lastChange = "2025-01-06 22:41:58 +0000";
layers = (
{
anchors = (
{
name = bottom;
position = "{300, 0}";
},
{
name = top;
position = "{300, 633}";
}
);
layerId = "1F2775BA-6CBC-4576-9106-FF363AAD7539";
paths = (
{
closed = 1;
nodes = (
"385 0 LINE SMOOTH",
"489 0 OFFCURVE",
"545 56 OFFCURVE",
"545 160 CURVE SMOOTH",
"545 473 LINE SMOOTH",
"545 577 OFFCURVE",
"489 633 OFFCURVE",
"385 633 CURVE SMOOTH",
"215 633 LINE SMOOTH",
"111 633 OFFCURVE",
"55 577 OFFCURVE",
"55 473 CURVE SMOOTH",
"55 160 LINE SMOOTH",
"55 56 OFFCURVE",
"111 0 OFFCURVE",
"215 0 CURVE SMOOTH"
);
},
{
closed = 1;
nodes = (
"187 512 LINE",
"413 512 LINE",
"413 121 LINE",
"187 121 LINE"
);
},
{
closed = 1;
nodes = (
"489 125 LINE",
"318 290 LINE",
"240 210 LINE",
"409 48 LINE"
);
}
);
width = 600;
},
{
anchors = (
{
name = bottom;
position = "{300, 0}";
},
{
name = top;
position = "{300, 633}";
}
);
layerId = "07E2A1A4-9842-4AD3-8988-1CD562B06979";
paths = (
{
closed = 1;
nodes = (
"384 0 LINE SMOOTH",
"475 0 OFFCURVE",
"524 49 OFFCURVE",
"524 141 CURVE SMOOTH",
"524 492 LINE SMOOTH",
"524 584 OFFCURVE",
"475 633 OFFCURVE",
"384 633 CURVE SMOOTH",
"216 633 LINE SMOOTH",
"125 633 OFFCURVE",
"76 584 OFFCURVE",
"76 492 CURVE SMOOTH",
"76 141 LINE SMOOTH",
"76 49 OFFCURVE",
"125 0 OFFCURVE",
"216 0 CURVE SMOOTH"
);
},
{
closed = 1;
nodes = (
"155 556 LINE",
"445 556 LINE",
"445 77 LINE",
"155 77 LINE"
);
},
{
closed = 1;
nodes = (
"468 95 LINE",
"322 234 LINE",
"274 182 LINE",
"418 45 LINE"
);
}
);
width = 600;
}
);
unicode = 0051;
},
{
glyphname = R;
lastChange = "2025-01-06 23:21:11 +0000";
layers = (
{
anchors = (
{
name = bottom;
position = "{302, 0}";
},
{
name = top;
position = "{286, 633}";
}
);
background = {
paths = (
{
closed = 1;
nodes = (
"201 0 LINE",
"201 512 LINE",
"419 512 LINE",
"419 371 LINE",
"185 371 LINE",
"185 252 LINE",
"337 252 LINE",
"423 0 LINE",
"553 0 LINE",
"553 32 LINE",
"466 270 LINE",
"551 348 LINE",
"551 473 LINE SMOOTH",
"551 577 OFFCURVE",
"495 633 OFFCURVE",
"391 633 CURVE SMOOTH",
"69 633 LINE",
"69 0 LINE"
);
}
);
};
layerId = "1F2775BA-6CBC-4576-9106-FF363AAD7539";
paths = (
{
closed = 1;
nodes = (
"201 0 LINE",
"201 512 LINE",
"419 512 LINE",
"419 371 LINE",
"185 371 LINE",
"185 252 LINE",
"337 252 LINE",
"423 0 LINE",
"553 0 LINE",
"553 32 LINE",
"466 270 LINE",
"551 348 LINE",
"551 473 LINE SMOOTH",
"551 577 OFFCURVE",
"495 633 OFFCURVE",
"391 633 CURVE SMOOTH",
"69 633 LINE",
"69 0 LINE"
);
}
);
width = 600;
},
{
anchors = (
{
name = bottom;
position = "{315, 0}";
},
{
name = top;
position = "{298, 633}";
}
);
layerId = "07E2A1A4-9842-4AD3-8988-1CD562B06979";
paths = (
{
closed = 1;
nodes = (
"155 0 LINE",
"155 556 LINE",
"437 556 LINE",
"437 348 LINE",
"139 348 LINE",
"139 272 LINE",
"325 272 LINE",
"444 0 LINE",
"525 0 LINE",
"525 19 LINE",
"419 264 LINE",
"516 357 LINE",
"516 492 LINE SMOOTH",
"516 584 OFFCURVE",
"467 633 OFFCURVE",
"376 633 CURVE SMOOTH",
"76 633 LINE",
"76 0 LINE"
);
}
);
width = 600;
}
);
rightKerningGroup = R;
unicode = 0052;
},
{
glyphname = S;
lastChange = "2025-01-06 22:41:58 +0000";
layers = (
{
anchors = (
{
name = bottom;
position = "{300, 0}";
},
{
name = top;
position = "{300, 633}";
}
);
background = {
paths = (
{
closed = 1;
nodes = (
"413 0 LINE",
"457 44 OFFCURVE",
"502 87 OFFCURVE",
"546 131 CURVE",
"546 246 LINE",
"502 290 OFFCURVE",
"457 333 OFFCURVE",
"413 377 CURVE",
"186 377 LINE",
"186 512 LINE",
"540 512 LINE",
"540 633 LINE",
"187 633 LINE",
"143 589 OFFCURVE",
"98 546 OFFCURVE",
"54 502 CURVE",
"54 387 LINE",
"98 343 OFFCURVE",
"143 300 OFFCURVE",
"187 256 CURVE",
"414 256 LINE",
"414 121 LINE",
"60 121 LINE",
"60 0 LINE"
);
}
);
};
layerId = "1F2775BA-6CBC-4576-9106-FF363AAD7539";
paths = (
{
closed = 1;
nodes = (
"386 0 LINE SMOOTH",
"490 0 OFFCURVE",
"546 56 OFFCURVE",
"546 160 CURVE SMOOTH",
"546 223 LINE SMOOTH",
"546 327 OFFCURVE",
"490 383 OFFCURVE",
"386 383 CURVE SMOOTH",
"186 383 LINE",
"186 512 LINE",
"540 512 LINE",
"540 633 LINE",
"214 633 LINE SMOOTH",
"110 633 OFFCURVE",
"54 577 OFFCURVE",
"54 473 CURVE SMOOTH",
"54 422 LINE SMOOTH",
"54 318 OFFCURVE",
"110 262 OFFCURVE",
"214 262 CURVE SMOOTH",
"414 262 LINE",
"414 121 LINE",
"60 121 LINE",
"60 0 LINE"
);
}
);
width = 600;
},
{
anchors = (
{
name = bottom;
position = "{300, 0}";
},
{
name = top;
position = "{320, 633}";
}
);
layerId = "07E2A1A4-9842-4AD3-8988-1CD562B06979";
paths = (
{
closed = 1;
nodes = (
"384 0 LINE SMOOTH",
"475 0 OFFCURVE",
"524 49 OFFCURVE",
"524 141 CURVE SMOOTH",
"524 223 LINE SMOOTH",
"524 315 OFFCURVE",
"475 364 OFFCURVE",
"384 364 CURVE SMOOTH",
"155 364 LINE",
"155 556 LINE",
"520 556 LINE",
"520 633 LINE",
"216 633 LINE SMOOTH",
"125 633 OFFCURVE",
"76 584 OFFCURVE",
"76 492 CURVE SMOOTH",
"76 428 LINE SMOOTH",
"76 336 OFFCURVE",
"125 287 OFFCURVE",
"216 287 CURVE SMOOTH",
"445 287 LINE",
"445 77 LINE",
"79 77 LINE",
"79 0 LINE"
);
}
);
width = 600;
}
);
unicode = 0053;
},
{
glyphname = T;
lastChange = "2025-01-06 23:21:44 +0000";
layers = (
{
anchors = (
{
name = bottom;
position = "{300, 0}";
},
{
name = center;
position = "{300, 317}";
},
{
name = top;
position = "{300, 633}";
}
);
background = {
paths = (
{
closed = 1;
nodes = (
"234 0 LINE",
"366 0 LINE",
"366 558 LINE",
"234 558 LINE"
);
},
{
closed = 1;
nodes = (
"64 633 LINE",
"64 512 LINE",
"536 512 LINE",
"536 633 LINE"
);
},
{
closed = 1;
nodes = (
"492 0 LINE",
"492 121 LINE",
"366 121 LINE",
"366 512 LINE",
"454 512 LINE",
"454 389 LINE",
"566 389 LINE",
"566 633 LINE",
"34 633 LINE",
"34 389 LINE",
"146 389 LINE",
"146 512 LINE",
"234 512 LINE",
"234 121 LINE",
"108 121 LINE",
"108 0 LINE"
);
}
);
};
layerId = "1F2775BA-6CBC-4576-9106-FF363AAD7539";
paths = (
{
closed = 1;
nodes = (
"497 0 LINE",
"497 121 LINE",
"366 121 LINE",
"366 512 LINE",
"458 512 LINE",
"458 389 LINE",
"571 389 LINE",
"571 633 LINE",
"29 633 LINE",
"29 389 LINE",
"142 389 LINE",
"142 512 LINE",
"234 512 LINE",
"234 121 LINE",
"103 121 LINE",
"103 0 LINE"
);
}
);
width = 600;
},
{
anchors = (
{
name = bottom;
position = "{300, 0}";
},
{
name = center;
position = "{300, 317}";
},
{
name = top;
position = "{300, 633}";
}
);
layerId = "07E2A1A4-9842-4AD3-8988-1CD562B06979";
paths = (
{
closed = 1;
nodes = (
"507 0 LINE",
"507 77 LINE",
"340 77 LINE",
"340 556 LINE",
"481 556 LINE",
"481 453 LINE",
"560 453 LINE",
"560 633 LINE",
"40 633 LINE",
"40 453 LINE",
"119 453 LINE",
"119 556 LINE",
"261 556 LINE",
"261 77 LINE",
"93 77 LINE",
"93 0 LINE"
);
}
);
width = 600;
}
);
leftKerningGroup = T;
rightKerningGroup = T;
unicode = 0054;
},
{
glyphname = Tbar;
lastChange = "2025-01-06 22:41:58 +0000";
layers = (
{
layerId = "1F2775BA-6CBC-4576-9106-FF363AAD7539";
paths = (
{
closed = 1;
nodes = (
"366 0 LINE",
"366 558 LINE",
"234 558 LINE",
"234 0 LINE"
);
},
{
closed = 1;
nodes = (
"495 232 LINE",
"495 353 LINE",
"105 353 LINE",
"105 232 LINE"
);
},
{
closed = 1;
nodes = (
"536 512 LINE",
"536 633 LINE",
"64 633 LINE",
"64 512 LINE"
);
}
);
width = 600;
},
{
layerId = "07E2A1A4-9842-4AD3-8988-1CD562B06979";
paths = (
{
closed = 1;
nodes = (
"340 0 LINE",
"340 586 LINE",
"261 586 LINE",
"261 0 LINE"
);
},
{
closed = 1;
nodes = (
"493 271 LINE",
"493 348 LINE",
"107 348 LINE",
"107 271 LINE"
);
},
{
closed = 1;
nodes = (
"540 556 LINE",
"540 633 LINE",
"60 633 LINE",
"60 556 LINE"
);
}
);
width = 600;
}
);
unicode = 0166;
},
{
glyphname = U;
lastChange = "2025-01-07 10:15:33 +0000";
layers = (
{
anchors = (
{
name = bottom;
position = "{300, 0}";
},
{
name = ogonek;
position = "{436, 0}";
},
{
name = top;
position = "{299, 633}";
},
{
name = topright;
position = "{580, 633}";
}
);
layerId = "1F2775BA-6CBC-4576-9106-FF363AAD7539";
paths = (
{
closed = 1;
nodes = (
"385 0 LINE SMOOTH",
"489 0 OFFCURVE",
"545 56 OFFCURVE",
"545 160 CURVE SMOOTH",
"545 633 LINE",
"413 633 LINE",
"413 121 LINE",
"187 121 LINE",
"187 633 LINE",
"55 633 LINE",
"55 160 LINE SMOOTH",
"55 56 OFFCURVE",
"111 0 OFFCURVE",
"215 0 CURVE SMOOTH"
);
}
);
width = 600;
},
{
anchors = (
{
name = bottom;
position = "{300, 0}";
},
{
name = ogonek;
position = "{439, 0}";
},
{
name = top;
position = "{300, 633}";
},
{
name = topright;
position = "{580, 633}";
}
);
layerId = "07E2A1A4-9842-4AD3-8988-1CD562B06979";
paths = (
{
closed = 1;
nodes = (
"384 0 LINE SMOOTH",
"475 0 OFFCURVE",
"524 49 OFFCURVE",
"524 141 CURVE SMOOTH",
"524 633 LINE",
"445 633 LINE",
"445 77 LINE",
"155 77 LINE",
"155 633 LINE",
"76 633 LINE",
"76 141 LINE SMOOTH",
"76 49 OFFCURVE",
"125 0 OFFCURVE",
"216 0 CURVE SMOOTH"
);
}
);
width = 600;
}
);
unicode = 0055;
},
{
glyphname = V;
lastChange = "2025-01-06 23:20:23 +0000";
layers = (
{
anchors = (
{
name = bottom;
position = "{299, 0}";
},
{
name = top;
position = "{299, 633}";
}
);
background = {
paths = (
{
closed = 1;
nodes = (
"408 0 LINE",
"552 593 LINE",
"552 633 LINE",
"421 633 LINE",
"317 121 LINE",
"284 121 LINE",
"180 633 LINE",
"49 633 LINE",
"49 593 LINE",
"193 0 LINE"
);
}
);
};
layerId = "1F2775BA-6CBC-4576-9106-FF363AAD7539";
paths = (
{
closed = 1;
nodes = (
"407 0 LINE",
"556 593 LINE",
"556 633 LINE",
"425 633 LINE",
"316 121 LINE",
"283 121 LINE",
"174 633 LINE",
"43 633 LINE",
"43 593 LINE",
"192 0 LINE"
);
}
);
width = 600;
},
{
anchors = (
{
name = bottom;
position = "{300, 0}";
},
{
name = top;
position = "{300, 633}";
}
);
layerId = "07E2A1A4-9842-4AD3-8988-1CD562B06979";
paths = (
{
closed = 1;
nodes = (
"370 0 LINE",
"553 617 LINE",
"553 633 LINE",
"475 633 LINE",
"314 80 LINE",
"286 80 LINE",
"125 633 LINE",
"47 633 LINE",
"47 617 LINE",
"230 0 LINE"
);
}
);
width = 600;
}
);
leftKerningGroup = V;
rightKerningGroup = V;
unicode = 0056;
},
{
glyphname = W;
lastChange = "2025-01-06 22:41:58 +0000";
layers = (
{
anchors = (
{
name = bottom;
position = "{300, 0}";
},
{
name = top;
position = "{300, 633}";
}
);
background = {
paths = (
{
closed = 1;
nodes = (
"274 0 LINE",
"292 183 LINE",
"307 183 LINE",
"325 0 LINE",
"494 0 LINE",
"580 593 LINE",
"580 633 LINE",
"450 633 LINE",
"412 158 LINE",
"395 158 LINE",
"365 352 LINE",
"365 477 LINE",
"233 477 LINE",
"233 352 LINE",
"204 158 LINE",
"187 158 LINE",
"149 633 LINE",
"19 633 LINE",
"19 593 LINE",
"105 0 LINE"
);
}
);
};
layerId = "1F2775BA-6CBC-4576-9106-FF363AAD7539";
paths = (
{
closed = 1;
nodes = (
"267 0 LINE",
"292 183 LINE",
"307 183 LINE",
"332 0 LINE",
"504 0 LINE",
"580 593 LINE",
"580 633 LINE",
"450 633 LINE",
"418 310 LINE",
"422 138 LINE",
"394 138 LINE",
"361 372 LINE",
"238 372 LINE",
"205 138 LINE",
"177 138 LINE",
"181 310 LINE",
"149 633 LINE",
"19 633 LINE",
"19 593 LINE",
"95 0 LINE"
);
}
);
width = 600;
},
{
anchors = (
{
name = bottom;
position = "{301, 0}";
},
{
name = top;
position = "{301, 633}";
}
);
layerId = "07E2A1A4-9842-4AD3-8988-1CD562B06979";
paths = (
{
closed = 1;
nodes = (
"256 0 LINE",
"290 222 LINE",
"311 222 LINE",
"345 0 LINE",
"483 0 LINE",
"555 603 LINE",
"555 633 LINE",
"470 633 LINE",
"433 256 LINE",
"422 88 LINE",
"395 88 LINE",
"349 374 LINE",
"252 374 LINE",
"206 88 LINE",
"179 88 LINE",
"168 256 LINE",
"131 633 LINE",
"46 633 LINE",
"46 603 LINE",
"118 0 LINE"
);
}
);
width = 600;
}
);
unicode = 0057;
},
{
glyphname = X;
lastChange = "2025-01-06 22:41:58 +0000";
layers = (
{
anchors = (
{
name = bottom;
position = "{299, 0}";
},
{
name = top;
position = "{299, 633}";
}
);
background = {
paths = (
{
closed = 1;
nodes = (
"160 0 LINE",
"160 80 LINE",
"283 247 LINE",
"315 247 LINE",
"438 80 LINE",
"438 0 LINE",
"571 0 LINE",
"571 119 LINE",
"411 333 LINE",
"556 519 LINE",
"556 633 LINE",
"423 633 LINE",
"423 559 LINE",
"315 414 LINE",
"283 414 LINE",
"175 559 LINE",
"175 633 LINE",
"42 633 LINE",
"42 519 LINE",
"187 333 LINE",
"27 119 LINE",
"27 0 LINE"
);
}
);
};
layerId = "1F2775BA-6CBC-4576-9106-FF363AAD7539";
paths = (
{
closed = 1;
nodes = (
"160 0 LINE",
"283 247 LINE",
"315 247 LINE",
"438 0 LINE",
"571 0 LINE",
"571 39 LINE",
"411 333 LINE",
"556 593 LINE",
"556 633 LINE",
"423 633 LINE",
"315 414 LINE",
"283 414 LINE",
"175 633 LINE",
"42 633 LINE",
"42 593 LINE",
"187 333 LINE",
"27 39 LINE",
"27 0 LINE"
);
}
);
width = 600;
},
{
anchors = (
{
name = bottom;
position = "{300, 0}";
},
{
name = top;
position = "{300, 633}";
}
);
layerId = "07E2A1A4-9842-4AD3-8988-1CD562B06979";
paths = (
{
closed = 1;
nodes = (
"124 0 LINE",
"277 279 LINE",
"322 279 LINE",
"475 0 LINE",
"551 0 LINE",
"551 28 LINE",
"384 325 LINE",
"541 605 LINE",
"541 633 LINE",
"465 633 LINE",
"323 374 LINE",
"276 374 LINE",
"134 633 LINE",
"58 633 LINE",
"58 605 LINE",
"215 325 LINE",
"48 28 LINE",
"48 0 LINE"
);
}
);
width = 600;
}
);
unicode = 0058;
},
{
glyphname = Y;
lastChange = "2025-01-06 22:41:58 +0000";
layers = (
{
anchors = (
{
name = bottom;
position = "{300, 0}";
},
{
name = top;
position = "{300, 633}";
},
{
name = topleft;
position = "{20, 633}";
}
);
background = {
paths = (
{
closed = 1;
nodes = (
"366 0 LINE",
"366 227 LINE",
"564 505 LINE",
"564 633 LINE",
"434 633 LINE",
"434 539 LINE",
"315 361 LINE",
"285 361 LINE",
"167 539 LINE",
"167 633 LINE",
"36 633 LINE",
"36 505 LINE",
"235 227 LINE",
"235 0 LINE"
);
}
);
};
layerId = "1F2775BA-6CBC-4576-9106-FF363AAD7539";
paths = (
{
closed = 1;
nodes = (
"366 0 LINE",
"366 244 LINE",
"574 599 LINE",
"574 633 LINE",
"442 633 LINE",
"315 404 LINE",
"285 404 LINE",
"158 633 LINE",
"26 633 LINE",
"26 599 LINE",
"235 244 LINE",
"235 0 LINE"
);
}
);
width = 600;
},
{
anchors = (
{
name = bottom;
position = "{300, 0}";
},
{
name = top;
position = "{300, 633}";
},
{
name = topleft;
position = "{20, 633}";
}
);
layerId = "07E2A1A4-9842-4AD3-8988-1CD562B06979";
paths = (
{
closed = 1;
nodes = (
"340 0 LINE",
"340 276 LINE",
"557 608 LINE",
"557 633 LINE",
"479 633 LINE",
"301 355 LINE",
"301 355 LINE",
"123 633 LINE",
"45 633 LINE",
"45 608 LINE",
"262 276 LINE",
"262 0 LINE"
);
}
);
width = 600;
}
);
leftKerningGroup = Y;
rightKerningGroup = Y;
unicode = 0059;
},
{
glyphname = Z;
lastChange = "2025-01-06 22:41:58 +0000";
layers = (
{
anchors = (
{
name = bottom;
position = "{300, 0}";
},
{
name = center;
position = "{300, 317}";
},
{
name = top;
position = "{287, 633}";
}
);
layerId = "1F2775BA-6CBC-4576-9106-FF363AAD7539";
paths = (
{
closed = 1;
nodes = (
"555 0 LINE",
"555 122 LINE",
"177 122 LINE",
"177 151 LINE",
"545 430 LINE",
"545 633 LINE",
"54 633 LINE",
"54 511 LINE",
"412 511 LINE",
"412 481 LINE",
"44 206 LINE",
"44 0 LINE"
);
}
);
width = 600;
},
{
anchors = (
{
name = bottom;
position = "{300, 0}";
},
{
name = center;
position = "{300, 317}";
},
{
name = top;
position = "{298, 633}";
}
);
layerId = "07E2A1A4-9842-4AD3-8988-1CD562B06979";
paths = (
{
closed = 1;
nodes = (
"527 0 LINE",
"527 77 LINE",
"151 77 LINE",
"151 109 LINE",
"522 495 LINE",
"522 633 LINE",
"77 633 LINE",
"77 556 LINE",
"443 556 LINE",
"443 523 LINE",
"72 138 LINE",
"72 0 LINE"
);
}
);
width = 600;
}
);
unicode = 005A;
},
{
glyphname = a;
lastChange = "2025-01-06 22:41:58 +0000";
layers = (
{
anchors = (
{
name = bottom;
position = "{200, 0}";
},
{
name = ogonek;
position = "{587, 0}";
},
{
name = top;
position = "{264, 512}";
}
);
background = {
paths = (
{
closed = 1;
nodes = (
"304 0 LINE",
"359 61 LINE",
"390 61 LINE",
"440 0 LINE",
"587 0 LINE",
"587 121 LINE",
"501 121 LINE",
"501 414 LINE SMOOTH",
"501 479 OFFCURVE",
"468 512 OFFCURVE",
"403 512 CURVE SMOOTH",
"68 512 LINE",
"68 391 LINE",
"372 391 LINE",
"372 121 LINE",
"172 121 LINE",
"172 198 LINE",
"388 198 LINE",
"388 310 LINE",
"137 310 LINE SMOOTH",
"74 310 OFFCURVE",
"42 280 OFFCURVE",
"42 219 CURVE SMOOTH",
"42 98 LINE SMOOTH",
"42 33 OFFCURVE",
"75 0 OFFCURVE",
"142 0 CURVE SMOOTH"
);
}
);
};
layerId = "1F2775BA-6CBC-4576-9106-FF363AAD7539";
paths = (
{
closed = 1;
nodes = (
"259 0 LINE SMOOTH",
"290 0 OFFCURVE",
"313 9 OFFCURVE",
"334 33 CURVE SMOOTH",
"359 61 LINE",
"390 61 LINE",
"411 35 LINE SMOOTH",
"431 10 OFFCURVE",
"454 0 OFFCURVE",
"486 0 CURVE SMOOTH",
"587 0 LINE",
"587 121 LINE",
"501 121 LINE",
"501 352 LINE SMOOTH",
"501 456 OFFCURVE",
"445 512 OFFCURVE",
"341 512 CURVE SMOOTH",
"68 512 LINE",
"68 391 LINE",
"372 391 LINE",
"372 121 LINE",
"172 121 LINE",
"172 198 LINE",
"388 198 LINE",
"388 310 LINE",
"192 310 LINE SMOOTH",
"95 310 OFFCURVE",
"42 257 OFFCURVE",
"42 160 CURVE SMOOTH",
"42 150 LINE SMOOTH",
"42 53 OFFCURVE",
"95 0 OFFCURVE",
"192 0 CURVE SMOOTH"
);
}
);
width = 600;
},
{
anchors = (
{
name = bottom;
position = "{294, 0}";
},
{
name = ogonek;
position = "{578, 0}";
},
{
name = top;
position = "{275, 484}";
}
);
layerId = "07E2A1A4-9842-4AD3-8988-1CD562B06979";
paths = (
{
closed = 1;
nodes = (
"294 0 LINE SMOOTH",
"350 0 OFFCURVE",
"374 10 OFFCURVE",
"396 35 CURVE SMOOTH",
"404 45 LINE",
"431 45 LINE",
"444 31 LINE SMOOTH",
"466 9 OFFCURVE",
"487 0 OFFCURVE",
"518 0 CURVE SMOOTH",
"578 0 LINE",
"578 77 LINE",
"483 77 LINE",
"483 343 LINE SMOOTH",
"483 435 OFFCURVE",
"434 484 OFFCURVE",
"343 484 CURVE SMOOTH",
"90 484 LINE",
"90 407 LINE",
"404 407 LINE",
"404 77 LINE",
"134 77 LINE",
"134 203 LINE",
"420 203 LINE",
"420 280 LINE",
"186 280 LINE SMOOTH",
"102 280 OFFCURVE",
"56 233 OFFCURVE",
"56 149 CURVE SMOOTH",
"56 131 LINE SMOOTH",
"56 46 OFFCURVE",
"102 0 OFFCURVE",
"186 0 CURVE SMOOTH"
);
}
);
width = 600;
}
);
unicode = 0061;
},
{
glyphname = ae;
lastChange = "2025-01-06 22:41:58 +0000";
layers = (
{
layerId = "1F2775BA-6CBC-4576-9106-FF363AAD7539";
paths = (
{
closed = 1;
nodes = (
"186 0 LINE",
"242 61 LINE",
"273 61 LINE",
"322 0 LINE",
"587 0 LINE",
"587 121 LINE",
"358 121 LINE",
"358 202 LINE",
"438 202 LINE SMOOTH",
"529 202 OFFCURVE",
"578 251 OFFCURVE",
"578 342 CURVE SMOOTH",
"578 372 LINE SMOOTH",
"578 463 OFFCURVE",
"529 512 OFFCURVE",
"438 512 CURVE SMOOTH",
"41 512 LINE",
"41 391 LINE",
"228 391 LINE",
"228 310 LINE",
"155 310 LINE SMOOTH",
"64 310 OFFCURVE",
"15 261 OFFCURVE",
"15 170 CURVE SMOOTH",
"15 140 LINE SMOOTH",
"15 49 OFFCURVE",
"64 0 OFFCURVE",
"155 0 CURVE SMOOTH"
);
},
{
closed = 1;
nodes = (
"145 198 LINE",
"228 198 LINE",
"228 121 LINE",
"145 121 LINE"
);
},
{
closed = 1;
nodes = (
"358 391 LINE",
"446 391 LINE",
"446 314 LINE",
"358 314 LINE"
);
}
);
width = 600;
},
{
layerId = "07E2A1A4-9842-4AD3-8988-1CD562B06979";
paths = (
{
closed = 1;
nodes = (
"225 0 LINE",
"264 45 LINE",
"291 45 LINE",
"332 0 LINE",
"589 0 LINE",
"589 77 LINE",
"337 77 LINE",
"337 207 LINE",
"471 207 LINE SMOOTH",
"542 207 OFFCURVE",
"581 246 OFFCURVE",
"581 318 CURVE SMOOTH",
"581 373 LINE SMOOTH",
"581 445 OFFCURVE",
"542 484 OFFCURVE",
"471 484 CURVE SMOOTH",
"52 484 LINE",
"52 407 LINE",
"259 407 LINE",
"259 280 LINE",
"128 280 LINE SMOOTH",
"57 280 OFFCURVE",
"18 240 OFFCURVE",
"18 168 CURVE SMOOTH",
"18 112 LINE SMOOTH",
"18 40 OFFCURVE",
"57 0 OFFCURVE",
"128 0 CURVE SMOOTH"
);
},
{
closed = 1;
nodes = (
"96 203 LINE",
"259 203 LINE",
"259 77 LINE",
"96 77 LINE"
);
},
{
closed = 1;
nodes = (
"337 407 LINE",
"503 407 LINE",
"503 284 LINE",
"337 284 LINE"
);
}
);
width = 600;
}
);
unicode = 00E6;
},
{
glyphname = b;
lastChange = "2025-01-06 22:41:58 +0000";
layers = (
{
anchors = (
{
name = bottom;
position = "{302, 0}";
},
{
name = top;
position = "{302, 800}";
}
);
layerId = "1F2775BA-6CBC-4576-9106-FF363AAD7539";
paths = (
{
closed = 1;
nodes = (
"379 0 LINE SMOOTH",
"483 0 OFFCURVE",
"539 56 OFFCURVE",
"539 160 CURVE SMOOTH",
"539 352 LINE SMOOTH",
"539 456 OFFCURVE",
"483 512 OFFCURVE",
"379 512 CURVE SMOOTH",
"332 512 LINE SMOOTH",
"286 512 OFFCURVE",
"261 502 OFFCURVE",
"226 463 CURVE SMOOTH",
"206 441 LINE",
"206 693 LINE",
"77 693 LINE",
"77 0 LINE"
);
},
{
closed = 1;
nodes = (
"206 391 LINE",
"409 391 LINE",
"409 121 LINE",
"206 121 LINE"
);
}
);
width = 600;
},
{
anchors = (
{
name = bottom;
position = "{311, 0}";
},
{
name = top;
position = "{311, 800}";
}
);
layerId = "07E2A1A4-9842-4AD3-8988-1CD562B06979";
paths = (
{
closed = 1;
nodes = (
"374 0 LINE SMOOTH",
"465 0 OFFCURVE",
"514 49 OFFCURVE",
"514 141 CURVE SMOOTH",
"514 343 LINE SMOOTH",
"514 435 OFFCURVE",
"465 484 OFFCURVE",
"374 484 CURVE SMOOTH",
"271 484 LINE SMOOTH",
"241 484 OFFCURVE",
"219 476 OFFCURVE",
"197 454 CURVE SMOOTH",
"177 436 LINE",
"177 693 LINE",
"98 693 LINE",
"98 0 LINE"
);
},
{
closed = 1;
nodes = (
"177 407 LINE",
"436 407 LINE",
"436 77 LINE",
"177 77 LINE"
);
}
);
width = 600;
}
);
unicode = 0062;
},
{
glyphname = c;
lastChange = "2025-01-06 22:41:58 +0000";
layers = (
{
anchors = (
{
name = bottom;
position = "{336, 0}";
},
{
name = top;
position = "{317, 512}";
}
);
background = {
paths = (
{
closed = 1;
nodes = (
"523 0 LINE",
"523 121 LINE",
"210 121 LINE",
"210 391 LINE",
"501 391 LINE",
"501 512 LINE",
"180 512 LINE SMOOTH",
"113 512 OFFCURVE",
"80 479 OFFCURVE",
"80 413 CURVE SMOOTH",
"80 98 LINE SMOOTH",
"80 33 OFFCURVE",
"113 0 OFFCURVE",
"180 0 CURVE SMOOTH"
);
}
);
};
layerId = "1F2775BA-6CBC-4576-9106-FF363AAD7539";
paths = (
{
closed = 1;
nodes = (
"523 0 LINE",
"523 121 LINE",
"210 121 LINE",
"210 391 LINE",
"501 391 LINE",
"501 512 LINE",
"240 512 LINE SMOOTH",
"136 512 OFFCURVE",
"80 456 OFFCURVE",
"80 352 CURVE SMOOTH",
"80 160 LINE SMOOTH",
"80 56 OFFCURVE",
"136 0 OFFCURVE",
"240 0 CURVE SMOOTH"
);
}
);
width = 600;
},
{
anchors = (
{
name = bottom;
position = "{333, 0}";
},
{
name = top;
position = "{338, 484}";
}
);
layerId = "07E2A1A4-9842-4AD3-8988-1CD562B06979";
paths = (
{
closed = 1;
nodes = (
"514 0 LINE",
"514 77 LINE",
"189 77 LINE",
"189 407 LINE",
"495 407 LINE",
"495 484 LINE",
"250 484 LINE SMOOTH",
"159 484 OFFCURVE",
"110 435 OFFCURVE",
"110 343 CURVE SMOOTH",
"110 141 LINE SMOOTH",
"110 49 OFFCURVE",
"159 0 OFFCURVE",
"250 0 CURVE SMOOTH"
);
}
);
width = 600;
}
);
unicode = 0063;
},
{
glyphname = d;
lastChange = "2025-01-06 22:41:58 +0000";
layers = (
{
anchors = (
{
name = bottom;
position = "{305, 0}";
},
{
name = center;
position = "{305, 250}";
},
{
name = top;
position = "{305, 800}";
},
{
name = topright;
position = "{585, 500}";
}
);
layerId = "1F2775BA-6CBC-4576-9106-FF363AAD7539";
paths = (
{
closed = 1;
nodes = (
"259 0 LINE SMOOTH",
"290 0 OFFCURVE",
"312 9 OFFCURVE",
"333 32 CURVE SMOOTH",
"359 61 LINE",
"390 61 LINE",
"411 35 LINE SMOOTH",
"431 11 OFFCURVE",
"453 0 OFFCURVE",
"484 0 CURVE SMOOTH",
"582 0 LINE",
"582 121 LINE",
"501 121 LINE",
"501 693 LINE",
"371 693 LINE",
"371 121 LINE",
"178 121 LINE",
"178 391 LINE",
"387 391 LINE",
"387 512 LINE",
"209 512 LINE SMOOTH",
"105 512 OFFCURVE",
"49 456 OFFCURVE",
"49 352 CURVE SMOOTH",
"49 160 LINE SMOOTH",
"49 56 OFFCURVE",
"105 0 OFFCURVE",
"209 0 CURVE SMOOTH"
);
}
);
width = 600;
},
{
anchors = (
{
name = bottom;
position = "{332, 0}";
},
{
name = center;
position = "{332, 250}";
},
{
name = top;
position = "{332, 800}";
},
{
name = topright;
position = "{612, 500}";
}
);
layerId = "07E2A1A4-9842-4AD3-8988-1CD562B06979";
paths = (
{
closed = 1;
nodes = (
"303 0 LINE SMOOTH",
"348 0 OFFCURVE",
"375 9 OFFCURVE",
"396 35 CURVE SMOOTH",
"404 45 LINE",
"431 45 LINE",
"444 31 LINE SMOOTH",
"465 9 OFFCURVE",
"487 0 OFFCURVE",
"518 0 CURVE SMOOTH",
"577 0 LINE",
"577 77 LINE",
"482 77 LINE",
"482 693 LINE",
"403 693 LINE",
"403 77 LINE",
"154 77 LINE",
"154 407 LINE",
"419 407 LINE",
"419 484 LINE",
"216 484 LINE SMOOTH",
"125 484 OFFCURVE",
"76 435 OFFCURVE",
"76 343 CURVE SMOOTH",
"76 141 LINE SMOOTH",
"76 49 OFFCURVE",
"125 0 OFFCURVE",
"216 0 CURVE SMOOTH"
);
}
);
width = 600;
}
);
unicode = 0064;
},
{
glyphname = eth;
lastChange = "2025-01-06 22:41:58 +0000";
layers = (
{
layerId = "1F2775BA-6CBC-4576-9106-FF363AAD7539";
paths = (
{
closed = 1;
nodes = (
"439 0 LINE SMOOTH",
"503 0 OFFCURVE",
"535 32 OFFCURVE",
"535 96 CURVE SMOOTH",
"535 421 LINE",
"381 586 LINE",
"88 586 LINE",
"88 466 LINE",
"329 466 LINE",
"405 382 LINE",
"405 281 LINE",
"355 330 LINE",
"157 330 LINE SMOOTH",
"96 330 OFFCURVE",
"65 300 OFFCURVE",
"65 241 CURVE SMOOTH",
"65 96 LINE SMOOTH",
"65 32 OFFCURVE",
"97 0 OFFCURVE",
"161 0 CURVE SMOOTH"
);
},
{
closed = 1;
nodes = (
"195 210 LINE",
"405 210 LINE",
"405 121 LINE",
"195 121 LINE"
);
},
{
closed = 1;
nodes = (
"532 533 LINE",
"463 600 LINE",
"288 424 LINE",
"357 358 LINE"
);
}
);
width = 600;
},
{
layerId = "07E2A1A4-9842-4AD3-8988-1CD562B06979";
paths = (
{
closed = 1;
nodes = (
"440 0 LINE SMOOTH",
"493 0 OFFCURVE",
"520 27 OFFCURVE",
"520 82 CURVE SMOOTH",
"520 437 LINE",
"382 586 LINE",
"95 586 LINE",
"95 513 LINE",
"348 513 LINE",
"442 411 LINE",
"442 284 LINE",
"392 333 LINE",
"148 333 LINE SMOOTH",
"97 333 OFFCURVE",
"72 308 OFFCURVE",
"72 257 CURVE SMOOTH",
"72 82 LINE SMOOTH",
"72 27 OFFCURVE",
"99 0 OFFCURVE",
"152 0 CURVE SMOOTH"
);
},
{
closed = 1;
nodes = (
"150 259 LINE",
"442 259 LINE",
"442 74 LINE",
"150 74 LINE"
);
},
{
closed = 1;
nodes = (
"528 552 LINE",
"489 591 LINE",
"316 419 LINE",
"355 380 LINE"
);
}
);
width = 600;
}
);
unicode = 00F0;
},
{
glyphname = dcaron;
lastChange = "2025-01-06 22:41:58 +0000";
layers = (
{
layerId = "1F2775BA-6CBC-4576-9106-FF363AAD7539";
paths = (
{
closed = 1;
nodes = (
"228 0 LINE",
"284 61 LINE",
"315 61 LINE",
"364 0 LINE",
"507 0 LINE",
"507 121 LINE",
"426 121 LINE",
"426 693 LINE",
"296 693 LINE",
"296 121 LINE",
"158 121 LINE",
"158 391 LINE",
"312 391 LINE",
"312 512 LINE",
"123 512 LINE SMOOTH",
"60 512 OFFCURVE",
"29 482 OFFCURVE",
"29 421 CURVE SMOOTH",
"29 98 LINE SMOOTH",
"29 33 OFFCURVE",
"62 0 OFFCURVE",
"129 0 CURVE SMOOTH"
);
},
{
closed = 1;
nodes = (
"584 588 LINE",
"584 693 LINE",
"488 693 LINE",
"488 593 LINE",
"448 502 LINE",
"536 472 LINE"
);
}
);
width = 600;
},
{
layerId = "07E2A1A4-9842-4AD3-8988-1CD562B06979";
paths = (
{
closed = 1;
nodes = (
"320 0 LINE",
"359 45 LINE",
"386 45 LINE",
"430 0 LINE",
"532 0 LINE",
"532 77 LINE",
"436 77 LINE",
"436 693 LINE",
"358 693 LINE",
"358 77 LINE",
"134 77 LINE",
"134 407 LINE",
"374 407 LINE",
"374 484 LINE",
"131 484 LINE SMOOTH",
"81 484 OFFCURVE",
"56 459 OFFCURVE",
"56 410 CURVE SMOOTH",
"56 76 LINE SMOOTH",
"56 25 OFFCURVE",
"81 0 OFFCURVE",
"132 0 CURVE SMOOTH"
);
},
{
closed = 1;
nodes = (
"577 588 LINE",
"577 693 LINE",
"511 693 LINE",
"511 609 LINE",
"455 538 LINE",
"507 498 LINE"
);
}
);
width = 600;
}
);
unicode = 010F;
},
{
glyphname = dcroat;
lastChange = "2025-01-06 22:41:58 +0000";
layers = (
{
layerId = "1F2775BA-6CBC-4576-9106-FF363AAD7539";
paths = (
{
closed = 1;
nodes = (
"303 0 LINE",
"359 61 LINE",
"390 61 LINE",
"439 0 LINE",
"582 0 LINE",
"582 121 LINE",
"501 121 LINE",
"501 693 LINE",
"371 693 LINE",
"371 121 LINE",
"178 121 LINE",
"178 344 LINE",
"387 344 LINE",
"387 465 LINE",
"143 465 LINE SMOOTH",
"80 465 OFFCURVE",
"49 435 OFFCURVE",
"49 374 CURVE SMOOTH",
"49 98 LINE SMOOTH",
"49 33 OFFCURVE",
"82 0 OFFCURVE",
"149 0 CURVE SMOOTH"
);
},
{
closed = 1;
nodes = (
"582 530 LINE",
"582 640 LINE",
"198 640 LINE",
"198 530 LINE"
);
}
);
width = 600;
},
{
layerId = "07E2A1A4-9842-4AD3-8988-1CD562B06979";
paths = (
{
closed = 1;
nodes = (
"365 0 LINE",
"404 45 LINE",
"431 45 LINE",
"475 0 LINE",
"577 0 LINE",
"577 77 LINE",
"481 77 LINE",
"481 693 LINE",
"403 693 LINE",
"403 77 LINE",
"154 77 LINE",
"154 401 LINE",
"419 401 LINE",
"419 478 LINE",
"151 478 LINE SMOOTH",
"101 478 OFFCURVE",
"76 453 OFFCURVE",
"76 403 CURVE SMOOTH",
"76 76 LINE SMOOTH",
"76 25 OFFCURVE",
"101 0 OFFCURVE",
"152 0 CURVE SMOOTH"
);
},
{
closed = 1;
nodes = (
"577 567 LINE",
"577 634 LINE",
"201 634 LINE",
"201 567 LINE"
);
}
);
width = 600;
}
);
unicode = 0111;
},
{
glyphname = e;
lastChange = "2025-01-06 22:41:58 +0000";
layers = (
{
anchors = (
{
name = bottom;
position = "{302, 0}";
},
{
name = ogonek;
position = "{550, 0}";
},
{
name = top;
position = "{310, 512}";
}
);
background = {
paths = (
{
closed = 1;
nodes = (
"550 0 LINE",
"550 121 LINE",
"202 121 LINE",
"202 391 LINE",
"409 391 LINE",
"409 314 LINE",
"147 314 LINE",
"147 202 LINE",
"447 202 LINE SMOOTH",
"509 202 OFFCURVE",
"540 232 OFFCURVE",
"540 293 CURVE SMOOTH",
"540 413 LINE SMOOTH",
"540 479 OFFCURVE",
"507 512 OFFCURVE",
"440 512 CURVE SMOOTH",
"170 512 LINE SMOOTH",
"105 512 OFFCURVE",
"72 479 OFFCURVE",
"72 414 CURVE SMOOTH",
"72 97 LINE SMOOTH",
"72 32 OFFCURVE",
"105 0 OFFCURVE",
"172 0 CURVE SMOOTH"
);
}
);
};
layerId = "1F2775BA-6CBC-4576-9106-FF363AAD7539";
paths = (
{
closed = 1;
nodes = (
"550 0 LINE",
"550 121 LINE",
"202 121 LINE",
"202 391 LINE",
"409 391 LINE",
"409 314 LINE",
"186 314 LINE",
"186 202 LINE",
"390 202 LINE SMOOTH",
"487 202 OFFCURVE",
"540 255 OFFCURVE",
"540 352 CURVE SMOOTH",
"540 362 LINE SMOOTH",
"540 459 OFFCURVE",
"487 512 OFFCURVE",
"390 512 CURVE SMOOTH",
"232 512 LINE SMOOTH",
"128 512 OFFCURVE",
"72 456 OFFCURVE",
"72 352 CURVE SMOOTH",
"72 160 LINE SMOOTH",
"72 56 OFFCURVE",
"128 0 OFFCURVE",
"232 0 CURVE SMOOTH"
);
}
);
width = 600;
},
{
anchors = (
{
name = bottom;
position = "{302, 0}";
},
{
name = ogonek;
position = "{535, 0}";
},
{
name = top;
position = "{310, 484}";
}
);
layerId = "07E2A1A4-9842-4AD3-8988-1CD562B06979";
paths = (
{
closed = 1;
nodes = (
"535 0 LINE",
"535 77 LINE",
"177 77 LINE",
"177 407 LINE",
"449 407 LINE",
"449 284 LINE",
"161 284 LINE",
"161 207 LINE",
"398 207 LINE SMOOTH",
"482 207 OFFCURVE",
"528 253 OFFCURVE",
"528 338 CURVE SMOOTH",
"528 353 LINE SMOOTH",
"528 438 OFFCURVE",
"482 484 OFFCURVE",
"398 484 CURVE SMOOTH",
"238 484 LINE SMOOTH",
"147 484 OFFCURVE",
"98 435 OFFCURVE",
"98 343 CURVE SMOOTH",
"98 141 LINE SMOOTH",
"98 49 OFFCURVE",
"147 0 OFFCURVE",
"238 0 CURVE SMOOTH"
);
}
);
width = 600;
}
);
unicode = 0065;
},
{
glyphname = f;
lastChange = "2025-01-06 22:41:58 +0000";
layers = (
{
anchors = (
{
name = bottom;
position = "{300, 0}";
},
{
name = top;
position = "{300, 800}";
}
);
background = {
paths = (
{
closed = 1;
nodes = (
"582 0 LINE",
"582 118 LINE",
"328 118 LINE",
"328 392 LINE",
"570 392 LINE",
"570 512 LINE",
"328 512 LINE",
"328 578 LINE",
"582 578 LINE",
"582 693 LINE",
"290 693 LINE SMOOTH",
"229 693 OFFCURVE",
"199 663 OFFCURVE",
"199 603 CURVE SMOOTH",
"199 512 LINE",
"37 512 LINE",
"37 392 LINE",
"199 392 LINE",
"199 118 LINE",
"27 118 LINE",
"27 0 LINE"
);
}
);
};
layerId = "1F2775BA-6CBC-4576-9106-FF363AAD7539";
paths = (
{
closed = 1;
nodes = (
"582 0 LINE",
"582 118 LINE",
"328 118 LINE",
"328 392 LINE",
"570 392 LINE",
"570 512 LINE",
"328 512 LINE",
"328 578 LINE",
"582 578 LINE",
"582 693 LINE",
"349 693 LINE SMOOTH",
"252 693 OFFCURVE",
"199 640 OFFCURVE",
"199 543 CURVE SMOOTH",
"199 512 LINE",
"37 512 LINE",
"37 392 LINE",
"199 392 LINE",
"199 118 LINE",
"27 118 LINE",
"27 0 LINE"
);
}
);
width = 600;
},
{
anchors = (
{
name = bottom;
position = "{300, 0}";
},
{
name = top;
position = "{300, 800}";
}
);
layerId = "07E2A1A4-9842-4AD3-8988-1CD562B06979";
paths = (
{
closed = 1;
nodes = (
"560 0 LINE",
"560 77 LINE",
"306 77 LINE",
"306 407 LINE",
"532 407 LINE",
"532 484 LINE",
"306 484 LINE",
"306 616 LINE",
"560 616 LINE",
"560 693 LINE",
"357 693 LINE SMOOTH",
"273 693 OFFCURVE",
"227 647 OFFCURVE",
"227 562 CURVE SMOOTH",
"227 484 LINE",
"59 484 LINE",
"59 407 LINE",
"227 407 LINE",
"227 77 LINE",
"49 77 LINE",
"49 0 LINE"
);
}
);
width = 600;
}
);
unicode = 0066;
},
{
glyphname = g;
lastChange = "2025-01-06 22:41:58 +0000";
layers = (
{
anchors = (
{
name = bottom;
position = "{280, -200}";
},
{
name = top;
position = "{296, 512}";
}
);
background = {
paths = (
{
closed = 1;
nodes = (
"415 -200 LINE SMOOTH",
"512 -200 OFFCURVE",
"565 -147 OFFCURVE",
"565 -50 CURVE SMOOTH",
"565 -28 LINE SMOOTH",
"565 69 OFFCURVE",
"512 122 OFFCURVE",
"415 122 CURVE SMOOTH",
"350 122 LINE",
"350 195 LINE",
"220 195 LINE",
"220 1 LINE",
"434 1 LINE",
"434 -79 LINE",
"166 -79 LINE",
"166 28 LINE",
"35 28 LINE",
"35 -50 LINE SMOOTH",
"35 -147 OFFCURVE",
"88 -200 OFFCURVE",
"185 -200 CURVE SMOOTH"
);
},
{
closed = 1;
nodes = (
"203 396 LINE",
"364 396 LINE",
"364 296 LINE",
"203 296 LINE"
);
},
{
closed = 1;
nodes = (
"344 179 LINE SMOOTH",
"441 179 OFFCURVE",
"494 232 OFFCURVE",
"494 329 CURVE SMOOTH",
"494 389 LINE",
"565 389 LINE",
"565 512 LINE",
"552 512 LINE SMOOTH",
"521 512 OFFCURVE",
"499 501 OFFCURVE",
"479 477 CURVE SMOOTH",
"458 451 LINE",
"428 451 LINE",
"406 478 LINE SMOOTH",
"386 503 OFFCURVE",
"363 512 OFFCURVE",
"332 512 CURVE SMOOTH",
"223 512 LINE SMOOTH",
"126 512 OFFCURVE",
"73 459 OFFCURVE",
"73 362 CURVE SMOOTH",
"73 329 LINE SMOOTH",
"73 232 OFFCURVE",
"126 179 OFFCURVE",
"223 179 CURVE SMOOTH"
);
}
);
};
layerId = "1F2775BA-6CBC-4576-9106-FF363AAD7539";
paths = (
{
closed = 1;
nodes = (
"415 -200 LINE SMOOTH",
"512 -200 OFFCURVE",
"565 -147 OFFCURVE",
"565 -50 CURVE SMOOTH",
"565 -28 LINE SMOOTH",
"565 69 OFFCURVE",
"512 122 OFFCURVE",
"415 122 CURVE SMOOTH",
"344 122 LINE",
"344 195 LINE",
"222 195 LINE",
"222 1 LINE",
"434 1 LINE",
"434 -79 LINE",
"166 -79 LINE",
"166 28 LINE",
"35 28 LINE",
"35 -50 LINE SMOOTH",
"35 -147 OFFCURVE",
"88 -200 OFFCURVE",
"185 -200 CURVE SMOOTH"
);
},
{
closed = 1;
nodes = (
"203 396 LINE",
"364 396 LINE",
"364 296 LINE",
"203 296 LINE"
);
},
{
closed = 1;
nodes = (
"344 179 LINE SMOOTH",
"441 179 OFFCURVE",
"494 232 OFFCURVE",
"494 329 CURVE SMOOTH",
"494 389 LINE",
"565 389 LINE",
"565 512 LINE",
"552 512 LINE SMOOTH",
"506 512 OFFCURVE",
"486 499 OFFCURVE",
"460 466 CURVE SMOOTH",
"448 451 LINE",
"418 451 LINE",
"406 466 LINE SMOOTH",
"375 504 OFFCURVE",
"344 512 OFFCURVE",
"302 512 CURVE SMOOTH",
"223 512 LINE SMOOTH",
"126 512 OFFCURVE",
"73 459 OFFCURVE",
"73 362 CURVE SMOOTH",
"73 329 LINE SMOOTH",
"73 232 OFFCURVE",
"126 179 OFFCURVE",
"223 179 CURVE SMOOTH"
);
}
);
width = 600;
},
{
anchors = (
{
name = bottom;
position = "{280, -200}";
},
{
name = top;
position = "{296, 484}";
}
);
layerId = "07E2A1A4-9842-4AD3-8988-1CD562B06979";
paths = (
{
closed = 1;
nodes = (
"419 -200 LINE SMOOTH",
"503 -200 OFFCURVE",
"549 -154 OFFCURVE",
"549 -69 CURVE SMOOTH",
"549 -50 LINE SMOOTH",
"549 35 OFFCURVE",
"503 81 OFFCURVE",
"419 81 CURVE SMOOTH",
"325 81 LINE",
"325 205 LINE",
"246 205 LINE",
"246 4 LINE",
"470 4 LINE",
"470 -123 LINE",
"130 -123 LINE",
"130 3 LINE",
"51 3 LINE",
"51 -69 LINE SMOOTH",
"51 -154 OFFCURVE",
"97 -200 OFFCURVE",
"181 -200 CURVE SMOOTH"
);
},
{
closed = 1;
nodes = (
"182 408 LINE",
"401 408 LINE",
"401 266 LINE",
"182 266 LINE"
);
},
{
closed = 1;
nodes = (
"349 188 LINE SMOOTH",
"433 188 OFFCURVE",
"479 235 OFFCURVE",
"479 320 CURVE SMOOTH",
"479 398 LINE",
"572 398 LINE",
"572 484 LINE",
"551 484 LINE SMOOTH",
"520 484 OFFCURVE",
"499 475 OFFCURVE",
"478 451 CURVE SMOOTH",
"468 440 LINE",
"447 440 LINE",
"435 452 LINE SMOOTH",
"414 475 OFFCURVE",
"392 484 OFFCURVE",
"361 484 CURVE SMOOTH",
"234 484 LINE SMOOTH",
"150 484 OFFCURVE",
"104 438 OFFCURVE",
"104 353 CURVE SMOOTH",
"104 320 LINE SMOOTH",
"104 235 OFFCURVE",
"150 188 OFFCURVE",
"234 188 CURVE SMOOTH"
);
}
);
width = 600;
}
);
unicode = 0067;
},
{
glyphname = h;
lastChange = "2025-01-06 22:41:58 +0000";
layers = (
{
anchors = (
{
name = bottom;
position = "{297, 0}";
},
{
name = center;
position = "{297, 400}";
},
{
name = top;
position = "{297, 800}";
}
);
layerId = "1F2775BA-6CBC-4576-9106-FF363AAD7539";
paths = (
{
closed = 1;
nodes = (
"196 0 LINE",
"196 391 LINE",
"406 391 LINE",
"406 0 LINE",
"535 0 LINE",
"535 372 LINE SMOOTH",
"535 463 OFFCURVE",
"486 512 OFFCURVE",
"395 512 CURVE SMOOTH",
"322 512 LINE SMOOTH",
"276 512 OFFCURVE",
"251 502 OFFCURVE",
"216 463 CURVE SMOOTH",
"196 441 LINE",
"196 693 LINE",
"67 693 LINE",
"67 0 LINE"
);
}
);
width = 600;
},
{
anchors = (
{
name = bottom;
position = "{277, 0}";
},
{
name = center;
position = "{277, 400}";
},
{
name = top;
position = "{277, 800}";
}
);
layerId = "07E2A1A4-9842-4AD3-8988-1CD562B06979";
paths = (
{
closed = 1;
nodes = (
"177 0 LINE",
"177 407 LINE",
"436 407 LINE",
"436 0 LINE",
"514 0 LINE",
"514 354 LINE SMOOTH",
"514 438 OFFCURVE",
"468 484 OFFCURVE",
"384 484 CURVE SMOOTH",
"271 484 LINE SMOOTH",
"241 484 OFFCURVE",
"220 475 OFFCURVE",
"197 454 CURVE SMOOTH",
"177 436 LINE",
"177 693 LINE",
"98 693 LINE",
"98 0 LINE"
);
}
);
width = 600;
}
);
unicode = 0068;
},
{
glyphname = i;
lastChange = "2025-01-06 22:41:58 +0000";
layers = (
{
anchors = (
{
name = bottom;
position = "{315, 0}";
}
);
layerId = "1F2775BA-6CBC-4576-9106-FF363AAD7539";
paths = (
{
closed = 1;
nodes = (
"563 0 LINE",
"563 121 LINE",
"388 121 LINE",
"388 372 LINE SMOOTH",
"388 463 OFFCURVE",
"339 512 OFFCURVE",
"248 512 CURVE SMOOTH",
"50 512 LINE",
"50 391 LINE",
"258 391 LINE",
"258 121 LINE",
"38 121 LINE",
"38 0 LINE"
);
},
{
closed = 1;
nodes = (
"388 569 LINE",
"388 693 LINE",
"229 693 LINE",
"229 569 LINE"
);
}
);
width = 600;
},
{
anchors = (
{
name = bottom;
position = "{335, 0}";
}
);
layerId = "07E2A1A4-9842-4AD3-8988-1CD562B06979";
paths = (
{
closed = 1;
nodes = (
"554 0 LINE",
"554 77 LINE",
"367 77 LINE",
"367 354 LINE SMOOTH",
"367 438 OFFCURVE",
"321 484 OFFCURVE",
"237 484 CURVE SMOOTH",
"74 484 LINE",
"74 407 LINE",
"288 407 LINE",
"288 77 LINE",
"47 77 LINE",
"47 0 LINE"
);
},
{
closed = 1;
nodes = (
"367 559 LINE",
"367 665 LINE",
"276 665 LINE",
"276 559 LINE"
);
}
);
width = 600;
}
);
unicode = 0069;
},
{
glyphname = idotless;
lastChange = "2025-01-06 22:41:58 +0000";
layers = (
{
anchors = (
{
name = bottom;
position = "{300, 0}";
},
{
name = ogonek;
position = "{563, 0}";
},
{
name = top;
position = "{288, 512}";
}
);
layerId = "1F2775BA-6CBC-4576-9106-FF363AAD7539";
paths = (
{
closed = 1;
nodes = (
"563 0 LINE",
"563 121 LINE",
"388 121 LINE",
"388 413 LINE SMOOTH",
"388 479 OFFCURVE",
"355 512 OFFCURVE",
"288 512 CURVE SMOOTH",
"50 512 LINE",
"50 391 LINE",
"258 391 LINE",
"258 121 LINE",
"38 121 LINE",
"38 0 LINE"
);
}
);
width = 600;
},
{
anchors = (
{
name = bottom;
position = "{300, 0}";
},
{
name = ogonek;
position = "{554, 0}";
},
{
name = top;
position = "{291, 484}";
}
);
layerId = "07E2A1A4-9842-4AD3-8988-1CD562B06979";
paths = (
{
closed = 1;
nodes = (
"554 0 LINE",
"554 77 LINE",
"367 77 LINE",
"367 408 LINE SMOOTH",
"367 459 OFFCURVE",
"342 484 OFFCURVE",
"291 484 CURVE SMOOTH",
"74 484 LINE",
"74 407 LINE",
"288 407 LINE",
"288 77 LINE",
"47 77 LINE",
"47 0 LINE"
);
}
);
width = 600;
}
);
unicode = 0131;
},
{
glyphname = ij;
lastChange = "2025-01-06 22:41:58 +0000";
layers = (
{
background = {
paths = (
{
closed = 1;
nodes = (
"796 -200 LINE",
"1000 7 LINE",
"1000 391 LINE",
"1167 391 LINE",
"1167 512 LINE",
"1027 512 LINE",
"978 451 LINE",
"947 451 LINE",
"892 512 LINE",
"518 512 LINE",
"518 391 LINE",
"870 391 LINE",
"870 58 LINE",
"733 -79 LINE",
"545 -79 LINE",
"545 -200 LINE"
);
},
{
closed = 1;
nodes = (
"583 0 LINE",
"583 121 LINE",
"406 121 LINE",
"406 413 LINE SMOOTH",
"406 479 OFFCURVE",
"373 512 OFFCURVE",
"306 512 CURVE SMOOTH",
"50 512 LINE",
"50 391 LINE",
"277 391 LINE",
"277 121 LINE",
"38 121 LINE",
"38 0 LINE"
);
},
{
closed = 1;
nodes = (
"406 569 LINE",
"406 693 LINE",
"248 693 LINE",
"248 569 LINE"
);
},
{
closed = 1;
nodes = (
"1054 569 LINE",
"1054 693 LINE",
"873 693 LINE",
"873 569 LINE"
);
}
);
};
layerId = "1F2775BA-6CBC-4576-9106-FF363AAD7539";
paths = (
{
closed = 1;
nodes = (
"748 -200 LINE SMOOTH",
"915 -200 OFFCURVE",
"1000 -115 OFFCURVE",
"1000 56 CURVE SMOOTH",
"1000 391 LINE",
"1167 391 LINE",
"1167 512 LINE",
"1028 512 LINE",
"979 451 LINE",
"948 451 LINE",
"892 512 LINE",
"518 512 LINE",
"518 391 LINE",
"871 391 LINE",
"871 58 LINE SMOOTH",
"871 -33 OFFCURVE",
"825 -79 OFFCURVE",
"734 -79 CURVE SMOOTH",
"545 -79 LINE",
"545 -200 LINE"
);
},
{
closed = 1;
nodes = (
"583 0 LINE",
"583 121 LINE",
"406 121 LINE",
"406 413 LINE SMOOTH",
"406 479 OFFCURVE",
"373 512 OFFCURVE",
"306 512 CURVE SMOOTH",
"50 512 LINE",
"50 391 LINE",
"277 391 LINE",
"277 121 LINE",
"38 121 LINE",
"38 0 LINE"
);
},
{
closed = 1;
nodes = (
"406 569 LINE",
"406 693 LINE",
"248 693 LINE",
"248 569 LINE"
);
},
{
closed = 1;
nodes = (
"1054 569 LINE",
"1054 693 LINE",
"873 693 LINE",
"873 569 LINE"
);
}
);
width = 1200;
},
{
layerId = "07E2A1A4-9842-4AD3-8988-1CD562B06979";
paths = (
{
closed = 1;
nodes = (
"745 -200 LINE SMOOTH",
"890 -200 OFFCURVE",
"963 -127 OFFCURVE",
"963 18 CURVE SMOOTH",
"963 407 LINE",
"1146 407 LINE",
"1146 484 LINE",
"969 484 LINE",
"925 440 LINE",
"899 440 LINE",
"859 484 LINE",
"539 484 LINE",
"539 407 LINE",
"884 407 LINE",
"884 17 LINE SMOOTH",
"884 -76 OFFCURVE",
"838 -123 OFFCURVE",
"745 -123 CURVE SMOOTH",
"514 -123 LINE",
"514 -200 LINE"
);
},
{
closed = 1;
nodes = (
"574 0 LINE",
"574 77 LINE",
"378 77 LINE",
"378 408 LINE SMOOTH",
"378 459 OFFCURVE",
"353 484 OFFCURVE",
"302 484 CURVE SMOOTH",
"74 484 LINE",
"74 407 LINE",
"299 407 LINE",
"299 77 LINE",
"47 77 LINE",
"47 0 LINE"
);
},
{
closed = 1;
nodes = (
"378 559 LINE",
"378 665 LINE",
"287 665 LINE",
"287 559 LINE"
);
},
{
closed = 1;
nodes = (
"999 559 LINE",
"999 665 LINE",
"906 665 LINE",
"906 559 LINE"
);
}
);
width = 1200;
}
);
unicode = 0133;
},
{
glyphname = j;
lastChange = "2025-01-06 22:41:58 +0000";
layers = (
{
background = {
paths = (
{
closed = 1;
nodes = (
"199 -200 LINE",
"402 7 LINE",
"402 391 LINE",
"567 391 LINE",
"567 512 LINE",
"430 512 LINE",
"381 451 LINE",
"350 451 LINE",
"294 512 LINE",
"19 512 LINE",
"19 391 LINE",
"273 391 LINE",
"273 58 LINE",
"136 -79 LINE",
"10 -79 LINE",
"10 -200 LINE"
);
},
{
closed = 1;
nodes = (
"456 569 LINE",
"456 693 LINE",
"276 693 LINE",
"276 569 LINE"
);
}
);
};
layerId = "1F2775BA-6CBC-4576-9106-FF363AAD7539";
paths = (
{
closed = 1;
nodes = (
"136 -200 LINE SMOOTH",
"303 -200 OFFCURVE",
"402 -126 OFFCURVE",
"402 30 CURVE SMOOTH",
"402 391 LINE",
"567 391 LINE",
"567 512 LINE",
"475 512 LINE SMOOTH",
"444 512 OFFCURVE",
"422 501 OFFCURVE",
"402 477 CURVE SMOOTH",
"381 451 LINE",
"350 451 LINE",
"324 480 LINE SMOOTH",
"303 503 OFFCURVE",
"281 512 OFFCURVE",
"250 512 CURVE SMOOTH",
"19 512 LINE",
"19 391 LINE",
"273 391 LINE",
"273 52 LINE SMOOTH",
"273 -38 OFFCURVE",
"232 -79 OFFCURVE",
"142 -79 CURVE SMOOTH",
"10 -79 LINE",
"10 -200 LINE"
);
},
{
closed = 1;
nodes = (
"456 569 LINE",
"456 693 LINE",
"276 693 LINE",
"276 569 LINE"
);
}
);
width = 600;
},
{
layerId = "07E2A1A4-9842-4AD3-8988-1CD562B06979";
paths = (
{
closed = 1;
nodes = (
"163 -200 LINE SMOOTH",
"308 -200 OFFCURVE",
"381 -128 OFFCURVE",
"381 17 CURVE SMOOTH",
"381 407 LINE",
"546 407 LINE",
"546 484 LINE",
"436 484 LINE SMOOTH",
"416 484 OFFCURVE",
"401 478 OFFCURVE",
"387 464 CURVE SMOOTH",
"363 440 LINE",
"337 440 LINE",
"317 462 LINE SMOOTH",
"303 478 OFFCURVE",
"288 484 OFFCURVE",
"268 484 CURVE SMOOTH",
"48 484 LINE",
"48 407 LINE",
"302 407 LINE",
"302 17 LINE SMOOTH",
"302 -76 OFFCURVE",
"256 -123 OFFCURVE",
"163 -123 CURVE SMOOTH",
"9 -123 LINE",
"9 -200 LINE"
);
},
{
closed = 1;
nodes = (
"417 559 LINE",
"417 665 LINE",
"323 665 LINE",
"323 559 LINE"
);
}
);
width = 600;
}
);
unicode = 006A;
},
{
glyphname = k;
lastChange = "2025-01-06 23:19:30 +0000";
layers = (
{
anchors = (
{
name = bottom;
position = "{301, 0}";
},
{
name = top;
position = "{316, 800}";
}
);
layerId = "1F2775BA-6CBC-4576-9106-FF363AAD7539";
paths = (
{
closed = 1;
nodes = (
"581 0 LINE",
"581 27 LINE",
"426 252 LINE",
"426 294 LINE",
"581 485 LINE",
"581 512 LINE",
"446 512 LINE",
"306 327 LINE",
"165 327 LINE",
"165 209 LINE",
"306 209 LINE",
"442 0 LINE"
);
},
{
closed = 1;
nodes = (
"196 0 LINE",
"196 693 LINE",
"66 693 LINE",
"66 0 LINE"
);
}
);
width = 600;
},
{
anchors = (
{
name = bottom;
position = "{299, 0}";
},
{
name = top;
position = "{325, 800}";
}
);
layerId = "07E2A1A4-9842-4AD3-8988-1CD562B06979";
paths = (
{
closed = 1;
nodes = (
"567 0 LINE",
"567 23 LINE",
"405 242 LINE",
"405 279 LINE",
"567 461 LINE",
"567 484 LINE",
"485 484 LINE",
"322 300 LINE",
"157 300 LINE",
"157 223 LINE",
"321 223 LINE",
"483 0 LINE"
);
},
{
closed = 1;
nodes = (
"176 0 LINE",
"176 693 LINE",
"97 693 LINE",
"97 0 LINE"
);
}
);
width = 600;
}
);
unicode = 006B;
},
{
glyphname = l;
lastChange = "2025-01-06 22:41:58 +0000";
layers = (
{
anchors = (
{
name = bottom;
position = "{294, 0}";
},
{
name = center;
position = "{291, 400}";
},
{
name = top;
position = "{291, 800}";
},
{
name = topright;
position = "{571, 800}";
}
);
layerId = "1F2775BA-6CBC-4576-9106-FF363AAD7539";
paths = (
{
closed = 1;
nodes = (
"563 0 LINE",
"563 121 LINE",
"388 121 LINE",
"388 553 LINE SMOOTH",
"388 644 OFFCURVE",
"339 693 OFFCURVE",
"248 693 CURVE SMOOTH",
"50 693 LINE",
"50 572 LINE",
"258 572 LINE",
"258 121 LINE",
"38 121 LINE",
"38 0 LINE"
);
}
);
width = 600;
},
{
anchors = (
{
name = bottom;
position = "{323, 0}";
},
{
name = center;
position = "{300, 400}";
},
{
name = top;
position = "{300, 800}";
},
{
name = topright;
position = "{580, 800}";
}
);
layerId = "07E2A1A4-9842-4AD3-8988-1CD562B06979";
paths = (
{
closed = 1;
nodes = (
"554 0 LINE",
"554 77 LINE",
"367 77 LINE",
"367 563 LINE SMOOTH",
"367 647 OFFCURVE",
"321 693 OFFCURVE",
"237 693 CURVE SMOOTH",
"74 693 LINE",
"74 616 LINE",
"288 616 LINE",
"288 77 LINE",
"47 77 LINE",
"47 0 LINE"
);
}
);
width = 600;
}
);
unicode = 006C;
},
{
glyphname = lcaron;
lastChange = "2025-01-06 22:41:58 +0000";
layers = (
{
layerId = "1F2775BA-6CBC-4576-9106-FF363AAD7539";
paths = (
{
closed = 1;
nodes = (
"563 0 LINE",
"563 121 LINE",
"370 121 LINE",
"370 595 LINE SMOOTH",
"370 660 OFFCURVE",
"337 693 OFFCURVE",
"270 693 CURVE SMOOTH",
"50 693 LINE",
"50 572 LINE",
"241 572 LINE",
"241 121 LINE",
"38 121 LINE",
"38 0 LINE"
);
},
{
closed = 1;
nodes = (
"581 588 LINE",
"581 693 LINE",
"468 693 LINE",
"468 620 LINE",
"391 529 LINE",
"473 461 LINE"
);
}
);
width = 600;
},
{
layerId = "07E2A1A4-9842-4AD3-8988-1CD562B06979";
paths = (
{
closed = 1;
nodes = (
"554 0 LINE",
"554 77 LINE",
"364 77 LINE",
"364 617 LINE SMOOTH",
"364 668 OFFCURVE",
"339 693 OFFCURVE",
"288 693 CURVE SMOOTH",
"74 693 LINE",
"74 616 LINE",
"286 616 LINE",
"286 77 LINE",
"47 77 LINE",
"47 0 LINE"
);
},
{
closed = 1;
nodes = (
"557 588 LINE",
"557 693 LINE",
"489 693 LINE",
"489 612 LINE",
"405 515 LINE",
"457 471 LINE"
);
}
);
width = 600;
}
);
unicode = 013E;
},
{
glyphname = lslash;
lastChange = "2025-01-06 22:41:58 +0000";
layers = (
{
layerId = "1F2775BA-6CBC-4576-9106-FF363AAD7539";
paths = (
{
closed = 1;
nodes = (
"563 0 LINE",
"563 121 LINE",
"371 121 LINE",
"371 595 LINE SMOOTH",
"371 660 OFFCURVE",
"338 693 OFFCURVE",
"271 693 CURVE SMOOTH",
"49 693 LINE",
"49 572 LINE",
"242 572 LINE",
"242 121 LINE",
"38 121 LINE",
"38 0 LINE"
);
},
{
closed = 1;
nodes = (
"474 355 LINE",
"474 471 LINE",
"145 371 LINE",
"145 255 LINE"
);
}
);
width = 600;
},
{
layerId = "07E2A1A4-9842-4AD3-8988-1CD562B06979";
paths = (
{
closed = 1;
nodes = (
"554 0 LINE",
"554 77 LINE",
"347 77 LINE",
"347 617 LINE SMOOTH",
"347 668 OFFCURVE",
"322 693 OFFCURVE",
"271 693 CURVE SMOOTH",
"65 693 LINE",
"65 616 LINE",
"269 616 LINE",
"269 77 LINE",
"47 77 LINE",
"47 0 LINE"
);
},
{
closed = 1;
nodes = (
"473 379 LINE",
"473 455 LINE",
"144 355 LINE",
"144 279 LINE"
);
}
);
width = 600;
}
);
unicode = 0142;
},
{
glyphname = m;
lastChange = "2025-01-06 23:24:12 +0000";
layers = (
{
anchors = (
{
name = bottom;
position = "{295, 0}";
},
{
name = top;
position = "{295, 516}";
}
);
background = {
paths = (
{
closed = 1;
nodes = (
"169 0 LINE",
"169 391 LINE",
"238 391 LINE",
"238 0 LINE",
"361 0 LINE",
"361 391 LINE",
"430 391 LINE",
"430 0 LINE",
"556 0 LINE",
"556 445 LINE SMOOTH",
"556 490 OFFCURVE",
"534 512 OFFCURVE",
"491 512 CURVE SMOOTH",
"421 512 LINE",
"369 451 LINE",
"344 451 LINE",
"293 512 LINE",
"221 512 LINE",
"165 451 LINE",
"140 451 LINE",
"93 512 LINE",
"43 512 LINE",
"43 0 LINE"
);
}
);
};
layerId = "1F2775BA-6CBC-4576-9106-FF363AAD7539";
paths = (
{
closed = 1;
nodes = (
"169 0 LINE",
"169 391 LINE",
"238 391 LINE",
"238 0 LINE",
"361 0 LINE",
"361 391 LINE",
"430 391 LINE",
"430 0 LINE",
"556 0 LINE",
"556 412 LINE SMOOTH",
"556 472 OFFCURVE",
"531 512 OFFCURVE",
"475 512 CURVE SMOOTH",
"462 512 LINE SMOOTH",
"436 512 OFFCURVE",
"415 503 OFFCURVE",
"387 471 CURVE SMOOTH",
"369 451 LINE",
"344 451 LINE",
"324 477 LINE SMOOTH",
"311 493 OFFCURVE",
"297 512 OFFCURVE",
"263 512 CURVE SMOOTH",
"250 512 LINE SMOOTH",
"220 512 OFFCURVE",
"206 498 OFFCURVE",
"189 479 CURVE SMOOTH",
"165 451 LINE",
"140 451 LINE",
"113 512 LINE",
"43 512 LINE",
"43 0 LINE"
);
}
);
width = 600;
},
{
anchors = (
{
name = bottom;
position = "{299, 0}";
},
{
name = top;
position = "{299, 503}";
}
);
layerId = "07E2A1A4-9842-4AD3-8988-1CD562B06979";
paths = (
{
closed = 1;
nodes = (
"125 0 LINE",
"125 407 LINE",
"262 407 LINE",
"262 0 LINE",
"340 0 LINE",
"340 407 LINE",
"477 407 LINE",
"477 0 LINE",
"556 0 LINE",
"556 375 LINE SMOOTH",
"556 445 OFFCURVE",
"517 484 OFFCURVE",
"446 484 CURVE SMOOTH",
"421 484 LINE SMOOTH",
"395 484 OFFCURVE",
"376 476 OFFCURVE",
"359 457 CURVE SMOOTH",
"343 440 LINE",
"317 440 LINE",
"299 458 LINE SMOOTH",
"280 477 OFFCURVE",
"263 484 OFFCURVE",
"238 484 CURVE SMOOTH",
"207 484 LINE SMOOTH",
"182 484 OFFCURVE",
"163 477 OFFCURVE",
"145 459 CURVE SMOOTH",
"126 440 LINE",
"101 440 LINE",
"90 484 LINE",
"46 484 LINE",
"46 0 LINE"
);
}
);
width = 600;
}
);
unicode = 006D;
},
{
glyphname = n;
lastChange = "2025-01-06 23:59:38 +0000";
layers = (
{
anchors = (
{
name = bottom;
position = "{300, 0}";
},
{
name = top;
position = "{300, 512}";
}
);
background = {
paths = (
{
closed = 1;
nodes = (
"196 0 LINE",
"196 391 LINE",
"406 391 LINE",
"406 0 LINE",
"535 0 LINE",
"535 413 LINE SMOOTH",
"535 479 OFFCURVE",
"502 512 OFFCURVE",
"435 512 CURVE SMOOTH",
"251 512 LINE",
"195 451 LINE",
"164 451 LINE",
"117 512 LINE",
"66 512 LINE",
"66 0 LINE"
);
}
);
};
layerId = "1F2775BA-6CBC-4576-9106-FF363AAD7539";
paths = (
{
closed = 1;
nodes = (
"196 0 LINE",
"196 391 LINE",
"406 391 LINE",
"406 0 LINE",
"535 0 LINE",
"535 372 LINE SMOOTH",
"535 463 OFFCURVE",
"486 512 OFFCURVE",
"395 512 CURVE SMOOTH",
"325 512 LINE SMOOTH",
"264 512 OFFCURVE",
"242 503 OFFCURVE",
"211 469 CURVE SMOOTH",
"195 451 LINE",
"164 451 LINE",
"137 512 LINE",
"66 512 LINE",
"66 0 LINE"
);
}
);
width = 600;
},
{
anchors = (
{
name = bottom;
position = "{300, 0}";
},
{
name = top;
position = "{300, 484}";
}
);
layerId = "07E2A1A4-9842-4AD3-8988-1CD562B06979";
paths = (
{
closed = 1;
nodes = (
"176 0 LINE",
"176 407 LINE",
"436 407 LINE",
"436 0 LINE",
"514 0 LINE",
"514 354 LINE SMOOTH",
"514 438 OFFCURVE",
"468 484 OFFCURVE",
"384 484 CURVE SMOOTH",
"266 484 LINE SMOOTH",
"235 484 OFFCURVE",
"214 475 OFFCURVE",
"192 453 CURVE SMOOTH",
"179 440 LINE",
"152 440 LINE",
"141 484 LINE",
"97 484 LINE",
"97 0 LINE"
);
}
);
width = 600;
}
);
unicode = 006E;
},
{
glyphname = eng;
lastChange = "2025-01-06 22:41:58 +0000";
layers = (
{
background = {
paths = (
{
closed = 1;
nodes = (
"332 -200 LINE",
"535 7 LINE",
"535 413 LINE SMOOTH",
"535 479 OFFCURVE",
"502 512 OFFCURVE",
"435 512 CURVE SMOOTH",
"251 512 LINE",
"195 451 LINE",
"164 451 LINE",
"117 512 LINE",
"66 512 LINE",
"66 0 LINE",
"196 0 LINE",
"196 391 LINE",
"406 391 LINE",
"406 58 LINE",
"269 -79 LINE",
"174 -79 LINE",
"174 -200 LINE"
);
}
);
};
layerId = "1F2775BA-6CBC-4576-9106-FF363AAD7539";
paths = (
{
closed = 1;
nodes = (
"283 -200 LINE SMOOTH",
"450 -200 OFFCURVE",
"535 -115 OFFCURVE",
"535 56 CURVE SMOOTH",
"535 413 LINE SMOOTH",
"535 479 OFFCURVE",
"502 512 OFFCURVE",
"435 512 CURVE SMOOTH",
"251 512 LINE",
"195 451 LINE",
"164 451 LINE",
"117 512 LINE",
"66 512 LINE",
"66 0 LINE",
"196 0 LINE",
"196 391 LINE",
"406 391 LINE",
"406 58 LINE SMOOTH",
"406 -33 OFFCURVE",
"360 -79 OFFCURVE",
"269 -79 CURVE SMOOTH",
"209 -79 LINE",
"209 -200 LINE"
);
}
);
width = 600;
},
{
layerId = "07E2A1A4-9842-4AD3-8988-1CD562B06979";
paths = (
{
closed = 1;
nodes = (
"296 -200 LINE SMOOTH",
"441 -200 OFFCURVE",
"514 -127 OFFCURVE",
"514 18 CURVE SMOOTH",
"514 408 LINE SMOOTH",
"514 459 OFFCURVE",
"489 484 OFFCURVE",
"438 484 CURVE SMOOTH",
"222 484 LINE",
"179 440 LINE",
"152 440 LINE",
"121 484 LINE",
"97 484 LINE",
"97 0 LINE",
"175 0 LINE",
"175 407 LINE",
"435 407 LINE",
"435 17 LINE SMOOTH",
"435 -76 OFFCURVE",
"389 -123 OFFCURVE",
"296 -123 CURVE SMOOTH",
"227 -123 LINE",
"227 -200 LINE"
);
}
);
width = 600;
}
);
leftMetricsKey = n;
rightMetricsKey = n;
unicode = 014B;
},
{
glyphname = o;
lastChange = "2025-01-06 22:41:58 +0000";
layers = (
{
anchors = (
{
name = bottom;
position = "{300, 0}";
},
{
name = center;
position = "{300, 250}";
},
{
name = ogonek;
position = "{510, 10}";
},
{
name = top;
position = "{300, 512}";
},
{
name = topright;
position = "{545, 500}";
}
);
layerId = "1F2775BA-6CBC-4576-9106-FF363AAD7539";
paths = (
{
closed = 1;
nodes = (
"381 0 LINE SMOOTH",
"485 0 OFFCURVE",
"541 56 OFFCURVE",
"541 160 CURVE SMOOTH",
"541 352 LINE SMOOTH",
"541 456 OFFCURVE",
"485 512 OFFCURVE",
"381 512 CURVE SMOOTH",
"220 512 LINE SMOOTH",
"116 512 OFFCURVE",
"60 456 OFFCURVE",
"60 352 CURVE SMOOTH",
"60 160 LINE SMOOTH",
"60 56 OFFCURVE",
"116 0 OFFCURVE",
"220 0 CURVE SMOOTH"
);
},
{
closed = 1;
nodes = (
"189 391 LINE",
"411 391 LINE",
"411 121 LINE",
"189 121 LINE"
);
},
{
closed = 1;
nodes = (
"235 214 OFFCURVE",
"263 189 OFFCURVE",
"300 189 CURVE SMOOTH",
"337 189 OFFCURVE",
"365 214 OFFCURVE",
"365 253 CURVE SMOOTH",
"365 292 OFFCURVE",
"337 317 OFFCURVE",
"300 317 CURVE SMOOTH",
"263 317 OFFCURVE",
"235 292 OFFCURVE",
"235 253 CURVE SMOOTH"
);
}
);
width = 600;
},
{
anchors = (
{
name = bottom;
position = "{300, 0}";
},
{
name = center;
position = "{300, 250}";
},
{
name = ogonek;
position = "{330, 10}";
},
{
name = top;
position = "{301, 484}";
},
{
name = topright;
position = "{335, 500}";
}
);
layerId = "07E2A1A4-9842-4AD3-8988-1CD562B06979";
paths = (
{
closed = 1;
nodes = (
"374 0 LINE SMOOTH",
"465 0 OFFCURVE",
"514 49 OFFCURVE",
"514 141 CURVE SMOOTH",
"514 343 LINE SMOOTH",
"514 435 OFFCURVE",
"465 484 OFFCURVE",
"374 484 CURVE SMOOTH",
"227 484 LINE SMOOTH",
"136 484 OFFCURVE",
"87 435 OFFCURVE",
"87 343 CURVE SMOOTH",
"87 141 LINE SMOOTH",
"87 49 OFFCURVE",
"136 0 OFFCURVE",
"227 0 CURVE SMOOTH"
);
},
{
closed = 1;
nodes = (
"166 407 LINE",
"435 407 LINE",
"435 77 LINE",
"166 77 LINE"
);
},
{
closed = 1;
nodes = (
"256 215 OFFCURVE",
"275 197 OFFCURVE",
"301 197 CURVE SMOOTH",
"327 197 OFFCURVE",
"346 215 OFFCURVE",
"346 243 CURVE SMOOTH",
"346 270 OFFCURVE",
"327 289 OFFCURVE",
"301 289 CURVE SMOOTH",
"275 289 OFFCURVE",
"256 270 OFFCURVE",
"256 243 CURVE SMOOTH"
);
}
);
width = 600;
}
);
unicode = 006F;
},
{
glyphname = oslash;
lastChange = "2025-01-06 22:41:58 +0000";
layers = (
{
layerId = "1F2775BA-6CBC-4576-9106-FF363AAD7539";
paths = (
{
closed = 1;
nodes = (
"590 490 LINE",
"535 542 LINE",
"11 23 LINE",
"66 -29 LINE"
);
},
{
closed = 1;
nodes = (
"441 0 LINE",
"541 98 LINE",
"541 413 LINE",
"441 512 LINE",
"160 512 LINE",
"60 413 LINE",
"60 98 LINE",
"160 0 LINE"
);
},
{
closed = 1;
nodes = (
"189 391 LINE",
"411 391 LINE",
"411 121 LINE",
"189 121 LINE"
);
}
);
width = 600;
},
{
layerId = "07E2A1A4-9842-4AD3-8988-1CD562B06979";
paths = (
{
closed = 1;
nodes = (
"583 481 LINE",
"537 527 LINE",
"17 8 LINE",
"63 -38 LINE"
);
},
{
closed = 1;
nodes = (
"438 0 LINE",
"514 76 LINE",
"514 408 LINE",
"438 484 LINE",
"163 484 LINE",
"87 408 LINE",
"87 76 LINE",
"163 0 LINE"
);
},
{
closed = 1;
nodes = (
"165 407 LINE",
"435 407 LINE",
"435 77 LINE",
"165 77 LINE"
);
}
);
width = 600;
}
);
unicode = 00F8;
},
{
glyphname = oe;
lastChange = "2025-01-06 22:41:58 +0000";
layers = (
{
layerId = "1F2775BA-6CBC-4576-9106-FF363AAD7539";
paths = (
{
closed = 1;
nodes = (
"586 0 LINE",
"586 121 LINE",
"356 121 LINE",
"356 202 LINE",
"483 202 LINE SMOOTH",
"545 202 OFFCURVE",
"576 232 OFFCURVE",
"576 293 CURVE SMOOTH",
"576 413 LINE SMOOTH",
"576 479 OFFCURVE",
"543 512 OFFCURVE",
"476 512 CURVE SMOOTH",
"126 512 LINE SMOOTH",
"59 512 OFFCURVE",
"26 479 OFFCURVE",
"26 413 CURVE SMOOTH",
"26 98 LINE SMOOTH",
"26 33 OFFCURVE",
"59 0 OFFCURVE",
"126 0 CURVE SMOOTH"
);
},
{
closed = 1;
nodes = (
"156 391 LINE",
"241 391 LINE",
"241 121 LINE",
"156 121 LINE"
);
},
{
closed = 1;
nodes = (
"356 391 LINE",
"445 391 LINE",
"445 314 LINE",
"356 314 LINE"
);
}
);
width = 600;
},
{
layerId = "07E2A1A4-9842-4AD3-8988-1CD562B06979";
paths = (
{
closed = 1;
nodes = (
"580 0 LINE",
"580 77 LINE",
"329 77 LINE",
"329 207 LINE",
"498 207 LINE SMOOTH",
"548 207 OFFCURVE",
"573 232 OFFCURVE",
"573 282 CURVE SMOOTH",
"573 408 LINE SMOOTH",
"573 459 OFFCURVE",
"548 484 OFFCURVE",
"497 484 CURVE SMOOTH",
"111 484 LINE SMOOTH",
"60 484 OFFCURVE",
"35 459 OFFCURVE",
"35 408 CURVE SMOOTH",
"35 76 LINE SMOOTH",
"35 25 OFFCURVE",
"60 0 OFFCURVE",
"111 0 CURVE SMOOTH"
);
},
{
closed = 1;
nodes = (
"113 407 LINE",
"252 407 LINE",
"252 77 LINE",
"113 77 LINE"
);
},
{
closed = 1;
nodes = (
"329 407 LINE",
"494 407 LINE",
"494 284 LINE",
"329 284 LINE"
);
}
);
width = 600;
}
);
unicode = 0153;
},
{
glyphname = p;
lastChange = "2025-01-06 23:23:40 +0000";
layers = (
{
anchors = (
{
name = bottom;
position = "{300, 0}";
},
{
name = top;
position = "{300, 512}";
}
);
background = {
paths = (
{
closed = 1;
nodes = (
"218 -200 LINE",
"218 391 LINE",
"412 391 LINE",
"412 121 LINE",
"202 121 LINE",
"202 0 LINE",
"446 0 LINE SMOOTH",
"509 0 OFFCURVE",
"541 30 OFFCURVE",
"541 91 CURVE SMOOTH",
"541 413 LINE SMOOTH",
"541 479 OFFCURVE",
"508 512 OFFCURVE",
"441 512 CURVE SMOOTH",
"286 512 LINE",
"231 451 LINE",
"200 451 LINE",
"151 512 LINE",
"7 512 LINE",
"7 391 LINE",
"89 391 LINE",
"89 -200 LINE"
);
}
);
};
layerId = "1F2775BA-6CBC-4576-9106-FF363AAD7539";
paths = (
{
closed = 1;
nodes = (
"229 -200 LINE",
"229 391 LINE",
"422 391 LINE",
"422 121 LINE",
"213 121 LINE",
"213 0 LINE",
"391 0 LINE SMOOTH",
"495 0 OFFCURVE",
"551 56 OFFCURVE",
"551 160 CURVE SMOOTH",
"551 352 LINE SMOOTH",
"551 456 OFFCURVE",
"495 512 OFFCURVE",
"391 512 CURVE SMOOTH",
"341 512 LINE SMOOTH",
"310 512 OFFCURVE",
"288 503 OFFCURVE",
"267 480 CURVE SMOOTH",
"241 451 LINE",
"210 451 LINE",
"189 477 LINE SMOOTH",
"169 501 OFFCURVE",
"147 512 OFFCURVE",
"116 512 CURVE SMOOTH",
"18 512 LINE",
"18 391 LINE",
"99 391 LINE",
"99 -200 LINE"
);
}
);
width = 600;
},
{
anchors = (
{
name = bottom;
position = "{300, 0}";
},
{
name = top;
position = "{300, 484}";
}
);
layerId = "07E2A1A4-9842-4AD3-8988-1CD562B06979";
paths = (
{
closed = 1;
nodes = (
"197 -200 LINE",
"197 407 LINE",
"446 407 LINE",
"446 77 LINE",
"181 77 LINE",
"181 0 LINE",
"384 0 LINE SMOOTH",
"475 0 OFFCURVE",
"524 49 OFFCURVE",
"524 141 CURVE SMOOTH",
"524 343 LINE SMOOTH",
"524 435 OFFCURVE",
"475 484 OFFCURVE",
"384 484 CURVE SMOOTH",
"277 484 LINE SMOOTH",
"246 484 OFFCURVE",
"224 474 OFFCURVE",
"204 450 CURVE SMOOTH",
"196 440 LINE",
"169 440 LINE",
"156 453 LINE SMOOTH",
"134 475 OFFCURVE",
"113 484 OFFCURVE",
"82 484 CURVE SMOOTH",
"23 484 LINE",
"23 407 LINE",
"118 407 LINE",
"118 -200 LINE"
);
}
);
width = 600;
}
);
unicode = 0070;
},
{
glyphname = thorn;
lastChange = "2025-01-06 22:41:58 +0000";
layers = (
{
layerId = "1F2775BA-6CBC-4576-9106-FF363AAD7539";
paths = (
{
closed = 1;
nodes = (
"207 -200 LINE",
"207 70 LINE",
"241 33 LINE SMOOTH",
"262 10 OFFCURVE",
"284 0 OFFCURVE",
"315 0 CURVE SMOOTH",
"400 0 LINE SMOOTH",
"491 0 OFFCURVE",
"540 49 OFFCURVE",
"540 140 CURVE SMOOTH",
"540 372 LINE SMOOTH",
"540 463 OFFCURVE",
"491 512 OFFCURVE",
"400 512 CURVE SMOOTH",
"315 512 LINE SMOOTH",
"284 512 OFFCURVE",
"262 503 OFFCURVE",
"241 479 CURVE SMOOTH",
"207 441 LINE",
"207 693 LINE",
"77 693 LINE",
"77 -200 LINE"
);
},
{
closed = 1;
nodes = (
"207 391 LINE",
"410 391 LINE",
"410 121 LINE",
"207 121 LINE"
);
}
);
width = 600;
},
{
layerId = "07E2A1A4-9842-4AD3-8988-1CD562B06979";
paths = (
{
closed = 1;
nodes = (
"177 -200 LINE",
"177 48 LINE",
"199 23 LINE SMOOTH",
"213 7 OFFCURVE",
"228 0 OFFCURVE",
"248 0 CURVE SMOOTH",
"384 0 LINE SMOOTH",
"475 0 OFFCURVE",
"524 49 OFFCURVE",
"524 140 CURVE SMOOTH",
"524 344 LINE SMOOTH",
"524 435 OFFCURVE",
"475 484 OFFCURVE",
"384 484 CURVE SMOOTH",
"248 484 LINE SMOOTH",
"228 484 OFFCURVE",
"213 477 OFFCURVE",
"199 462 CURVE SMOOTH",
"177 436 LINE",
"177 676 LINE",
"98 676 LINE",
"98 -200 LINE"
);
},
{
closed = 1;
nodes = (
"177 407 LINE",
"446 407 LINE",
"446 77 LINE",
"177 77 LINE"
);
}
);
width = 590;
}
);
unicode = 00FE;
},
{
glyphname = q;
lastChange = "2025-01-06 23:23:37 +0000";
layers = (
{
anchors = (
{
name = bottom;
position = "{300, 0}";
},
{
name = top;
position = "{300, 512}";
}
);
background = {
paths = (
{
closed = 1;
nodes = (
"523 -200 LINE",
"523 512 LINE",
"161 512 LINE SMOOTH",
"94 512 OFFCURVE",
"61 479 OFFCURVE",
"61 413 CURVE SMOOTH",
"61 98 LINE SMOOTH",
"61 33 OFFCURVE",
"94 0 OFFCURVE",
"161 0 CURVE SMOOTH",
"330 0 LINE",
"394 70 LINE",
"394 -200 LINE"
);
},
{
closed = 1;
nodes = (
"191 391 LINE",
"394 391 LINE",
"394 121 LINE",
"191 121 LINE"
);
}
);
};
layerId = "1F2775BA-6CBC-4576-9106-FF363AAD7539";
paths = (
{
closed = 1;
nodes = (
"523 -200 LINE",
"523 512 LINE",
"221 512 LINE SMOOTH",
"117 512 OFFCURVE",
"61 456 OFFCURVE",
"61 352 CURVE SMOOTH",
"61 160 LINE SMOOTH",
"61 56 OFFCURVE",
"117 0 OFFCURVE",
"221 0 CURVE SMOOTH",
"268 0 LINE SMOOTH",
"314 0 OFFCURVE",
"339 10 OFFCURVE",
"364 38 CURVE SMOOTH",
"394 71 LINE",
"394 -200 LINE"
);
},
{
closed = 1;
nodes = (
"191 391 LINE",
"394 391 LINE",
"394 121 LINE",
"191 121 LINE"
);
}
);
width = 600;
},
{
anchors = (
{
name = bottom;
position = "{302, 0}";
},
{
name = top;
position = "{302, 503}";
}
);
layerId = "07E2A1A4-9842-4AD3-8988-1CD562B06979";
paths = (
{
closed = 1;
nodes = (
"502 -200 LINE",
"502 484 LINE",
"226 484 LINE SMOOTH",
"135 484 OFFCURVE",
"86 435 OFFCURVE",
"86 343 CURVE SMOOTH",
"86 141 LINE SMOOTH",
"86 49 OFFCURVE",
"135 0 OFFCURVE",
"226 0 CURVE SMOOTH",
"323 0 LINE SMOOTH",
"357 0 OFFCURVE",
"376 4 OFFCURVE",
"398 25 CURVE SMOOTH",
"423 48 LINE",
"423 -200 LINE"
);
},
{
closed = 1;
nodes = (
"164 407 LINE",
"423 407 LINE",
"423 77 LINE",
"164 77 LINE"
);
}
);
width = 600;
}
);
unicode = 0071;
},
{
glyphname = r;
lastChange = "2025-01-06 22:41:58 +0000";
layers = (
{
anchors = (
{
name = bottom;
position = "{246, 0}";
},
{
name = top;
position = "{313, 512}";
}
);
layerId = "1F2775BA-6CBC-4576-9106-FF363AAD7539";
paths = (
{
closed = 1;
nodes = (
"536 0 LINE",
"536 121 LINE",
"327 121 LINE",
"327 391 LINE",
"569 391 LINE",
"569 512 LINE",
"425 512 LINE SMOOTH",
"394 512 OFFCURVE",
"372 503 OFFCURVE",
"351 480 CURVE SMOOTH",
"325 451 LINE",
"294 451 LINE",
"273 477 LINE SMOOTH",
"253 501 OFFCURVE",
"231 512 OFFCURVE",
"200 512 CURVE SMOOTH",
"36 512 LINE",
"36 391 LINE",
"197 391 LINE",
"197 121 LINE",
"36 121 LINE",
"36 0 LINE"
);
}
);
width = 600;
},
{
anchors = (
{
name = bottom;
position = "{274, 0}";
},
{
name = top;
position = "{288, 484}";
}
);
layerId = "07E2A1A4-9842-4AD3-8988-1CD562B06979";
paths = (
{
closed = 1;
nodes = (
"532 0 LINE",
"532 77 LINE",
"308 77 LINE",
"308 407 LINE",
"557 407 LINE",
"557 484 LINE",
"393 484 LINE SMOOTH",
"353 484 OFFCURVE",
"337 477 OFFCURVE",
"313 451 CURVE SMOOTH",
"304 440 LINE",
"277 440 LINE",
"263 454 LINE SMOOTH",
"239 478 OFFCURVE",
"224 484 OFFCURVE",
"184 484 CURVE SMOOTH",
"54 484 LINE",
"54 407 LINE",
"229 407 LINE",
"229 77 LINE",
"54 77 LINE",
"54 0 LINE"
);
}
);
width = 600;
}
);
unicode = 0072;
},
{
glyphname = s;
lastChange = "2025-01-06 23:22:50 +0000";
layers = (
{
anchors = (
{
name = bottom;
position = "{287, 0}";
},
{
name = top;
position = "{307, 512}";
}
);
background = {
paths = (
{
closed = 1;
nodes = (
"396 0 LINE SMOOTH",
"487 0 OFFCURVE",
"536 49 OFFCURVE",
"536 140 CURVE SMOOTH",
"536 180 LINE SMOOTH",
"536 271 OFFCURVE",
"487 320 OFFCURVE",
"396 320 CURVE SMOOTH",
"195 320 LINE",
"195 391 LINE",
"515 391 LINE",
"515 512 LINE",
"205 512 LINE SMOOTH",
"114 512 OFFCURVE",
"65 463 OFFCURVE",
"65 372 CURVE SMOOTH",
"65 339 LINE SMOOTH",
"65 248 OFFCURVE",
"114 199 OFFCURVE",
"205 199 CURVE SMOOTH",
"407 199 LINE",
"407 121 LINE",
"65 121 LINE",
"65 0 LINE"
);
}
);
};
layerId = "1F2775BA-6CBC-4576-9106-FF363AAD7539";
paths = (
{
closed = 1;
nodes = (
"401 0 LINE SMOOTH",
"495 0 OFFCURVE",
"546 49 OFFCURVE",
"546 140 CURVE SMOOTH",
"546 180 LINE SMOOTH",
"546 271 OFFCURVE",
"495 320 OFFCURVE",
"401 320 CURVE SMOOTH",
"186 320 LINE",
"186 391 LINE",
"524 391 LINE",
"524 512 LINE",
"200 512 LINE SMOOTH",
"106 512 OFFCURVE",
"55 463 OFFCURVE",
"55 372 CURVE SMOOTH",
"55 339 LINE SMOOTH",
"55 248 OFFCURVE",
"106 199 OFFCURVE",
"200 199 CURVE SMOOTH",
"416 199 LINE",
"416 121 LINE",
"55 121 LINE",
"55 0 LINE"
);
}
);
width = 600;
},
{
anchors = (
{
name = bottom;
position = "{286, 0}";
},
{
name = top;
position = "{302, 484}";
}
);
layerId = "07E2A1A4-9842-4AD3-8988-1CD562B06979";
paths = (
{
closed = 1;
nodes = (
"402 0 LINE SMOOTH",
"486 0 OFFCURVE",
"532 46 OFFCURVE",
"532 131 CURVE SMOOTH",
"532 152 LINE SMOOTH",
"532 237 OFFCURVE",
"486 283 OFFCURVE",
"402 283 CURVE SMOOTH",
"156 283 LINE",
"156 407 LINE",
"511 407 LINE",
"511 484 LINE",
"207 484 LINE SMOOTH",
"123 484 OFFCURVE",
"77 438 OFFCURVE",
"77 354 CURVE SMOOTH",
"77 337 LINE SMOOTH",
"77 253 OFFCURVE",
"123 207 OFFCURVE",
"207 207 CURVE SMOOTH",
"453 207 LINE",
"453 77 LINE",
"77 77 LINE",
"77 0 LINE"
);
}
);
width = 600;
}
);
unicode = 0073;
},
{
glyphname = germandbls;
lastChange = "2025-01-06 22:41:58 +0000";
layers = (
{
background = {
paths = (
{
closed = 1;
nodes = (
"219 0 LINE",
"219 572 LINE",
"381 572 LINE",
"381 521 LINE",
"267 386 LINE",
"267 267 LINE",
"443 267 LINE",
"443 121 LINE",
"262 121 LINE",
"262 0 LINE",
"473 0 LINE SMOOTH",
"540 0 OFFCURVE",
"573 33 OFFCURVE",
"573 100 CURVE SMOOTH",
"573 279 LINE SMOOTH",
"573 342 OFFCURVE",
"542 373 OFFCURVE",
"480 373 CURVE SMOOTH",
"396 373 LINE",
"396 358 LINE",
"510 488 LINE",
"510 593 LINE SMOOTH",
"510 660 OFFCURVE",
"476 693 OFFCURVE",
"408 693 CURVE SMOOTH",
"192 693 LINE SMOOTH",
"123 693 OFFCURVE",
"89 660 OFFCURVE",
"89 593 CURVE SMOOTH",
"89 0 LINE"
);
},
{
closed = 1;
nodes = (
"108 391 LINE",
"108 512 LINE",
"23 512 LINE",
"23 391 LINE"
);
}
);
};
layerId = "1F2775BA-6CBC-4576-9106-FF363AAD7539";
paths = (
{
closed = 1;
nodes = (
"229 0 LINE",
"229 572 LINE",
"391 572 LINE",
"391 521 LINE",
"277 406 LINE",
"277 257 LINE",
"433 257 LINE",
"433 121 LINE",
"277 121 LINE",
"277 0 LINE",
"463 0 LINE SMOOTH",
"530 0 OFFCURVE",
"563 33 OFFCURVE",
"563 100 CURVE SMOOTH",
"563 269 LINE SMOOTH",
"563 332 OFFCURVE",
"532 363 OFFCURVE",
"470 363 CURVE SMOOTH",
"406 363 LINE",
"406 378 LINE",
"520 488 LINE",
"520 593 LINE SMOOTH",
"520 660 OFFCURVE",
"486 693 OFFCURVE",
"418 693 CURVE SMOOTH",
"202 693 LINE SMOOTH",
"133 693 OFFCURVE",
"99 660 OFFCURVE",
"99 593 CURVE SMOOTH",
"99 0 LINE"
);
},
{
closed = 1;
nodes = (
"118 391 LINE",
"118 512 LINE",
"30 512 LINE",
"30 391 LINE"
);
}
);
width = 600;
},
{
layerId = "07E2A1A4-9842-4AD3-8988-1CD562B06979";
paths = (
{
closed = 1;
nodes = (
"187 0 LINE",
"187 616 LINE",
"414 616 LINE",
"414 525 LINE",
"283 390 LINE",
"283 271 LINE",
"467 271 LINE",
"467 77 LINE",
"253 77 LINE",
"253 0 LINE",
"470 0 LINE SMOOTH",
"521 0 OFFCURVE",
"546 26 OFFCURVE",
"546 80 CURVE SMOOTH",
"546 268 LINE SMOOTH",
"546 322 OFFCURVE",
"521 348 OFFCURVE",
"471 348 CURVE SMOOTH",
"358 348 LINE",
"358 361 LINE",
"493 500 LINE",
"493 613 LINE SMOOTH",
"493 667 OFFCURVE",
"468 693 OFFCURVE",
"417 693 CURVE SMOOTH",
"185 693 LINE SMOOTH",
"134 693 OFFCURVE",
"109 667 OFFCURVE",
"109 613 CURVE SMOOTH",
"109 0 LINE"
);
},
{
closed = 1;
nodes = (
"141 407 LINE",
"141 484 LINE",
"39 484 LINE",
"39 407 LINE"
);
}
);
width = 600;
}
);
unicode = 00DF;
},
{
glyphname = t;
lastChange = "2025-01-06 22:41:58 +0000";
layers = (
{
anchors = (
{
name = bottom;
position = "{389, 0}";
},
{
name = center;
position = "{309, 250}";
},
{
name = top;
position = "{265, 653}";
},
{
name = topright;
position = "{589, 500}";
}
);
background = {
paths = (
{
closed = 1;
nodes = (
"568 0 LINE",
"568 121 LINE",
"330 121 LINE",
"330 392 LINE",
"565 392 LINE",
"565 512 LINE",
"330 512 LINE",
"330 653 LINE",
"200 653 LINE",
"200 512 LINE",
"27 512 LINE",
"27 392 LINE",
"200 392 LINE",
"200 98 LINE SMOOTH",
"200 33 OFFCURVE",
"233 0 OFFCURVE",
"300 0 CURVE SMOOTH"
);
}
);
};
layerId = "1F2775BA-6CBC-4576-9106-FF363AAD7539";
paths = (
{
closed = 1;
nodes = (
"568 0 LINE",
"568 121 LINE",
"338 121 LINE",
"338 392 LINE",
"565 392 LINE",
"565 512 LINE",
"338 512 LINE",
"338 653 LINE",
"208 653 LINE",
"208 512 LINE",
"27 512 LINE",
"27 392 LINE",
"208 392 LINE",
"208 120 LINE SMOOTH",
"208 42 OFFCURVE",
"250 0 OFFCURVE",
"328 0 CURVE SMOOTH"
);
}
);
width = 600;
},
{
anchors = (
{
name = bottom;
position = "{379, 0}";
},
{
name = center;
position = "{301, 250}";
},
{
name = top;
position = "{259, 634}";
},
{
name = topright;
position = "{581, 500}";
}
);
layerId = "07E2A1A4-9842-4AD3-8988-1CD562B06979";
paths = (
{
closed = 1;
nodes = (
"554 0 LINE",
"554 77 LINE",
"306 77 LINE",
"306 407 LINE",
"537 407 LINE",
"537 484 LINE",
"306 484 LINE",
"306 634 LINE",
"227 634 LINE",
"227 484 LINE",
"39 484 LINE",
"39 407 LINE",
"227 407 LINE",
"227 111 LINE SMOOTH",
"227 39 OFFCURVE",
"266 0 OFFCURVE",
"337 0 CURVE SMOOTH"
);
}
);
width = 600;
}
);
unicode = 0074;
},
{
glyphname = tbar;
lastChange = "2025-01-06 22:41:58 +0000";
layers = (
{
layerId = "1F2775BA-6CBC-4576-9106-FF363AAD7539";
paths = (
{
closed = 1;
nodes = (
"568 0 LINE",
"568 121 LINE",
"330 121 LINE",
"330 204 LINE",
"568 204 LINE",
"568 315 LINE",
"330 315 LINE",
"330 396 LINE",
"568 396 LINE",
"568 512 LINE",
"330 512 LINE",
"330 654 LINE",
"200 654 LINE",
"200 512 LINE",
"27 512 LINE",
"27 396 LINE",
"200 396 LINE",
"200 315 LINE",
"27 315 LINE",
"27 204 LINE",
"200 204 LINE",
"200 98 LINE SMOOTH",
"200 33 OFFCURVE",
"233 0 OFFCURVE",
"300 0 CURVE SMOOTH"
);
}
);
width = 600;
},
{
layerId = "07E2A1A4-9842-4AD3-8988-1CD562B06979";
paths = (
{
closed = 1;
nodes = (
"554 0 LINE",
"554 77 LINE",
"298 77 LINE",
"298 208 LINE",
"554 208 LINE",
"554 285 LINE",
"298 285 LINE",
"298 408 LINE",
"554 408 LINE",
"554 484 LINE",
"298 484 LINE",
"298 646 LINE",
"220 646 LINE",
"220 484 LINE",
"39 484 LINE",
"39 408 LINE",
"220 408 LINE",
"220 285 LINE",
"39 285 LINE",
"39 208 LINE",
"220 208 LINE",
"220 76 LINE SMOOTH",
"220 25 OFFCURVE",
"245 0 OFFCURVE",
"296 0 CURVE SMOOTH"
);
}
);
width = 600;
}
);
unicode = 0167;
},
{
glyphname = u;
lastChange = "2025-01-06 23:24:21 +0000";
layers = (
{
anchors = (
{
name = bottom;
position = "{300, 0}";
},
{
name = ogonek;
position = "{533, 0}";
},
{
name = top;
position = "{300, 512}";
},
{
name = topright;
position = "{580, 516}";
}
);
layerId = "1F2775BA-6CBC-4576-9106-FF363AAD7539";
paths = (
{
closed = 1;
nodes = (
"306 0 LINE SMOOTH",
"337 0 OFFCURVE",
"359 9 OFFCURVE",
"380 32 CURVE SMOOTH",
"406 61 LINE",
"437 61 LINE",
"464 0 LINE",
"535 0 LINE",
"535 512 LINE",
"405 512 LINE",
"405 121 LINE",
"195 121 LINE",
"195 512 LINE",
"66 512 LINE",
"66 140 LINE SMOOTH",
"66 49 OFFCURVE",
"115 0 OFFCURVE",
"206 0 CURVE SMOOTH"
);
}
);
width = 600;
},
{
anchors = (
{
name = bottom;
position = "{300, 0}";
},
{
name = ogonek;
position = "{503, 0}";
},
{
name = top;
position = "{294, 484}";
},
{
name = topright;
position = "{580, 485}";
}
);
layerId = "07E2A1A4-9842-4AD3-8988-1CD562B06979";
paths = (
{
closed = 1;
nodes = (
"329 0 LINE SMOOTH",
"363 0 OFFCURVE",
"382 3 OFFCURVE",
"403 26 CURVE SMOOTH",
"421 45 LINE",
"448 45 LINE",
"459 0 LINE",
"503 0 LINE",
"503 484 LINE",
"424 484 LINE",
"424 77 LINE",
"164 77 LINE",
"164 484 LINE",
"86 484 LINE",
"86 131 LINE SMOOTH",
"86 46 OFFCURVE",
"132 0 OFFCURVE",
"216 0 CURVE SMOOTH"
);
}
);
width = 600;
}
);
unicode = 0075;
},
{
glyphname = uogonek;
lastChange = "2025-01-06 22:41:58 +0000";
layers = (
{
anchors = (
{
name = bottom;
position = "{300, 0}";
},
{
name = ogonek;
position = "{533, 0}";
},
{
name = top;
position = "{300, 512}";
},
{
name = topright;
position = "{580, 516}";
}
);
layerId = "1F2775BA-6CBC-4576-9106-FF363AAD7539";
paths = (
{
closed = 1;
nodes = (
"488 -242 LINE SMOOTH",
"527 -242 OFFCURVE",
"546 -222 OFFCURVE",
"546 -183 CURVE SMOOTH",
"546 -115 LINE",
"448 -115 LINE",
"448 -159 LINE",
"398 -159 LINE",
"398 -125 LINE",
"533 0 LINE",
"533 512 LINE",
"403 512 LINE",
"403 121 LINE",
"195 121 LINE",
"195 512 LINE",
"66 512 LINE",
"66 98 LINE SMOOTH",
"66 33 OFFCURVE",
"99 0 OFFCURVE",
"166 0 CURVE SMOOTH",
"344 0 LINE",
"413 61 LINE",
"457 61 LINE",
"300 -90 LINE",
"300 -183 LINE SMOOTH",
"300 -222 OFFCURVE",
"320 -242 OFFCURVE",
"359 -242 CURVE SMOOTH"
);
}
);
width = 600;
},
{
anchors = (
{
name = bottom;
position = "{300, 0}";
},
{
name = ogonek;
position = "{494, 0}";
},
{
name = top;
position = "{300, 484}";
},
{
name = topright;
position = "{580, 503}";
}
);
layerId = "07E2A1A4-9842-4AD3-8988-1CD562B06979";
paths = (
{
closed = 1;
nodes = (
"455 -237 LINE SMOOTH",
"490 -237 OFFCURVE",
"507 -221 OFFCURVE",
"507 -188 CURVE SMOOTH",
"507 -125 LINE",
"445 -125 LINE",
"445 -178 LINE",
"365 -178 LINE",
"365 -129 LINE",
"494 0 LINE",
"494 484 LINE",
"416 484 LINE",
"416 77 LINE",
"174 77 LINE",
"174 484 LINE",
"95 484 LINE",
"95 76 LINE SMOOTH",
"95 25 OFFCURVE",
"120 0 OFFCURVE",
"171 0 CURVE SMOOTH",
"371 0 LINE",
"416 45 LINE",
"455 45 LINE",
"303 -109 LINE",
"303 -188 LINE SMOOTH",
"303 -221 OFFCURVE",
"320 -237 OFFCURVE",
"354 -237 CURVE SMOOTH"
);
}
);
width = 600;
}
);
unicode = 0173;
},
{
glyphname = v;
lastChange = "2025-01-06 22:41:58 +0000";
layers = (
{
anchors = (
{
name = bottom;
position = "{300, 0}";
},
{
name = top;
position = "{300, 458}";
}
);
background = {
paths = (
{
closed = 1;
nodes = (
"401 0 LINE",
"557 393 LINE",
"557 512 LINE",
"427 512 LINE",
"427 422 LINE",
"319 121 LINE",
"281 121 LINE",
"173 422 LINE",
"173 512 LINE",
"43 512 LINE",
"43 393 LINE",
"200 0 LINE"
);
}
);
};
layerId = "1F2775BA-6CBC-4576-9106-FF363AAD7539";
paths = (
{
closed = 1;
nodes = (
"401 0 LINE",
"557 471 LINE",
"557 512 LINE",
"427 512 LINE",
"319 121 LINE",
"281 121 LINE",
"173 512 LINE",
"43 512 LINE",
"43 471 LINE",
"199 0 LINE"
);
}
);
width = 600;
},
{
anchors = (
{
name = bottom;
position = "{300, 0}";
},
{
name = top;
position = "{300, 477}";
}
);
layerId = "07E2A1A4-9842-4AD3-8988-1CD562B06979";
paths = (
{
closed = 1;
nodes = (
"368 0 LINE",
"531 461 LINE",
"531 484 LINE",
"452 484 LINE",
"317 77 LINE",
"283 77 LINE",
"148 484 LINE",
"69 484 LINE",
"69 461 LINE",
"233 0 LINE"
);
}
);
width = 600;
}
);
unicode = 0076;
},
{
glyphname = w;
lastChange = "2025-01-06 22:41:58 +0000";
layers = (
{
anchors = (
{
name = bottom;
position = "{300, 0}";
},
{
name = top;
position = "{300, 512}";
}
);
background = {
paths = (
{
closed = 1;
nodes = (
"266 0 LINE",
"294 148 LINE",
"307 148 LINE",
"333 0 LINE",
"493 0 LINE",
"563 408 LINE",
"563 512 LINE",
"434 512 LINE",
"434 419 LINE",
"410 153 LINE",
"395 153 LINE",
"364 318 LINE",
"364 427 LINE",
"237 427 LINE",
"237 322 LINE",
"205 153 LINE",
"190 153 LINE",
"166 419 LINE",
"166 512 LINE",
"37 512 LINE",
"37 408 LINE",
"108 0 LINE"
);
}
);
};
layerId = "1F2775BA-6CBC-4576-9106-FF363AAD7539";
paths = (
{
closed = 1;
nodes = (
"271 0 LINE",
"291 148 LINE",
"310 148 LINE",
"328 0 LINE",
"493 0 LINE",
"563 471 LINE",
"563 512 LINE",
"434 512 LINE",
"413 153 LINE",
"392 153 LINE",
"364 322 LINE",
"237 322 LINE",
"208 153 LINE",
"187 153 LINE",
"166 512 LINE",
"37 512 LINE",
"37 471 LINE",
"108 0 LINE"
);
}
);
width = 600;
},
{
anchors = (
{
name = bottom;
position = "{300, 0}";
},
{
name = top;
position = "{300, 484}";
}
);
layerId = "07E2A1A4-9842-4AD3-8988-1CD562B06979";
paths = (
{
closed = 1;
nodes = (
"254 0 LINE",
"291 181 LINE",
"310 181 LINE",
"346 0 LINE",
"470 0 LINE",
"554 461 LINE",
"554 484 LINE",
"472 484 LINE",
"415 82 LINE",
"397 82 LINE",
"349 305 LINE",
"252 306 LINE",
"203 82 LINE",
"185 82 LINE",
"128 484 LINE",
"46 484 LINE",
"46 461 LINE",
"131 0 LINE"
);
}
);
width = 600;
}
);
unicode = 0077;
},
{
glyphname = x;
lastChange = "2025-01-07 10:33:17 +0000";
layers = (
{
anchors = (
{
name = bottom;
position = "{301, 0}";
},
{
name = top;
position = "{301, 512}";
}
);
background = {
paths = (
{
closed = 1;
nodes = (
"183 0 LINE",
"279 189 LINE",
"323 189 LINE",
"419 0 LINE",
"550 0 LINE",
"550 41 LINE",
"429 256 LINE",
"550 471 LINE",
"550 512 LINE",
"419 512 LINE",
"323 323 LINE",
"279 323 LINE",
"183 512 LINE",
"52 512 LINE",
"52 471 LINE",
"171 256 LINE",
"52 41 LINE",
"52 0 LINE"
);
}
);
};
layerId = "1F2775BA-6CBC-4576-9106-FF363AAD7539";
paths = (
{
closed = 1;
nodes = (
"162 0 LINE",
"278 199 LINE",
"322 199 LINE",
"438 0 LINE",
"569 0 LINE",
"569 41 LINE",
"429 266 LINE",
"560 471 LINE",
"560 512 LINE",
"429 512 LINE",
"323 333 LINE",
"279 333 LINE",
"173 512 LINE",
"42 512 LINE",
"42 471 LINE",
"171 266 LINE",
"31 41 LINE",
"31 0 LINE"
);
}
);
width = 600;
},
{
anchors = (
{
name = bottom;
position = "{300, 0}";
},
{
name = top;
position = "{300, 501}";
}
);
background = {
paths = (
{
closed = 1;
nodes = (
"151 0 LINE",
"283 201 LINE",
"316 201 LINE",
"448 0 LINE",
"527 0 LINE",
"527 24 LINE",
"382 243 LINE",
"527 461 LINE",
"527 484 LINE",
"448 484 LINE",
"316 283 LINE",
"283 283 LINE",
"151 484 LINE",
"72 484 LINE",
"72 461 LINE",
"218 243 LINE",
"72 24 LINE",
"72 0 LINE"
);
}
);
};
layerId = "07E2A1A4-9842-4AD3-8988-1CD562B06979";
paths = (
{
closed = 1;
nodes = (
"131 0 LINE",
"283 208 LINE",
"316 208 LINE",
"468 0 LINE",
"547 0 LINE",
"547 24 LINE",
"382 250 LINE",
"537 461 LINE",
"537 484 LINE",
"458 484 LINE",
"316 290 LINE",
"283 290 LINE",
"141 484 LINE",
"62 484 LINE",
"62 461 LINE",
"218 250 LINE",
"52 24 LINE",
"52 0 LINE"
);
}
);
width = 600;
}
);
unicode = 0078;
},
{
glyphname = y;
lastChange = "2025-01-06 23:17:32 +0000";
layers = (
{
anchors = (
{
name = bottom;
position = "{300, 0}";
},
{
name = top;
position = "{299, 512}";
}
);
layerId = "1F2775BA-6CBC-4576-9106-FF363AAD7539";
paths = (
{
closed = 1;
nodes = (
"403 -200 LINE SMOOTH",
"487 -200 OFFCURVE",
"533 -154 OFFCURVE",
"533 -70 CURVE SMOOTH",
"533 512 LINE",
"403 512 LINE",
"403 121 LINE",
"195 121 LINE",
"195 512 LINE",
"66 512 LINE",
"66 130 LINE SMOOTH",
"66 46 OFFCURVE",
"112 0 OFFCURVE",
"196 0 CURVE SMOOTH",
"304 0 LINE SMOOTH",
"335 0 OFFCURVE",
"357 9 OFFCURVE",
"378 32 CURVE SMOOTH",
"403 60 LINE",
"403 -79 LINE",
"63 -79 LINE",
"63 -200 LINE"
);
}
);
width = 600;
},
{
anchors = (
{
name = bottom;
position = "{300, 0}";
},
{
name = top;
position = "{295, 484}";
}
);
layerId = "07E2A1A4-9842-4AD3-8988-1CD562B06979";
paths = (
{
closed = 1;
nodes = (
"384 -200 LINE SMOOTH",
"455 -200 OFFCURVE",
"494 -161 OFFCURVE",
"494 -90 CURVE SMOOTH",
"494 484 LINE",
"415 484 LINE",
"415 77 LINE",
"174 77 LINE",
"174 484 LINE",
"96 484 LINE",
"96 130 LINE SMOOTH",
"96 46 OFFCURVE",
"142 0 OFFCURVE",
"226 0 CURVE SMOOTH",
"332 0 LINE SMOOTH",
"357 0 OFFCURVE",
"376 7 OFFCURVE",
"394 25 CURVE SMOOTH",
"415 47 LINE",
"415 -123 LINE",
"91 -123 LINE",
"91 -200 LINE"
);
}
);
width = 600;
}
);
unicode = 0079;
},
{
glyphname = z;
lastChange = "2025-01-06 22:41:58 +0000";
layers = (
{
anchors = (
{
name = bottom;
position = "{296, 0}";
},
{
name = center;
position = "{296, 250}";
},
{
name = top;
position = "{296, 512}";
}
);
background = {
paths = (
{
closed = 1;
nodes = (
"543 0 LINE",
"543 120 LINE",
"181 120 LINE",
"181 140 LINE",
"538 304 LINE",
"538 512 LINE",
"56 512 LINE",
"56 392 LINE",
"408 392 LINE",
"408 372 LINE",
"51 208 LINE",
"51 0 LINE"
);
}
);
};
layerId = "1F2775BA-6CBC-4576-9106-FF363AAD7539";
paths = (
{
closed = 1;
nodes = (
"543 0 LINE",
"543 121 LINE",
"189 121 LINE",
"189 146 LINE",
"538 304 LINE",
"538 377 LINE SMOOTH",
"538 467 OFFCURVE",
"493 512 OFFCURVE",
"405 512 CURVE SMOOTH",
"56 512 LINE",
"56 391 LINE",
"400 391 LINE",
"400 367 LINE",
"51 207 LINE",
"51 135 LINE SMOOTH",
"51 45 OFFCURVE",
"96 0 OFFCURVE",
"184 0 CURVE SMOOTH"
);
}
);
width = 600;
},
{
anchors = (
{
name = bottom;
position = "{300, 0}";
},
{
name = center;
position = "{300, 250}";
},
{
name = top;
position = "{300, 484}";
}
);
layerId = "07E2A1A4-9842-4AD3-8988-1CD562B06979";
paths = (
{
closed = 1;
nodes = (
"539 0 LINE",
"539 77 LINE",
"144 77 LINE",
"144 103 LINE",
"531 342 LINE",
"531 425 LINE SMOOTH",
"531 465 OFFCURVE",
"509 484 OFFCURVE",
"465 484 CURVE SMOOTH",
"73 484 LINE",
"73 407 LINE",
"452 407 LINE",
"452 382 LINE",
"65 142 LINE",
"65 59 LINE SMOOTH",
"65 19 OFFCURVE",
"87 0 OFFCURVE",
"131 0 CURVE SMOOTH"
);
}
);
width = 600;
}
);
unicode = 007A;
},
{
glyphname = g.ss01;
lastChange = "2025-01-06 23:17:45 +0000";
layers = (
{
anchors = (
{
name = bottom;
position = "{310, 0}";
},
{
name = top;
position = "{314, 512}";
}
);
background = {
paths = (
{
closed = 1;
nodes = (
"423 -200 LINE SMOOTH",
"490 -200 OFFCURVE",
"523 -167 OFFCURVE",
"523 -102 CURVE SMOOTH",
"523 512 LINE",
"473 512 LINE",
"426 451 LINE",
"394 451 LINE",
"338 512 LINE",
"161 512 LINE SMOOTH",
"94 512 OFFCURVE",
"61 479 OFFCURVE",
"61 413 CURVE SMOOTH",
"61 98 LINE SMOOTH",
"61 33 OFFCURVE",
"94 0 OFFCURVE",
"161 0 CURVE SMOOTH",
"330 0 LINE",
"394 70 LINE",
"394 -80 LINE",
"61 -80 LINE",
"61 -200 LINE"
);
},
{
closed = 1;
nodes = (
"191 391 LINE",
"394 391 LINE",
"394 121 LINE",
"191 121 LINE"
);
}
);
};
layerId = "1F2775BA-6CBC-4576-9106-FF363AAD7539";
paths = (
{
closed = 1;
nodes = (
"394 -200 LINE SMOOTH",
"478 -200 OFFCURVE",
"524 -154 OFFCURVE",
"524 -70 CURVE SMOOTH",
"524 512 LINE",
"473 512 LINE",
"426 451 LINE",
"395 451 LINE",
"369 480 LINE SMOOTH",
"348 503 OFFCURVE",
"326 512 OFFCURVE",
"295 512 CURVE SMOOTH",
"192 512 LINE SMOOTH",
"108 512 OFFCURVE",
"62 466 OFFCURVE",
"62 382 CURVE SMOOTH",
"62 130 LINE SMOOTH",
"62 46 OFFCURVE",
"108 0 OFFCURVE",
"192 0 CURVE SMOOTH",
"286 0 LINE SMOOTH",
"317 0 OFFCURVE",
"339 9 OFFCURVE",
"360 32 CURVE SMOOTH",
"394 70 LINE",
"394 -79 LINE",
"61 -79 LINE",
"61 -200 LINE"
);
},
{
closed = 1;
nodes = (
"191 391 LINE",
"394 391 LINE",
"394 121 LINE",
"191 121 LINE"
);
}
);
width = 600;
},
{
anchors = (
{
name = bottom;
position = "{301, 0}";
},
{
name = top;
position = "{297, 484}";
}
);
background = {
paths = (
{
closed = 1;
nodes = (
"426 -200 LINE SMOOTH",
"477 -200 OFFCURVE",
"502 -175 OFFCURVE",
"502 -124 CURVE SMOOTH",
"502 484 LINE",
"477 484 LINE",
"447 440 LINE",
"420 440 LINE",
"377 484 LINE",
"162 484 LINE SMOOTH",
"111 484 OFFCURVE",
"86 459 OFFCURVE",
"86 408 CURVE SMOOTH",
"86 76 LINE SMOOTH",
"86 25 OFFCURVE",
"111 0 OFFCURVE",
"162 0 CURVE SMOOTH",
"381 0 LINE",
"423 48 LINE",
"423 -127 LINE",
"87 -127 LINE",
"87 -200 LINE"
);
},
{
closed = 1;
nodes = (
"164 407 LINE",
"423 407 LINE",
"423 77 LINE",
"164 77 LINE"
);
}
);
};
layerId = "07E2A1A4-9842-4AD3-8988-1CD562B06979";
paths = (
{
closed = 1;
nodes = (
"392 -200 LINE SMOOTH",
"463 -200 OFFCURVE",
"502 -161 OFFCURVE",
"502 -90 CURVE SMOOTH",
"502 484 LINE",
"477 484 LINE",
"447 440 LINE",
"419 440 LINE",
"401 459 LINE SMOOTH",
"383 477 OFFCURVE",
"364 484 OFFCURVE",
"339 484 CURVE SMOOTH",
"216 484 LINE SMOOTH",
"132 484 OFFCURVE",
"86 438 OFFCURVE",
"86 354 CURVE SMOOTH",
"86 130 LINE SMOOTH",
"86 46 OFFCURVE",
"132 0 OFFCURVE",
"216 0 CURVE SMOOTH",
"339 0 LINE SMOOTH",
"364 0 OFFCURVE",
"383 7 OFFCURVE",
"401 25 CURVE SMOOTH",
"423 48 LINE",
"423 -123 LINE",
"87 -123 LINE",
"87 -200 LINE"
);
},
{
closed = 1;
nodes = (
"164 407 LINE",
"423 407 LINE",
"423 77 LINE",
"164 77 LINE"
);
}
);
width = 600;
}
);
},
{
glyphname = o.ss02;
lastChange = "2025-01-06 22:41:58 +0000";
layers = (
{
anchors = (
{
name = bottom;
position = "{300, 0}";
},
{
name = center;
position = "{300, 257}";
},
{
name = ogonek;
position = "{540, 10}";
},
{
name = top;
position = "{300, 512}";
},
{
name = topright;
position = "{580, 500}";
}
);
layerId = "1F2775BA-6CBC-4576-9106-FF363AAD7539";
paths = (
{
closed = 1;
nodes = (
"559 310 LINE",
"559 512 LINE",
"353 512 LINE",
"353 481 LINE",
"443 453 OFFCURVE",
"495 402 OFFCURVE",
"524 310 CURVE"
);
},
{
closed = 1;
nodes = (
"248 0 LINE",
"248 30 LINE",
"156 57 OFFCURVE",
"105 110 OFFCURVE",
"74 200 CURVE",
"44 200 LINE",
"44 0 LINE"
);
},
{
closed = 1;
nodes = (
"559 0 LINE",
"559 200 LINE",
"524 200 LINE",
"495 110 OFFCURVE",
"443 57 OFFCURVE",
"353 30 CURVE",
"353 0 LINE"
);
},
{
closed = 1;
nodes = (
"335 194 OFFCURVE",
"364 222 OFFCURVE",
"364 257 CURVE SMOOTH",
"364 289 OFFCURVE",
"335 319 OFFCURVE",
"300 319 CURVE SMOOTH",
"266 319 OFFCURVE",
"236 289 OFFCURVE",
"236 257 CURVE SMOOTH",
"236 222 OFFCURVE",
"266 194 OFFCURVE",
"300 194 CURVE SMOOTH"
);
},
{
closed = 1;
nodes = (
"74 310 LINE",
"105 402 OFFCURVE",
"156 453 OFFCURVE",
"248 481 CURVE",
"248 512 LINE",
"44 512 LINE",
"44 310 LINE"
);
}
);
width = 600;
},
{
anchors = (
{
name = bottom;
position = "{300, 0}";
},
{
name = center;
position = "{300, 243}";
},
{
name = ogonek;
position = "{540, 10}";
},
{
name = top;
position = "{300, 484}";
},
{
name = topright;
position = "{580, 500}";
}
);
layerId = "07E2A1A4-9842-4AD3-8988-1CD562B06979";
paths = (
{
closed = 1;
nodes = (
"543 306 LINE",
"543 484 LINE",
"362 484 LINE",
"362 468 LINE",
"440 443 OFFCURVE",
"499 384 OFFCURVE",
"524 306 CURVE"
);
},
{
closed = 1;
nodes = (
"239 0 LINE",
"239 17 LINE",
"160 41 OFFCURVE",
"101 101 OFFCURVE",
"76 178 CURVE",
"58 178 LINE",
"58 0 LINE"
);
},
{
closed = 1;
nodes = (
"543 0 LINE",
"543 178 LINE",
"524 178 LINE",
"499 101 OFFCURVE",
"440 41 OFFCURVE",
"362 17 CURVE",
"362 0 LINE"
);
},
{
closed = 1;
nodes = (
"326 197 OFFCURVE",
"346 217 OFFCURVE",
"346 243 CURVE SMOOTH",
"346 267 OFFCURVE",
"326 289 OFFCURVE",
"300 289 CURVE SMOOTH",
"275 289 OFFCURVE",
"254 267 OFFCURVE",
"254 243 CURVE SMOOTH",
"254 217 OFFCURVE",
"275 197 OFFCURVE",
"300 197 CURVE SMOOTH"
);
},
{
closed = 1;
nodes = (
"76 306 LINE",
"101 384 OFFCURVE",
"160 443 OFFCURVE",
"239 468 CURVE",
"239 484 LINE",
"58 484 LINE",
"58 306 LINE"
);
}
);
width = 600;
}
);
},
{
glyphname = o.ss03;
lastChange = "2025-01-06 22:41:58 +0000";
layers = (
{
anchors = (
{
name = bottom;
position = "{300, 0}";
},
{
name = center;
position = "{300, 257}";
},
{
name = ogonek;
position = "{540, 10}";
},
{
name = top;
position = "{300, 512}";
},
{
name = topright;
position = "{580, 500}";
}
);
layerId = "1F2775BA-6CBC-4576-9106-FF363AAD7539";
paths = (
{
closed = 1;
nodes = (
"448 -8 OFFCURVE",
"567 110 OFFCURVE",
"567 255 CURVE SMOOTH",
"567 404 OFFCURVE",
"448 520 OFFCURVE",
"300 520 CURVE SMOOTH",
"154 520 OFFCURVE",
"34 404 OFFCURVE",
"34 255 CURVE SMOOTH",
"34 110 OFFCURVE",
"154 -8 OFFCURVE",
"300 -8 CURVE SMOOTH"
);
},
{
closed = 1;
nodes = (
"275 211 OFFCURVE",
"254 231 OFFCURVE",
"254 257 CURVE SMOOTH",
"254 283 OFFCURVE",
"275 303 OFFCURVE",
"300 303 CURVE SMOOTH",
"327 303 OFFCURVE",
"347 283 OFFCURVE",
"347 257 CURVE SMOOTH",
"347 231 OFFCURVE",
"327 211 OFFCURVE",
"300 211 CURVE SMOOTH"
);
}
);
width = 600;
},
{
anchors = (
{
name = bottom;
position = "{300, 0}";
},
{
name = center;
position = "{300, 243}";
},
{
name = ogonek;
position = "{540, 10}";
},
{
name = top;
position = "{300, 484}";
},
{
name = topright;
position = "{580, 500}";
}
);
layerId = "07E2A1A4-9842-4AD3-8988-1CD562B06979";
paths = (
{
closed = 1;
nodes = (
"439 -8 OFFCURVE",
"552 104 OFFCURVE",
"552 242 CURVE SMOOTH",
"552 382 OFFCURVE",
"439 492 OFFCURVE",
"300 492 CURVE SMOOTH",
"163 492 OFFCURVE",
"49 382 OFFCURVE",
"49 242 CURVE SMOOTH",
"49 104 OFFCURVE",
"163 -8 OFFCURVE",
"300 -8 CURVE SMOOTH"
);
},
{
closed = 1;
nodes = (
"277 200 OFFCURVE",
"257 218 OFFCURVE",
"257 244 CURVE SMOOTH",
"257 269 OFFCURVE",
"277 287 OFFCURVE",
"300 287 CURVE SMOOTH",
"325 287 OFFCURVE",
"344 269 OFFCURVE",
"344 244 CURVE SMOOTH",
"344 218 OFFCURVE",
"325 200 OFFCURVE",
"300 200 CURVE SMOOTH"
);
}
);
width = 600;
}
);
},
{
glyphname = A_j.liga;
lastChange = "2025-01-06 23:28:49 +0000";
layers = (
{
background = {
paths = (
{
closed = 1;
nodes = (
"745 -200 LINE SMOOTH",
"912 -200 OFFCURVE",
"1011 -126 OFFCURVE",
"1011 30 CURVE SMOOTH",
"1011 391 LINE",
"1179 391 LINE",
"1179 512 LINE",
"1039 512 LINE",
"990 451 LINE",
"959 451 LINE",
"903 512 LINE",
"588 512 LINE",
"588 391 LINE",
"882 391 LINE",
"882 52 LINE SMOOTH",
"882 -38 OFFCURVE",
"841 -79 OFFCURVE",
"751 -79 CURVE SMOOTH",
"579 -79 LINE",
"579 -200 LINE"
);
},
{
closed = 1;
nodes = (
"1068 569 LINE",
"1068 693 LINE",
"888 693 LINE",
"888 569 LINE"
);
},
{
closed = 1;
nodes = (
"196 0 LINE",
"196 143 LINE",
"404 143 LINE",
"404 0 LINE",
"536 0 LINE",
"536 166 LINE",
"403 633 LINE",
"196 633 LINE",
"64 166 LINE",
"64 0 LINE"
);
},
{
closed = 1;
nodes = (
"285 517 LINE",
"314 517 LINE",
"377 262 LINE",
"225 262 LINE"
);
}
);
};
layerId = "1F2775BA-6CBC-4576-9106-FF363AAD7539";
paths = (
{
closed = 1;
nodes = (
"745 -200 LINE SMOOTH",
"912 -200 OFFCURVE",
"1011 -126 OFFCURVE",
"1011 30 CURVE SMOOTH",
"1011 391 LINE",
"1178 391 LINE",
"1178 512 LINE",
"1084 512 LINE SMOOTH",
"1053 512 OFFCURVE",
"1031 501 OFFCURVE",
"1011 477 CURVE SMOOTH",
"990 451 LINE",
"959 451 LINE",
"933 480 LINE SMOOTH",
"912 503 OFFCURVE",
"890 512 OFFCURVE",
"859 512 CURVE SMOOTH",
"588 512 LINE",
"588 391 LINE",
"882 391 LINE",
"882 52 LINE SMOOTH",
"882 -38 OFFCURVE",
"841 -79 OFFCURVE",
"751 -79 CURVE SMOOTH",
"579 -79 LINE",
"579 -200 LINE"
);
},
{
closed = 1;
nodes = (
"196 0 LINE",
"196 143 LINE",
"404 143 LINE",
"404 0 LINE",
"536 0 LINE",
"536 166 LINE",
"403 633 LINE",
"196 633 LINE",
"64 166 LINE",
"64 0 LINE"
);
},
{
closed = 1;
nodes = (
"285 517 LINE",
"314 517 LINE",
"377 262 LINE",
"225 262 LINE"
);
},
{
closed = 1;
nodes = (
"1065 569 LINE",
"1065 693 LINE",
"885 693 LINE",
"885 569 LINE"
);
}
);
width = 1200;
},
{
background = {
paths = (
{
closed = 1;
nodes = (
"754 -200 LINE SMOOTH",
"899 -200 OFFCURVE",
"972 -128 OFFCURVE",
"972 17 CURVE SMOOTH",
"972 407 LINE",
"1146 407 LINE",
"1146 484 LINE",
"978 484 LINE",
"934 440 LINE",
"908 440 LINE",
"868 484 LINE",
"591 484 LINE",
"591 407 LINE",
"893 407 LINE",
"893 17 LINE SMOOTH",
"893 -76 OFFCURVE",
"847 -123 OFFCURVE",
"754 -123 CURVE SMOOTH",
"552 -123 LINE",
"552 -200 LINE"
);
},
{
closed = 1;
nodes = (
"1008 559 LINE",
"1008 665 LINE",
"915 665 LINE",
"915 559 LINE"
);
},
{
closed = 1;
nodes = (
"155 0 LINE",
"155 161 LINE",
"445 161 LINE",
"445 0 LINE",
"524 0 LINE",
"524 175 LINE",
"365 633 LINE",
"235 633 LINE",
"76 175 LINE",
"76 0 LINE"
);
},
{
closed = 1;
nodes = (
"287 556 LINE",
"313 556 LINE",
"425 234 LINE",
"175 234 LINE"
);
}
);
};
layerId = "07E2A1A4-9842-4AD3-8988-1CD562B06979";
paths = (
{
closed = 1;
nodes = (
"754 -200 LINE SMOOTH",
"899 -200 OFFCURVE",
"972 -128 OFFCURVE",
"972 17 CURVE SMOOTH",
"972 407 LINE",
"1147 407 LINE",
"1147 484 LINE",
"1027 484 LINE SMOOTH",
"1007 484 OFFCURVE",
"992 478 OFFCURVE",
"978 464 CURVE SMOOTH",
"954 440 LINE",
"928 440 LINE",
"908 462 LINE SMOOTH",
"894 478 OFFCURVE",
"879 484 OFFCURVE",
"859 484 CURVE SMOOTH",
"592 484 LINE",
"592 407 LINE",
"893 407 LINE",
"893 17 LINE SMOOTH",
"893 -76 OFFCURVE",
"847 -123 OFFCURVE",
"754 -123 CURVE SMOOTH",
"553 -123 LINE",
"553 -200 LINE"
);
},
{
closed = 1;
nodes = (
"155 0 LINE",
"155 161 LINE",
"445 161 LINE",
"445 0 LINE",
"524 0 LINE",
"524 175 LINE",
"365 633 LINE",
"235 633 LINE",
"76 175 LINE",
"76 0 LINE"
);
},
{
closed = 1;
nodes = (
"287 556 LINE",
"313 556 LINE",
"425 234 LINE",
"175 234 LINE"
);
},
{
closed = 1;
nodes = (
"1008 559 LINE",
"1008 665 LINE",
"914 665 LINE",
"914 559 LINE"
);
}
);
width = 1200;
}
);
},
{
glyphname = a_j.liga;
lastChange = "2025-01-06 22:41:58 +0000";
layers = (
{
background = {
paths = (
{
closed = 1;
nodes = (
"743 -200 LINE SMOOTH",
"910 -200 OFFCURVE",
"1009 -126 OFFCURVE",
"1009 30 CURVE SMOOTH",
"1009 391 LINE",
"1175 391 LINE",
"1175 512 LINE",
"1037 512 LINE",
"988 451 LINE",
"957 451 LINE",
"901 512 LINE",
"586 512 LINE",
"586 391 LINE",
"880 391 LINE",
"880 52 LINE SMOOTH",
"880 -38 OFFCURVE",
"839 -79 OFFCURVE",
"749 -79 CURVE SMOOTH",
"604 -79 LINE",
"604 -200 LINE"
);
},
{
closed = 1;
nodes = (
"304 0 LINE",
"359 61 LINE",
"390 61 LINE",
"440 0 LINE",
"595 0 LINE",
"595 121 LINE",
"501 121 LINE",
"501 414 LINE SMOOTH",
"501 479 OFFCURVE",
"468 512 OFFCURVE",
"403 512 CURVE SMOOTH",
"58 512 LINE",
"58 391 LINE",
"372 391 LINE",
"372 121 LINE",
"162 121 LINE",
"162 198 LINE",
"388 198 LINE",
"388 310 LINE",
"127 310 LINE SMOOTH",
"64 310 OFFCURVE",
"32 280 OFFCURVE",
"32 219 CURVE SMOOTH",
"32 98 LINE SMOOTH",
"32 33 OFFCURVE",
"65 0 OFFCURVE",
"132 0 CURVE SMOOTH"
);
},
{
closed = 1;
nodes = (
"1064 570 LINE",
"1064 693 LINE",
"884 693 LINE",
"884 570 LINE"
);
}
);
};
layerId = "1F2775BA-6CBC-4576-9106-FF363AAD7539";
paths = (
{
closed = 1;
nodes = (
"743 -200 LINE SMOOTH",
"910 -200 OFFCURVE",
"1009 -126 OFFCURVE",
"1009 30 CURVE SMOOTH",
"1009 391 LINE",
"1174 391 LINE",
"1174 512 LINE",
"1082 512 LINE SMOOTH",
"1051 512 OFFCURVE",
"1029 501 OFFCURVE",
"1009 477 CURVE SMOOTH",
"988 451 LINE",
"957 451 LINE",
"931 480 LINE SMOOTH",
"910 503 OFFCURVE",
"888 512 OFFCURVE",
"857 512 CURVE SMOOTH",
"586 512 LINE",
"586 391 LINE",
"880 391 LINE",
"880 52 LINE SMOOTH",
"880 -38 OFFCURVE",
"839 -79 OFFCURVE",
"749 -79 CURVE SMOOTH",
"605 -79 LINE",
"605 -200 LINE"
);
},
{
closed = 1;
nodes = (
"259 0 LINE SMOOTH",
"290 0 OFFCURVE",
"313 9 OFFCURVE",
"334 33 CURVE SMOOTH",
"359 61 LINE",
"390 61 LINE",
"411 35 LINE SMOOTH",
"431 10 OFFCURVE",
"454 0 OFFCURVE",
"486 0 CURVE SMOOTH",
"597 0 LINE",
"597 121 LINE",
"501 121 LINE",
"501 352 LINE SMOOTH",
"501 456 OFFCURVE",
"445 512 OFFCURVE",
"341 512 CURVE SMOOTH",
"58 512 LINE",
"58 391 LINE",
"372 391 LINE",
"372 121 LINE",
"162 121 LINE",
"162 198 LINE",
"388 198 LINE",
"388 310 LINE",
"182 310 LINE SMOOTH",
"85 310 OFFCURVE",
"32 257 OFFCURVE",
"32 160 CURVE SMOOTH",
"32 150 LINE SMOOTH",
"32 53 OFFCURVE",
"85 0 OFFCURVE",
"182 0 CURVE SMOOTH"
);
},
{
closed = 1;
nodes = (
"1063 569 LINE",
"1063 693 LINE",
"883 693 LINE",
"883 569 LINE"
);
}
);
width = 1200;
},
{
layerId = "07E2A1A4-9842-4AD3-8988-1CD562B06979";
paths = (
{
closed = 1;
nodes = (
"768 -200 LINE SMOOTH",
"913 -200 OFFCURVE",
"986 -128 OFFCURVE",
"986 17 CURVE SMOOTH",
"986 407 LINE",
"1151 407 LINE",
"1151 484 LINE",
"1041 484 LINE SMOOTH",
"1021 484 OFFCURVE",
"1006 478 OFFCURVE",
"992 464 CURVE SMOOTH",
"968 440 LINE",
"942 440 LINE",
"922 462 LINE SMOOTH",
"908 478 OFFCURVE",
"893 484 OFFCURVE",
"873 484 CURVE SMOOTH",
"613 484 LINE",
"613 407 LINE",
"907 407 LINE",
"907 17 LINE SMOOTH",
"907 -76 OFFCURVE",
"861 -123 OFFCURVE",
"768 -123 CURVE SMOOTH",
"564 -123 LINE",
"564 -200 LINE"
);
},
{
closed = 1;
nodes = (
"294 0 LINE SMOOTH",
"350 0 OFFCURVE",
"374 10 OFFCURVE",
"396 35 CURVE SMOOTH",
"404 45 LINE",
"431 45 LINE",
"444 31 LINE SMOOTH",
"466 9 OFFCURVE",
"487 0 OFFCURVE",
"518 0 CURVE SMOOTH",
"588 0 LINE",
"588 77 LINE",
"483 77 LINE",
"483 343 LINE SMOOTH",
"483 435 OFFCURVE",
"434 484 OFFCURVE",
"343 484 CURVE SMOOTH",
"90 484 LINE",
"90 407 LINE",
"404 407 LINE",
"404 77 LINE",
"134 77 LINE",
"134 203 LINE",
"420 203 LINE",
"420 280 LINE",
"186 280 LINE SMOOTH",
"102 280 OFFCURVE",
"56 233 OFFCURVE",
"56 149 CURVE SMOOTH",
"56 131 LINE SMOOTH",
"56 46 OFFCURVE",
"102 0 OFFCURVE",
"186 0 CURVE SMOOTH"
);
},
{
closed = 1;
nodes = (
"1022 559 LINE",
"1022 662 LINE",
"928 662 LINE",
"928 559 LINE"
);
}
);
width = 1200;
}
);
},
{
glyphname = a_t.liga;
lastChange = "2025-01-06 22:41:58 +0000";
layers = (
{
background = {
paths = (
{
closed = 1;
nodes = (
"1150 0 LINE",
"1150 121 LINE",
"905 121 LINE",
"905 392 LINE",
"1138 392 LINE",
"1138 512 LINE",
"905 512 LINE",
"905 654 LINE",
"776 654 LINE",
"776 512 LINE",
"593 512 LINE",
"593 392 LINE",
"776 392 LINE",
"776 98 LINE SMOOTH",
"776 33 OFFCURVE",
"809 0 OFFCURVE",
"876 0 CURVE SMOOTH"
);
},
{
closed = 1;
nodes = (
"318 0 LINE",
"373 61 LINE",
"404 61 LINE",
"454 0 LINE",
"618 0 LINE",
"618 121 LINE",
"515 121 LINE",
"515 414 LINE SMOOTH",
"515 479 OFFCURVE",
"482 512 OFFCURVE",
"417 512 CURVE SMOOTH",
"68 512 LINE",
"68 391 LINE",
"386 391 LINE",
"386 121 LINE",
"172 121 LINE",
"172 198 LINE",
"402 198 LINE",
"402 310 LINE",
"137 310 LINE SMOOTH",
"74 310 OFFCURVE",
"42 280 OFFCURVE",
"42 219 CURVE SMOOTH",
"42 98 LINE SMOOTH",
"42 33 OFFCURVE",
"75 0 OFFCURVE",
"142 0 CURVE SMOOTH"
);
}
);
};
layerId = "1F2775BA-6CBC-4576-9106-FF363AAD7539";
paths = (
{
closed = 1;
nodes = (
"1149 0 LINE",
"1149 121 LINE",
"905 121 LINE",
"905 392 LINE",
"1137 392 LINE",
"1137 512 LINE",
"905 512 LINE",
"905 653 LINE",
"775 653 LINE",
"775 512 LINE",
"594 512 LINE",
"594 392 LINE",
"775 392 LINE",
"775 120 LINE SMOOTH",
"775 42 OFFCURVE",
"817 0 OFFCURVE",
"895 0 CURVE SMOOTH"
);
},
{
closed = 1;
nodes = (
"272 0 LINE SMOOTH",
"303 0 OFFCURVE",
"326 9 OFFCURVE",
"347 33 CURVE SMOOTH",
"372 61 LINE",
"403 61 LINE",
"424 35 LINE SMOOTH",
"444 10 OFFCURVE",
"467 0 OFFCURVE",
"499 0 CURVE SMOOTH",
"617 0 LINE",
"617 121 LINE",
"514 121 LINE",
"514 352 LINE SMOOTH",
"514 456 OFFCURVE",
"458 512 OFFCURVE",
"354 512 CURVE SMOOTH",
"68 512 LINE",
"68 391 LINE",
"385 391 LINE",
"385 121 LINE",
"172 121 LINE",
"172 198 LINE",
"401 198 LINE",
"401 310 LINE",
"192 310 LINE SMOOTH",
"95 310 OFFCURVE",
"42 257 OFFCURVE",
"42 160 CURVE SMOOTH",
"42 150 LINE SMOOTH",
"42 53 OFFCURVE",
"95 0 OFFCURVE",
"192 0 CURVE SMOOTH"
);
}
);
width = 1200;
},
{
layerId = "07E2A1A4-9842-4AD3-8988-1CD562B06979";
paths = (
{
closed = 1;
nodes = (
"1151 0 LINE",
"1151 77 LINE",
"882 77 LINE",
"882 407 LINE",
"1134 407 LINE",
"1134 484 LINE",
"882 484 LINE",
"882 634 LINE",
"803 634 LINE",
"803 484 LINE",
"616 484 LINE",
"616 407 LINE",
"803 407 LINE",
"803 111 LINE SMOOTH",
"803 39 OFFCURVE",
"842 0 OFFCURVE",
"913 0 CURVE SMOOTH"
);
},
{
closed = 1;
nodes = (
"308 0 LINE SMOOTH",
"364 0 OFFCURVE",
"388 10 OFFCURVE",
"410 35 CURVE SMOOTH",
"418 45 LINE",
"445 45 LINE",
"458 31 LINE SMOOTH",
"480 9 OFFCURVE",
"501 0 OFFCURVE",
"532 0 CURVE SMOOTH",
"592 0 LINE",
"592 77 LINE",
"497 77 LINE",
"497 343 LINE SMOOTH",
"497 435 OFFCURVE",
"448 484 OFFCURVE",
"357 484 CURVE SMOOTH",
"90 484 LINE",
"90 407 LINE",
"418 407 LINE",
"418 77 LINE",
"134 77 LINE",
"134 203 LINE",
"434 203 LINE",
"434 280 LINE",
"186 280 LINE SMOOTH",
"102 280 OFFCURVE",
"56 233 OFFCURVE",
"56 149 CURVE SMOOTH",
"56 131 LINE SMOOTH",
"56 46 OFFCURVE",
"102 0 OFFCURVE",
"186 0 CURVE SMOOTH"
);
}
);
width = 1200;
}
);
},
{
glyphname = b_j.liga;
lastChange = "2025-01-06 23:26:22 +0000";
layers = (
{
background = {
paths = (
{
closed = 1;
nodes = (
"736 -200 LINE SMOOTH",
"903 -200 OFFCURVE",
"1002 -126 OFFCURVE",
"1002 30 CURVE SMOOTH",
"1002 391 LINE",
"1167 391 LINE",
"1167 512 LINE",
"1030 512 LINE",
"981 451 LINE",
"950 451 LINE",
"894 512 LINE",
"594 512 LINE",
"594 391 LINE",
"873 391 LINE",
"873 52 LINE SMOOTH",
"873 -38 OFFCURVE",
"832 -79 OFFCURVE",
"742 -79 CURVE SMOOTH",
"587 -79 LINE",
"587 -200 LINE"
);
},
{
closed = 1;
nodes = (
"1056 569 LINE",
"1056 693 LINE",
"876 693 LINE",
"876 569 LINE"
);
},
{
closed = 1;
nodes = (
"379 0 LINE SMOOTH",
"483 0 OFFCURVE",
"539 56 OFFCURVE",
"539 160 CURVE SMOOTH",
"539 352 LINE SMOOTH",
"539 456 OFFCURVE",
"483 512 OFFCURVE",
"379 512 CURVE SMOOTH",
"332 512 LINE SMOOTH",
"286 512 OFFCURVE",
"261 502 OFFCURVE",
"226 463 CURVE SMOOTH",
"206 441 LINE",
"206 693 LINE",
"77 693 LINE",
"77 0 LINE"
);
},
{
closed = 1;
nodes = (
"206 391 LINE",
"409 391 LINE",
"409 121 LINE",
"206 121 LINE"
);
}
);
};
layerId = "1F2775BA-6CBC-4576-9106-FF363AAD7539";
paths = (
{
closed = 1;
nodes = (
"736 -200 LINE SMOOTH",
"903 -200 OFFCURVE",
"1002 -126 OFFCURVE",
"1002 30 CURVE SMOOTH",
"1002 391 LINE",
"1167 391 LINE",
"1167 512 LINE",
"1075 512 LINE SMOOTH",
"1044 512 OFFCURVE",
"1022 501 OFFCURVE",
"1002 477 CURVE SMOOTH",
"981 451 LINE",
"950 451 LINE",
"924 480 LINE SMOOTH",
"903 503 OFFCURVE",
"881 512 OFFCURVE",
"850 512 CURVE SMOOTH",
"596 512 LINE",
"596 391 LINE",
"873 391 LINE",
"873 52 LINE SMOOTH",
"873 -38 OFFCURVE",
"832 -79 OFFCURVE",
"742 -79 CURVE SMOOTH",
"588 -79 LINE",
"588 -200 LINE"
);
},
{
closed = 1;
nodes = (
"206 391 LINE",
"409 391 LINE",
"409 121 LINE",
"206 121 LINE"
);
},
{
closed = 1;
nodes = (
"379 0 LINE SMOOTH",
"483 0 OFFCURVE",
"539 56 OFFCURVE",
"539 160 CURVE SMOOTH",
"539 352 LINE SMOOTH",
"539 456 OFFCURVE",
"483 512 OFFCURVE",
"379 512 CURVE SMOOTH",
"332 512 LINE SMOOTH",
"286 512 OFFCURVE",
"261 502 OFFCURVE",
"226 463 CURVE SMOOTH",
"206 441 LINE",
"206 693 LINE",
"77 693 LINE",
"77 0 LINE"
);
},
{
closed = 1;
nodes = (
"1056 569 LINE",
"1056 693 LINE",
"876 693 LINE",
"876 569 LINE"
);
}
);
width = 1200;
},
{
layerId = "07E2A1A4-9842-4AD3-8988-1CD562B06979";
paths = (
{
closed = 1;
nodes = (
"762 -200 LINE SMOOTH",
"907 -200 OFFCURVE",
"980 -128 OFFCURVE",
"980 17 CURVE SMOOTH",
"980 407 LINE",
"1145 407 LINE",
"1145 484 LINE",
"1035 484 LINE SMOOTH",
"1015 484 OFFCURVE",
"1000 478 OFFCURVE",
"986 464 CURVE SMOOTH",
"962 440 LINE",
"936 440 LINE",
"916 462 LINE SMOOTH",
"902 478 OFFCURVE",
"887 484 OFFCURVE",
"867 484 CURVE SMOOTH",
"592 484 LINE",
"592 407 LINE",
"901 407 LINE",
"901 17 LINE SMOOTH",
"901 -76 OFFCURVE",
"855 -123 OFFCURVE",
"762 -123 CURVE SMOOTH",
"573 -123 LINE",
"573 -200 LINE"
);
},
{
closed = 1;
nodes = (
"177 407 LINE",
"436 407 LINE",
"436 77 LINE",
"177 77 LINE"
);
},
{
closed = 1;
nodes = (
"374 0 LINE SMOOTH",
"465 0 OFFCURVE",
"514 49 OFFCURVE",
"514 141 CURVE SMOOTH",
"514 343 LINE SMOOTH",
"514 435 OFFCURVE",
"465 484 OFFCURVE",
"374 484 CURVE SMOOTH",
"271 484 LINE SMOOTH",
"241 484 OFFCURVE",
"220 475 OFFCURVE",
"197 454 CURVE SMOOTH",
"177 436 LINE",
"177 693 LINE",
"98 693 LINE",
"98 0 LINE"
);
},
{
closed = 1;
nodes = (
"1016 559 LINE",
"1016 665 LINE",
"922 665 LINE",
"922 559 LINE"
);
}
);
width = 1200;
}
);
},
{
glyphname = b_t.liga;
lastChange = "2025-01-07 00:37:13 +0000";
layers = (
{
layerId = "07E2A1A4-9842-4AD3-8988-1CD562B06979";
paths = (
{
closed = 1;
nodes = (
"384 0 LINE SMOOTH",
"475 0 OFFCURVE",
"524 49 OFFCURVE",
"524 141 CURVE SMOOTH",
"524 343 LINE SMOOTH",
"524 435 OFFCURVE",
"475 484 OFFCURVE",
"384 484 CURVE SMOOTH",
"271 484 LINE SMOOTH",
"241 484 OFFCURVE",
"220 475 OFFCURVE",
"197 454 CURVE SMOOTH",
"177 436 LINE",
"177 693 LINE",
"98 693 LINE",
"98 0 LINE"
);
},
{
closed = 1;
nodes = (
"177 407 LINE",
"446 407 LINE",
"446 77 LINE",
"177 77 LINE"
);
},
{
closed = 1;
nodes = (
"1154 0 LINE",
"1154 77 LINE",
"896 77 LINE",
"896 407 LINE",
"1137 407 LINE",
"1137 484 LINE",
"896 484 LINE",
"896 634 LINE",
"817 634 LINE",
"817 484 LINE",
"619 484 LINE",
"619 407 LINE",
"817 407 LINE",
"817 111 LINE SMOOTH",
"817 39 OFFCURVE",
"856 0 OFFCURVE",
"927 0 CURVE SMOOTH"
);
}
);
width = 1200;
},
{
layerId = "1F2775BA-6CBC-4576-9106-FF363AAD7539";
paths = (
{
closed = 1;
nodes = (
"389 0 LINE SMOOTH",
"493 0 OFFCURVE",
"549 56 OFFCURVE",
"549 160 CURVE SMOOTH",
"549 352 LINE SMOOTH",
"549 456 OFFCURVE",
"493 512 OFFCURVE",
"389 512 CURVE SMOOTH",
"332 512 LINE SMOOTH",
"286 512 OFFCURVE",
"261 502 OFFCURVE",
"226 463 CURVE SMOOTH",
"206 441 LINE",
"206 693 LINE",
"77 693 LINE",
"77 0 LINE"
);
},
{
closed = 1;
nodes = (
"206 391 LINE",
"419 391 LINE",
"419 121 LINE",
"206 121 LINE"
);
},
{
closed = 1;
nodes = (
"1168 0 LINE",
"1168 121 LINE",
"938 121 LINE",
"938 392 LINE",
"1165 392 LINE",
"1165 512 LINE",
"938 512 LINE",
"938 653 LINE",
"808 653 LINE",
"808 512 LINE",
"627 512 LINE",
"627 392 LINE",
"808 392 LINE",
"808 120 LINE SMOOTH",
"808 42 OFFCURVE",
"850 0 OFFCURVE",
"928 0 CURVE SMOOTH"
);
}
);
width = 1200;
}
);
leftMetricsKey = b;
rightMetricsKey = t;
},
{
glyphname = c_e.liga;
lastChange = "2025-01-06 22:41:58 +0000";
layers = (
{
background = {
paths = (
{
closed = 1;
nodes = (
"533 0 LINE",
"533 121 LINE",
"210 121 LINE",
"210 391 LINE",
"511 391 LINE",
"511 512 LINE",
"180 512 LINE SMOOTH",
"113 512 OFFCURVE",
"80 479 OFFCURVE",
"80 413 CURVE SMOOTH",
"80 98 LINE SMOOTH",
"80 33 OFFCURVE",
"113 0 OFFCURVE",
"180 0 CURVE SMOOTH"
);
},
{
closed = 1;
nodes = (
"1150 0 LINE",
"1150 121 LINE",
"774 121 LINE",
"774 391 LINE",
"1009 391 LINE",
"1009 314 LINE",
"719 314 LINE",
"719 202 LINE",
"1047 202 LINE SMOOTH",
"1109 202 OFFCURVE",
"1140 232 OFFCURVE",
"1140 293 CURVE SMOOTH",
"1140 413 LINE SMOOTH",
"1140 479 OFFCURVE",
"1107 512 OFFCURVE",
"1040 512 CURVE SMOOTH",
"742 512 LINE SMOOTH",
"677 512 OFFCURVE",
"644 479 OFFCURVE",
"644 414 CURVE SMOOTH",
"644 97 LINE SMOOTH",
"644 32 OFFCURVE",
"677 0 OFFCURVE",
"744 0 CURVE SMOOTH"
);
}
);
};
layerId = "1F2775BA-6CBC-4576-9106-FF363AAD7539";
paths = (
{
closed = 1;
nodes = (
"543 0 LINE",
"543 121 LINE",
"210 121 LINE",
"210 391 LINE",
"521 391 LINE",
"521 512 LINE",
"240 512 LINE SMOOTH",
"136 512 OFFCURVE",
"80 456 OFFCURVE",
"80 352 CURVE SMOOTH",
"80 160 LINE SMOOTH",
"80 56 OFFCURVE",
"136 0 OFFCURVE",
"240 0 CURVE SMOOTH"
);
},
{
closed = 1;
nodes = (
"1150 0 LINE",
"1150 121 LINE",
"782 121 LINE",
"782 391 LINE",
"1009 391 LINE",
"1009 314 LINE",
"766 314 LINE",
"766 202 LINE",
"990 202 LINE SMOOTH",
"1087 202 OFFCURVE",
"1140 255 OFFCURVE",
"1140 352 CURVE SMOOTH",
"1140 362 LINE SMOOTH",
"1140 459 OFFCURVE",
"1087 512 OFFCURVE",
"990 512 CURVE SMOOTH",
"812 512 LINE SMOOTH",
"708 512 OFFCURVE",
"652 456 OFFCURVE",
"652 352 CURVE SMOOTH",
"652 160 LINE SMOOTH",
"652 56 OFFCURVE",
"708 0 OFFCURVE",
"812 0 CURVE SMOOTH"
);
}
);
width = 1200;
},
{
layerId = "07E2A1A4-9842-4AD3-8988-1CD562B06979";
paths = (
{
closed = 1;
nodes = (
"524 0 LINE",
"524 77 LINE",
"189 77 LINE",
"189 407 LINE",
"505 407 LINE",
"505 484 LINE",
"250 484 LINE SMOOTH",
"159 484 OFFCURVE",
"110 435 OFFCURVE",
"110 343 CURVE SMOOTH",
"110 141 LINE SMOOTH",
"110 49 OFFCURVE",
"159 0 OFFCURVE",
"250 0 CURVE SMOOTH"
);
},
{
closed = 1;
nodes = (
"1135 0 LINE",
"1135 77 LINE",
"747 77 LINE",
"747 407 LINE",
"1049 407 LINE",
"1049 284 LINE",
"731 284 LINE",
"731 207 LINE",
"998 207 LINE SMOOTH",
"1082 207 OFFCURVE",
"1128 253 OFFCURVE",
"1128 338 CURVE SMOOTH",
"1128 353 LINE SMOOTH",
"1128 438 OFFCURVE",
"1082 484 OFFCURVE",
"998 484 CURVE SMOOTH",
"808 484 LINE SMOOTH",
"717 484 OFFCURVE",
"668 435 OFFCURVE",
"668 343 CURVE SMOOTH",
"668 141 LINE SMOOTH",
"668 49 OFFCURVE",
"717 0 OFFCURVE",
"808 0 CURVE SMOOTH"
);
}
);
width = 1200;
}
);
},
{
glyphname = c_t.liga;
lastChange = "2025-01-06 22:41:58 +0000";
layers = (
{
background = {
paths = (
{
closed = 1;
nodes = (
"1159 0 LINE",
"1159 121 LINE",
"924 121 LINE",
"924 392 LINE",
"1159 392 LINE",
"1159 512 LINE",
"924 512 LINE",
"924 653 LINE",
"794 653 LINE",
"794 512 LINE",
"604 512 LINE",
"604 392 LINE",
"794 392 LINE",
"794 98 LINE SMOOTH",
"794 33 OFFCURVE",
"827 0 OFFCURVE",
"894 0 CURVE SMOOTH"
);
},
{
closed = 1;
nodes = (
"536 0 LINE",
"536 121 LINE",
"210 121 LINE",
"210 391 LINE",
"514 391 LINE",
"514 512 LINE",
"180 512 LINE SMOOTH",
"113 512 OFFCURVE",
"80 479 OFFCURVE",
"80 413 CURVE SMOOTH",
"80 98 LINE SMOOTH",
"80 33 OFFCURVE",
"113 0 OFFCURVE",
"180 0 CURVE SMOOTH"
);
}
);
};
layerId = "1F2775BA-6CBC-4576-9106-FF363AAD7539";
paths = (
{
closed = 1;
nodes = (
"1159 0 LINE",
"1159 121 LINE",
"924 121 LINE",
"924 392 LINE",
"1159 392 LINE",
"1159 512 LINE",
"924 512 LINE",
"924 653 LINE",
"794 653 LINE",
"794 512 LINE",
"604 512 LINE",
"604 392 LINE",
"794 392 LINE",
"794 120 LINE SMOOTH",
"794 42 OFFCURVE",
"836 0 OFFCURVE",
"914 0 CURVE SMOOTH"
);
},
{
closed = 1;
nodes = (
"535 0 LINE",
"535 121 LINE",
"210 121 LINE",
"210 391 LINE",
"513 391 LINE",
"513 512 LINE",
"240 512 LINE SMOOTH",
"136 512 OFFCURVE",
"80 456 OFFCURVE",
"80 352 CURVE SMOOTH",
"80 160 LINE SMOOTH",
"80 56 OFFCURVE",
"136 0 OFFCURVE",
"240 0 CURVE SMOOTH"
);
}
);
width = 1200;
},
{
layerId = "07E2A1A4-9842-4AD3-8988-1CD562B06979";
paths = (
{
closed = 1;
nodes = (
"1153 0 LINE",
"1153 77 LINE",
"893 77 LINE",
"893 407 LINE",
"1136 407 LINE",
"1136 484 LINE",
"893 484 LINE",
"893 634 LINE",
"814 634 LINE",
"814 484 LINE",
"626 484 LINE",
"626 407 LINE",
"814 407 LINE",
"814 111 LINE SMOOTH",
"814 39 OFFCURVE",
"853 0 OFFCURVE",
"924 0 CURVE SMOOTH"
);
},
{
closed = 1;
nodes = (
"535 0 LINE",
"535 77 LINE",
"189 77 LINE",
"189 407 LINE",
"516 407 LINE",
"516 484 LINE",
"250 484 LINE SMOOTH",
"159 484 OFFCURVE",
"110 435 OFFCURVE",
"110 343 CURVE SMOOTH",
"110 141 LINE SMOOTH",
"110 49 OFFCURVE",
"159 0 OFFCURVE",
"250 0 CURVE SMOOTH"
);
}
);
width = 1200;
}
);
leftMetricsKey = c;
},
{
glyphname = e_t.liga;
lastChange = "2025-01-07 00:35:29 +0000";
layers = (
{
layerId = "07E2A1A4-9842-4AD3-8988-1CD562B06979";
paths = (
{
closed = 1;
nodes = (
"555 0 LINE",
"555 77 LINE",
"177 77 LINE",
"177 407 LINE",
"469 407 LINE",
"469 284 LINE",
"161 284 LINE",
"161 207 LINE",
"418 207 LINE SMOOTH",
"502 207 OFFCURVE",
"548 253 OFFCURVE",
"548 338 CURVE SMOOTH",
"548 353 LINE SMOOTH",
"548 438 OFFCURVE",
"502 484 OFFCURVE",
"418 484 CURVE SMOOTH",
"238 484 LINE SMOOTH",
"147 484 OFFCURVE",
"98 435 OFFCURVE",
"98 343 CURVE SMOOTH",
"98 141 LINE SMOOTH",
"98 49 OFFCURVE",
"147 0 OFFCURVE",
"238 0 CURVE SMOOTH"
);
},
{
closed = 1;
nodes = (
"1154 0 LINE",
"1154 77 LINE",
"906 77 LINE",
"906 407 LINE",
"1137 407 LINE",
"1137 484 LINE",
"906 484 LINE",
"906 634 LINE",
"827 634 LINE",
"827 484 LINE",
"639 484 LINE",
"639 407 LINE",
"827 407 LINE",
"827 111 LINE SMOOTH",
"827 39 OFFCURVE",
"866 0 OFFCURVE",
"937 0 CURVE SMOOTH"
);
}
);
width = 1200;
},
{
layerId = "1F2775BA-6CBC-4576-9106-FF363AAD7539";
paths = (
{
closed = 1;
nodes = (
"570 0 LINE",
"570 121 LINE",
"202 121 LINE",
"202 391 LINE",
"429 391 LINE",
"429 314 LINE",
"186 314 LINE",
"186 202 LINE",
"410 202 LINE SMOOTH",
"507 202 OFFCURVE",
"560 255 OFFCURVE",
"560 352 CURVE SMOOTH",
"560 362 LINE SMOOTH",
"560 459 OFFCURVE",
"507 512 OFFCURVE",
"410 512 CURVE SMOOTH",
"232 512 LINE SMOOTH",
"128 512 OFFCURVE",
"72 456 OFFCURVE",
"72 352 CURVE SMOOTH",
"72 160 LINE SMOOTH",
"72 56 OFFCURVE",
"128 0 OFFCURVE",
"232 0 CURVE SMOOTH"
);
},
{
closed = 1;
nodes = (
"1168 0 LINE",
"1168 121 LINE",
"938 121 LINE",
"938 392 LINE",
"1165 392 LINE",
"1165 512 LINE",
"938 512 LINE",
"938 653 LINE",
"808 653 LINE",
"808 512 LINE",
"627 512 LINE",
"627 392 LINE",
"808 392 LINE",
"808 120 LINE SMOOTH",
"808 42 OFFCURVE",
"850 0 OFFCURVE",
"928 0 CURVE SMOOTH"
);
}
);
width = 1200;
}
);
leftMetricsKey = e;
rightMetricsKey = t;
},
{
glyphname = f_i_t.liga;
lastChange = "2025-01-07 00:48:18 +0000";
layers = (
{
layerId = "07E2A1A4-9842-4AD3-8988-1CD562B06979";
paths = (
{
closed = 1;
nodes = (
"560 0 LINE",
"560 77 LINE",
"306 77 LINE",
"306 407 LINE",
"532 407 LINE",
"532 484 LINE",
"306 484 LINE",
"306 616 LINE",
"560 616 LINE",
"560 693 LINE",
"357 693 LINE SMOOTH",
"273 693 OFFCURVE",
"227 647 OFFCURVE",
"227 562 CURVE SMOOTH",
"227 484 LINE",
"59 484 LINE",
"59 407 LINE",
"227 407 LINE",
"227 77 LINE",
"49 77 LINE",
"49 0 LINE"
);
},
{
closed = 1;
nodes = (
"1227 0 LINE",
"1227 77 LINE",
"1019 77 LINE",
"1019 354 LINE SMOOTH",
"1019 438 OFFCURVE",
"973 484 OFFCURVE",
"889 484 CURVE SMOOTH",
"695 484 LINE",
"695 407 LINE",
"940 407 LINE",
"940 77 LINE",
"668 77 LINE",
"668 0 LINE"
);
},
{
closed = 1;
nodes = (
"1019 559 LINE",
"1019 665 LINE",
"928 665 LINE",
"928 559 LINE"
);
},
{
closed = 1;
nodes = (
"1754 0 LINE",
"1754 77 LINE",
"1483 77 LINE",
"1483 407 LINE",
"1737 407 LINE",
"1737 484 LINE",
"1483 484 LINE",
"1483 634 LINE",
"1404 634 LINE",
"1404 484 LINE",
"1207 484 LINE",
"1207 407 LINE",
"1404 407 LINE",
"1404 111 LINE SMOOTH",
"1404 39 OFFCURVE",
"1443 0 OFFCURVE",
"1514 0 CURVE SMOOTH"
);
}
);
width = 1800;
},
{
layerId = "1F2775BA-6CBC-4576-9106-FF363AAD7539";
paths = (
{
closed = 1;
nodes = (
"582 0 LINE",
"582 118 LINE",
"328 118 LINE",
"328 392 LINE",
"570 392 LINE",
"570 512 LINE",
"328 512 LINE",
"328 578 LINE",
"582 578 LINE",
"582 693 LINE",
"349 693 LINE SMOOTH",
"252 693 OFFCURVE",
"199 640 OFFCURVE",
"199 543 CURVE SMOOTH",
"199 512 LINE",
"37 512 LINE",
"37 392 LINE",
"199 392 LINE",
"199 118 LINE",
"27 118 LINE",
"27 0 LINE"
);
},
{
closed = 1;
nodes = (
"1255 0 LINE",
"1255 121 LINE",
"1052 121 LINE",
"1052 372 LINE SMOOTH",
"1052 463 OFFCURVE",
"1003 512 OFFCURVE",
"912 512 CURVE SMOOTH",
"686 512 LINE",
"686 391 LINE",
"922 391 LINE",
"922 121 LINE",
"674 121 LINE",
"674 0 LINE"
);
},
{
closed = 1;
nodes = (
"1052 569 LINE",
"1052 693 LINE",
"893 693 LINE",
"893 569 LINE"
);
},
{
closed = 1;
nodes = (
"1768 0 LINE",
"1768 121 LINE",
"1514 121 LINE",
"1514 392 LINE",
"1765 392 LINE",
"1765 512 LINE",
"1514 512 LINE",
"1514 653 LINE",
"1384 653 LINE",
"1384 512 LINE",
"1183 512 LINE",
"1183 392 LINE",
"1384 392 LINE",
"1384 120 LINE SMOOTH",
"1384 42 OFFCURVE",
"1426 0 OFFCURVE",
"1504 0 CURVE SMOOTH"
);
}
);
width = 1800;
}
);
},
{
glyphname = g_e.liga;
lastChange = "2025-01-07 00:52:56 +0000";
layers = (
{
layerId = "07E2A1A4-9842-4AD3-8988-1CD562B06979";
paths = (
{
closed = 1;
nodes = (
"1135 0 LINE",
"1135 77 LINE",
"757 77 LINE",
"757 407 LINE",
"1049 407 LINE",
"1049 284 LINE",
"741 284 LINE",
"741 207 LINE",
"998 207 LINE SMOOTH",
"1082 207 OFFCURVE",
"1128 253 OFFCURVE",
"1128 338 CURVE SMOOTH",
"1128 353 LINE SMOOTH",
"1128 438 OFFCURVE",
"1082 484 OFFCURVE",
"998 484 CURVE SMOOTH",
"818 484 LINE SMOOTH",
"727 484 OFFCURVE",
"678 435 OFFCURVE",
"678 343 CURVE SMOOTH",
"678 141 LINE SMOOTH",
"678 49 OFFCURVE",
"727 0 OFFCURVE",
"818 0 CURVE SMOOTH"
);
},
{
closed = 1;
nodes = (
"429 -200 LINE SMOOTH",
"513 -200 OFFCURVE",
"559 -154 OFFCURVE",
"559 -69 CURVE SMOOTH",
"559 -50 LINE SMOOTH",
"559 35 OFFCURVE",
"513 81 OFFCURVE",
"429 81 CURVE SMOOTH",
"335 81 LINE",
"335 205 LINE",
"256 205 LINE",
"256 4 LINE",
"480 4 LINE",
"480 -123 LINE",
"130 -123 LINE",
"130 3 LINE",
"51 3 LINE",
"51 -69 LINE SMOOTH",
"51 -154 OFFCURVE",
"97 -200 OFFCURVE",
"181 -200 CURVE SMOOTH"
);
},
{
closed = 1;
nodes = (
"182 408 LINE",
"411 408 LINE",
"411 266 LINE",
"182 266 LINE"
);
},
{
closed = 1;
nodes = (
"359 188 LINE SMOOTH",
"443 188 OFFCURVE",
"489 235 OFFCURVE",
"489 320 CURVE SMOOTH",
"489 398 LINE",
"582 398 LINE",
"582 484 LINE",
"561 484 LINE SMOOTH",
"530 484 OFFCURVE",
"509 475 OFFCURVE",
"488 451 CURVE SMOOTH",
"478 440 LINE",
"457 440 LINE",
"445 452 LINE SMOOTH",
"423 474 OFFCURVE",
"402 484 OFFCURVE",
"371 484 CURVE SMOOTH",
"234 484 LINE SMOOTH",
"150 484 OFFCURVE",
"104 438 OFFCURVE",
"104 353 CURVE SMOOTH",
"104 320 LINE SMOOTH",
"104 235 OFFCURVE",
"150 188 OFFCURVE",
"234 188 CURVE SMOOTH"
);
}
);
width = 1200;
},
{
layerId = "1F2775BA-6CBC-4576-9106-FF363AAD7539";
paths = (
{
closed = 1;
nodes = (
"1150 0 LINE",
"1150 121 LINE",
"782 121 LINE",
"782 391 LINE",
"1009 391 LINE",
"1009 314 LINE",
"766 314 LINE",
"766 202 LINE",
"990 202 LINE SMOOTH",
"1087 202 OFFCURVE",
"1140 255 OFFCURVE",
"1140 352 CURVE SMOOTH",
"1140 362 LINE SMOOTH",
"1140 459 OFFCURVE",
"1087 512 OFFCURVE",
"990 512 CURVE SMOOTH",
"812 512 LINE SMOOTH",
"708 512 OFFCURVE",
"652 456 OFFCURVE",
"652 352 CURVE SMOOTH",
"652 160 LINE SMOOTH",
"652 56 OFFCURVE",
"708 0 OFFCURVE",
"812 0 CURVE SMOOTH"
);
},
{
closed = 1;
nodes = (
"435 -200 LINE SMOOTH",
"532 -200 OFFCURVE",
"585 -147 OFFCURVE",
"585 -50 CURVE SMOOTH",
"585 -28 LINE SMOOTH",
"585 69 OFFCURVE",
"532 122 OFFCURVE",
"435 122 CURVE SMOOTH",
"344 122 LINE",
"344 195 LINE",
"222 195 LINE",
"222 1 LINE",
"454 1 LINE",
"454 -79 LINE",
"166 -79 LINE",
"166 28 LINE",
"35 28 LINE",
"35 -50 LINE SMOOTH",
"35 -147 OFFCURVE",
"88 -200 OFFCURVE",
"185 -200 CURVE SMOOTH"
);
},
{
closed = 1;
nodes = (
"203 396 LINE",
"384 396 LINE",
"384 296 LINE",
"203 296 LINE"
);
},
{
closed = 1;
nodes = (
"364 179 LINE SMOOTH",
"461 179 OFFCURVE",
"514 232 OFFCURVE",
"514 329 CURVE SMOOTH",
"514 389 LINE",
"595 389 LINE",
"595 512 LINE",
"572 512 LINE SMOOTH",
"526 512 OFFCURVE",
"506 499 OFFCURVE",
"480 466 CURVE SMOOTH",
"468 451 LINE",
"438 451 LINE",
"426 466 LINE SMOOTH",
"395 504 OFFCURVE",
"364 512 OFFCURVE",
"322 512 CURVE SMOOTH",
"223 512 LINE SMOOTH",
"126 512 OFFCURVE",
"73 459 OFFCURVE",
"73 362 CURVE SMOOTH",
"73 329 LINE SMOOTH",
"73 232 OFFCURVE",
"126 179 OFFCURVE",
"223 179 CURVE SMOOTH"
);
}
);
width = 1200;
}
);
leftMetricsKey = g;
rightMetricsKey = e;
},
{
glyphname = g_o.liga;
lastChange = "2025-01-07 00:54:09 +0000";
layers = (
{
layerId = "07E2A1A4-9842-4AD3-8988-1CD562B06979";
paths = (
{
closed = 1;
nodes = (
"974 0 LINE SMOOTH",
"1065 0 OFFCURVE",
"1114 49 OFFCURVE",
"1114 141 CURVE SMOOTH",
"1114 343 LINE SMOOTH",
"1114 435 OFFCURVE",
"1065 484 OFFCURVE",
"974 484 CURVE SMOOTH",
"817 484 LINE SMOOTH",
"726 484 OFFCURVE",
"677 435 OFFCURVE",
"677 343 CURVE SMOOTH",
"677 141 LINE SMOOTH",
"677 49 OFFCURVE",
"726 0 OFFCURVE",
"817 0 CURVE SMOOTH"
);
},
{
closed = 1;
nodes = (
"429 -200 LINE SMOOTH",
"513 -200 OFFCURVE",
"559 -154 OFFCURVE",
"559 -69 CURVE SMOOTH",
"559 -50 LINE SMOOTH",
"559 35 OFFCURVE",
"513 81 OFFCURVE",
"429 81 CURVE SMOOTH",
"335 81 LINE",
"335 205 LINE",
"256 205 LINE",
"256 4 LINE",
"480 4 LINE",
"480 -123 LINE",
"130 -123 LINE",
"130 3 LINE",
"51 3 LINE",
"51 -69 LINE SMOOTH",
"51 -154 OFFCURVE",
"97 -200 OFFCURVE",
"181 -200 CURVE SMOOTH"
);
},
{
closed = 1;
nodes = (
"182 408 LINE",
"411 408 LINE",
"411 266 LINE",
"182 266 LINE"
);
},
{
closed = 1;
nodes = (
"359 188 LINE SMOOTH",
"443 188 OFFCURVE",
"489 235 OFFCURVE",
"489 320 CURVE SMOOTH",
"489 398 LINE",
"582 398 LINE",
"582 484 LINE",
"561 484 LINE SMOOTH",
"530 484 OFFCURVE",
"509 475 OFFCURVE",
"488 451 CURVE SMOOTH",
"478 440 LINE",
"457 440 LINE",
"445 452 LINE SMOOTH",
"423 474 OFFCURVE",
"402 484 OFFCURVE",
"371 484 CURVE SMOOTH",
"234 484 LINE SMOOTH",
"150 484 OFFCURVE",
"104 438 OFFCURVE",
"104 353 CURVE SMOOTH",
"104 320 LINE SMOOTH",
"104 235 OFFCURVE",
"150 188 OFFCURVE",
"234 188 CURVE SMOOTH"
);
},
{
closed = 1;
nodes = (
"756 407 LINE",
"1035 407 LINE",
"1035 77 LINE",
"756 77 LINE"
);
},
{
closed = 1;
nodes = (
"922 196 OFFCURVE",
"941 214 OFFCURVE",
"941 242 CURVE SMOOTH",
"941 269 OFFCURVE",
"922 288 OFFCURVE",
"896 288 CURVE SMOOTH",
"870 288 OFFCURVE",
"851 269 OFFCURVE",
"851 242 CURVE SMOOTH",
"851 214 OFFCURVE",
"870 196 OFFCURVE",
"896 196 CURVE SMOOTH"
);
}
);
width = 1200;
},
{
layerId = "1F2775BA-6CBC-4576-9106-FF363AAD7539";
paths = (
{
closed = 1;
nodes = (
"981 0 LINE SMOOTH",
"1085 0 OFFCURVE",
"1141 56 OFFCURVE",
"1141 160 CURVE SMOOTH",
"1141 352 LINE SMOOTH",
"1141 456 OFFCURVE",
"1085 512 OFFCURVE",
"981 512 CURVE SMOOTH",
"810 512 LINE SMOOTH",
"706 512 OFFCURVE",
"650 456 OFFCURVE",
"650 352 CURVE SMOOTH",
"650 160 LINE SMOOTH",
"650 56 OFFCURVE",
"706 0 OFFCURVE",
"810 0 CURVE SMOOTH"
);
},
{
closed = 1;
nodes = (
"435 -200 LINE SMOOTH",
"532 -200 OFFCURVE",
"585 -147 OFFCURVE",
"585 -50 CURVE SMOOTH",
"585 -28 LINE SMOOTH",
"585 69 OFFCURVE",
"532 122 OFFCURVE",
"435 122 CURVE SMOOTH",
"344 122 LINE",
"344 195 LINE",
"222 195 LINE",
"222 1 LINE",
"454 1 LINE",
"454 -79 LINE",
"166 -79 LINE",
"166 28 LINE",
"35 28 LINE",
"35 -50 LINE SMOOTH",
"35 -147 OFFCURVE",
"88 -200 OFFCURVE",
"185 -200 CURVE SMOOTH"
);
},
{
closed = 1;
nodes = (
"203 396 LINE",
"384 396 LINE",
"384 296 LINE",
"203 296 LINE"
);
},
{
closed = 1;
nodes = (
"364 179 LINE SMOOTH",
"461 179 OFFCURVE",
"514 232 OFFCURVE",
"514 329 CURVE SMOOTH",
"514 389 LINE",
"595 389 LINE",
"595 512 LINE",
"572 512 LINE SMOOTH",
"526 512 OFFCURVE",
"506 499 OFFCURVE",
"480 466 CURVE SMOOTH",
"468 451 LINE",
"438 451 LINE",
"426 466 LINE SMOOTH",
"395 504 OFFCURVE",
"364 512 OFFCURVE",
"322 512 CURVE SMOOTH",
"223 512 LINE SMOOTH",
"126 512 OFFCURVE",
"73 459 OFFCURVE",
"73 362 CURVE SMOOTH",
"73 329 LINE SMOOTH",
"73 232 OFFCURVE",
"126 179 OFFCURVE",
"223 179 CURVE SMOOTH"
);
},
{
closed = 1;
nodes = (
"779 391 LINE",
"1011 391 LINE",
"1011 121 LINE",
"779 121 LINE"
);
},
{
closed = 1;
nodes = (
"932 189 OFFCURVE",
"960 214 OFFCURVE",
"960 253 CURVE SMOOTH",
"960 292 OFFCURVE",
"932 317 OFFCURVE",
"895 317 CURVE SMOOTH",
"858 317 OFFCURVE",
"830 292 OFFCURVE",
"830 253 CURVE SMOOTH",
"830 214 OFFCURVE",
"858 189 OFFCURVE",
"895 189 CURVE SMOOTH"
);
}
);
width = 1200;
}
);
leftMetricsKey = g;
rightMetricsKey = o;
},
{
glyphname = g_o_t.liga;
lastChange = "2025-01-07 00:58:17 +0000";
layers = (
{
layerId = "07E2A1A4-9842-4AD3-8988-1CD562B06979";
paths = (
{
closed = 1;
nodes = (
"1754 0 LINE",
"1754 77 LINE",
"1496 77 LINE",
"1496 407 LINE",
"1737 407 LINE",
"1737 484 LINE",
"1496 484 LINE",
"1496 634 LINE",
"1417 634 LINE",
"1417 484 LINE",
"1229 484 LINE",
"1229 407 LINE",
"1417 407 LINE",
"1417 111 LINE SMOOTH",
"1417 39 OFFCURVE",
"1456 0 OFFCURVE",
"1527 0 CURVE SMOOTH"
);
},
{
closed = 1;
nodes = (
"429 -200 LINE SMOOTH",
"513 -200 OFFCURVE",
"559 -154 OFFCURVE",
"559 -69 CURVE SMOOTH",
"559 -50 LINE SMOOTH",
"559 35 OFFCURVE",
"513 81 OFFCURVE",
"429 81 CURVE SMOOTH",
"335 81 LINE",
"335 205 LINE",
"256 205 LINE",
"256 4 LINE",
"480 4 LINE",
"480 -123 LINE",
"130 -123 LINE",
"130 3 LINE",
"51 3 LINE",
"51 -69 LINE SMOOTH",
"51 -154 OFFCURVE",
"97 -200 OFFCURVE",
"181 -200 CURVE SMOOTH"
);
},
{
closed = 1;
nodes = (
"182 408 LINE",
"411 408 LINE",
"411 266 LINE",
"182 266 LINE"
);
},
{
closed = 1;
nodes = (
"359 188 LINE SMOOTH",
"443 188 OFFCURVE",
"489 235 OFFCURVE",
"489 320 CURVE SMOOTH",
"489 398 LINE",
"582 398 LINE",
"582 484 LINE",
"561 484 LINE SMOOTH",
"530 484 OFFCURVE",
"509 475 OFFCURVE",
"488 451 CURVE SMOOTH",
"478 440 LINE",
"457 440 LINE",
"445 452 LINE SMOOTH",
"423 474 OFFCURVE",
"402 484 OFFCURVE",
"371 484 CURVE SMOOTH",
"234 484 LINE SMOOTH",
"150 484 OFFCURVE",
"104 438 OFFCURVE",
"104 353 CURVE SMOOTH",
"104 320 LINE SMOOTH",
"104 235 OFFCURVE",
"150 188 OFFCURVE",
"234 188 CURVE SMOOTH"
);
},
{
closed = 1;
nodes = (
"992 0 LINE SMOOTH",
"1083 0 OFFCURVE",
"1132 49 OFFCURVE",
"1132 141 CURVE SMOOTH",
"1132 343 LINE SMOOTH",
"1132 435 OFFCURVE",
"1083 484 OFFCURVE",
"992 484 CURVE SMOOTH",
"825 484 LINE SMOOTH",
"734 484 OFFCURVE",
"685 435 OFFCURVE",
"685 343 CURVE SMOOTH",
"685 141 LINE SMOOTH",
"685 49 OFFCURVE",
"734 0 OFFCURVE",
"825 0 CURVE SMOOTH"
);
},
{
closed = 1;
nodes = (
"764 407 LINE",
"1053 407 LINE",
"1053 77 LINE",
"764 77 LINE"
);
},
{
closed = 1;
nodes = (
"935 197 OFFCURVE",
"954 215 OFFCURVE",
"954 243 CURVE SMOOTH",
"954 270 OFFCURVE",
"935 289 OFFCURVE",
"909 289 CURVE SMOOTH",
"883 289 OFFCURVE",
"864 270 OFFCURVE",
"864 243 CURVE SMOOTH",
"864 215 OFFCURVE",
"883 197 OFFCURVE",
"909 197 CURVE SMOOTH"
);
}
);
width = 1800;
},
{
layerId = "1F2775BA-6CBC-4576-9106-FF363AAD7539";
paths = (
{
closed = 1;
nodes = (
"1768 0 LINE",
"1768 121 LINE",
"1528 121 LINE",
"1528 392 LINE",
"1765 392 LINE",
"1765 512 LINE",
"1528 512 LINE",
"1528 653 LINE",
"1398 653 LINE",
"1398 512 LINE",
"1217 512 LINE",
"1217 392 LINE",
"1398 392 LINE",
"1398 120 LINE SMOOTH",
"1398 42 OFFCURVE",
"1440 0 OFFCURVE",
"1518 0 CURVE SMOOTH"
);
},
{
closed = 1;
nodes = (
"435 -200 LINE SMOOTH",
"532 -200 OFFCURVE",
"585 -147 OFFCURVE",
"585 -50 CURVE SMOOTH",
"585 -28 LINE SMOOTH",
"585 69 OFFCURVE",
"532 122 OFFCURVE",
"435 122 CURVE SMOOTH",
"344 122 LINE",
"344 195 LINE",
"222 195 LINE",
"222 1 LINE",
"454 1 LINE",
"454 -79 LINE",
"166 -79 LINE",
"166 28 LINE",
"35 28 LINE",
"35 -50 LINE SMOOTH",
"35 -147 OFFCURVE",
"88 -200 OFFCURVE",
"185 -200 CURVE SMOOTH"
);
},
{
closed = 1;
nodes = (
"203 396 LINE",
"384 396 LINE",
"384 296 LINE",
"203 296 LINE"
);
},
{
closed = 1;
nodes = (
"364 179 LINE SMOOTH",
"461 179 OFFCURVE",
"514 232 OFFCURVE",
"514 329 CURVE SMOOTH",
"514 389 LINE",
"595 389 LINE",
"595 512 LINE",
"572 512 LINE SMOOTH",
"526 512 OFFCURVE",
"506 499 OFFCURVE",
"480 466 CURVE SMOOTH",
"468 451 LINE",
"438 451 LINE",
"426 466 LINE SMOOTH",
"395 504 OFFCURVE",
"364 512 OFFCURVE",
"322 512 CURVE SMOOTH",
"223 512 LINE SMOOTH",
"126 512 OFFCURVE",
"73 459 OFFCURVE",
"73 362 CURVE SMOOTH",
"73 329 LINE SMOOTH",
"73 232 OFFCURVE",
"126 179 OFFCURVE",
"223 179 CURVE SMOOTH"
);
},
{
closed = 1;
nodes = (
"993 0 LINE SMOOTH",
"1097 0 OFFCURVE",
"1153 56 OFFCURVE",
"1153 160 CURVE SMOOTH",
"1153 352 LINE SMOOTH",
"1153 456 OFFCURVE",
"1097 512 OFFCURVE",
"993 512 CURVE SMOOTH",
"812 512 LINE SMOOTH",
"708 512 OFFCURVE",
"652 456 OFFCURVE",
"652 352 CURVE SMOOTH",
"652 160 LINE SMOOTH",
"652 56 OFFCURVE",
"708 0 OFFCURVE",
"812 0 CURVE SMOOTH"
);
},
{
closed = 1;
nodes = (
"781 391 LINE",
"1023 391 LINE",
"1023 121 LINE",
"781 121 LINE"
);
},
{
closed = 1;
nodes = (
"939 189 OFFCURVE",
"967 214 OFFCURVE",
"967 253 CURVE SMOOTH",
"967 292 OFFCURVE",
"939 317 OFFCURVE",
"902 317 CURVE SMOOTH",
"865 317 OFFCURVE",
"837 292 OFFCURVE",
"837 253 CURVE SMOOTH",
"837 214 OFFCURVE",
"865 189 OFFCURVE",
"902 189 CURVE SMOOTH"
);
}
);
width = 1802;
}
);
},
{
glyphname = i_c.liga;
lastChange = "2025-01-06 22:41:58 +0000";
layers = (
{
background = {
paths = (
{
closed = 1;
nodes = (
"603 0 LINE",
"603 121 LINE",
"399 121 LINE",
"399 413 LINE SMOOTH",
"399 479 OFFCURVE",
"366 512 OFFCURVE",
"299 512 CURVE SMOOTH",
"50 512 LINE",
"50 391 LINE",
"269 391 LINE",
"269 121 LINE",
"38 121 LINE",
"38 0 LINE"
);
},
{
closed = 1;
nodes = (
"399 569 LINE",
"399 693 LINE",
"240 693 LINE",
"240 569 LINE"
);
},
{
closed = 1;
nodes = (
"1123 0 LINE",
"1123 121 LINE",
"798 121 LINE",
"798 391 LINE",
"1101 391 LINE",
"1101 512 LINE",
"769 512 LINE SMOOTH",
"702 512 OFFCURVE",
"669 479 OFFCURVE",
"669 413 CURVE SMOOTH",
"669 98 LINE SMOOTH",
"669 33 OFFCURVE",
"702 0 OFFCURVE",
"769 0 CURVE SMOOTH"
);
}
);
};
layerId = "1F2775BA-6CBC-4576-9106-FF363AAD7539";
paths = (
{
closed = 1;
nodes = (
"604 0 LINE",
"604 121 LINE",
"399 121 LINE",
"399 372 LINE SMOOTH",
"399 463 OFFCURVE",
"350 512 OFFCURVE",
"259 512 CURVE SMOOTH",
"51 512 LINE",
"51 391 LINE",
"269 391 LINE",
"269 121 LINE",
"39 121 LINE",
"39 0 LINE"
);
},
{
closed = 1;
nodes = (
"399 569 LINE",
"399 693 LINE",
"240 693 LINE",
"240 569 LINE"
);
},
{
closed = 1;
nodes = (
"1121 0 LINE",
"1121 121 LINE",
"798 121 LINE",
"798 391 LINE",
"1099 391 LINE",
"1099 512 LINE",
"828 512 LINE SMOOTH",
"724 512 OFFCURVE",
"668 456 OFFCURVE",
"668 352 CURVE SMOOTH",
"668 160 LINE SMOOTH",
"668 56 OFFCURVE",
"724 0 OFFCURVE",
"828 0 CURVE SMOOTH"
);
}
);
width = 1200;
},
{
layerId = "07E2A1A4-9842-4AD3-8988-1CD562B06979";
paths = (
{
closed = 1;
nodes = (
"594 0 LINE",
"594 77 LINE",
"387 77 LINE",
"387 354 LINE SMOOTH",
"387 438 OFFCURVE",
"341 484 OFFCURVE",
"257 484 CURVE SMOOTH",
"74 484 LINE",
"74 407 LINE",
"308 407 LINE",
"308 77 LINE",
"47 77 LINE",
"47 0 LINE"
);
},
{
closed = 1;
nodes = (
"387 559 LINE",
"387 665 LINE",
"296 665 LINE",
"296 559 LINE"
);
},
{
closed = 1;
nodes = (
"1115 0 LINE",
"1115 77 LINE",
"770 77 LINE",
"770 407 LINE",
"1096 407 LINE",
"1096 484 LINE",
"831 484 LINE SMOOTH",
"740 484 OFFCURVE",
"691 435 OFFCURVE",
"691 343 CURVE SMOOTH",
"691 141 LINE SMOOTH",
"691 49 OFFCURVE",
"740 0 OFFCURVE",
"831 0 CURVE SMOOTH"
);
}
);
width = 1200;
}
);
},
{
glyphname = i_c_a.liga;
lastChange = "2025-01-06 22:41:58 +0000";
layers = (
{
background = {
paths = (
{
closed = 1;
nodes = (
"603 0 LINE",
"603 121 LINE",
"399 121 LINE",
"399 413 LINE SMOOTH",
"399 479 OFFCURVE",
"366 512 OFFCURVE",
"299 512 CURVE SMOOTH",
"50 512 LINE",
"50 391 LINE",
"269 391 LINE",
"269 121 LINE",
"38 121 LINE",
"38 0 LINE"
);
},
{
closed = 1;
nodes = (
"399 569 LINE",
"399 693 LINE",
"240 693 LINE",
"240 569 LINE"
);
},
{
closed = 1;
nodes = (
"1127 0 LINE",
"1127 121 LINE",
"802 121 LINE",
"802 391 LINE",
"1105 391 LINE",
"1105 512 LINE",
"772 512 LINE SMOOTH",
"705 512 OFFCURVE",
"672 479 OFFCURVE",
"672 413 CURVE SMOOTH",
"672 98 LINE SMOOTH",
"672 33 OFFCURVE",
"705 0 OFFCURVE",
"772 0 CURVE SMOOTH"
);
},
{
closed = 1;
nodes = (
"1495 0 LINE",
"1550 61 LINE",
"1582 61 LINE",
"1631 0 LINE",
"1787 0 LINE",
"1787 121 LINE",
"1693 121 LINE",
"1693 414 LINE SMOOTH",
"1693 479 OFFCURVE",
"1660 512 OFFCURVE",
"1594 512 CURVE SMOOTH",
"1239 512 LINE",
"1239 391 LINE",
"1563 391 LINE",
"1563 121 LINE",
"1343 121 LINE",
"1343 198 LINE",
"1579 198 LINE",
"1579 310 LINE",
"1308 310 LINE SMOOTH",
"1245 310 OFFCURVE",
"1214 280 OFFCURVE",
"1214 219 CURVE SMOOTH",
"1214 98 LINE SMOOTH",
"1214 33 OFFCURVE",
"1247 0 OFFCURVE",
"1314 0 CURVE SMOOTH"
);
}
);
};
layerId = "1F2775BA-6CBC-4576-9106-FF363AAD7539";
paths = (
{
closed = 1;
nodes = (
"604 0 LINE",
"604 121 LINE",
"399 121 LINE",
"399 372 LINE SMOOTH",
"399 463 OFFCURVE",
"350 512 OFFCURVE",
"259 512 CURVE SMOOTH",
"51 512 LINE",
"51 391 LINE",
"269 391 LINE",
"269 121 LINE",
"39 121 LINE",
"39 0 LINE"
);
},
{
closed = 1;
nodes = (
"399 569 LINE",
"399 693 LINE",
"240 693 LINE",
"240 569 LINE"
);
},
{
closed = 1;
nodes = (
"1125 0 LINE",
"1125 121 LINE",
"802 121 LINE",
"802 391 LINE",
"1103 391 LINE",
"1103 512 LINE",
"832 512 LINE SMOOTH",
"728 512 OFFCURVE",
"672 456 OFFCURVE",
"672 352 CURVE SMOOTH",
"672 160 LINE SMOOTH",
"672 56 OFFCURVE",
"728 0 OFFCURVE",
"832 0 CURVE SMOOTH"
);
},
{
closed = 1;
nodes = (
"1451 0 LINE SMOOTH",
"1482 0 OFFCURVE",
"1505 9 OFFCURVE",
"1526 33 CURVE SMOOTH",
"1551 61 LINE",
"1582 61 LINE",
"1603 35 LINE SMOOTH",
"1623 10 OFFCURVE",
"1646 0 OFFCURVE",
"1678 0 CURVE SMOOTH",
"1787 0 LINE",
"1787 121 LINE",
"1693 121 LINE",
"1693 352 LINE SMOOTH",
"1693 456 OFFCURVE",
"1637 512 OFFCURVE",
"1533 512 CURVE SMOOTH",
"1240 512 LINE",
"1240 391 LINE",
"1564 391 LINE",
"1564 121 LINE",
"1344 121 LINE",
"1344 198 LINE",
"1580 198 LINE",
"1580 310 LINE",
"1364 310 LINE SMOOTH",
"1267 310 OFFCURVE",
"1214 257 OFFCURVE",
"1214 160 CURVE SMOOTH",
"1214 150 LINE SMOOTH",
"1214 53 OFFCURVE",
"1267 0 OFFCURVE",
"1364 0 CURVE SMOOTH"
);
}
);
width = 1800;
},
{
layerId = "07E2A1A4-9842-4AD3-8988-1CD562B06979";
paths = (
{
closed = 1;
nodes = (
"594 0 LINE",
"594 77 LINE",
"386 77 LINE",
"386 354 LINE SMOOTH",
"386 438 OFFCURVE",
"340 484 OFFCURVE",
"256 484 CURVE SMOOTH",
"74 484 LINE",
"74 407 LINE",
"307 407 LINE",
"307 77 LINE",
"47 77 LINE",
"47 0 LINE"
);
},
{
closed = 1;
nodes = (
"386 559 LINE",
"386 665 LINE",
"295 665 LINE",
"295 559 LINE"
);
},
{
closed = 1;
nodes = (
"1121 0 LINE",
"1121 77 LINE",
"772 77 LINE",
"772 407 LINE",
"1102 407 LINE",
"1102 484 LINE",
"833 484 LINE SMOOTH",
"742 484 OFFCURVE",
"693 435 OFFCURVE",
"693 343 CURVE SMOOTH",
"693 141 LINE SMOOTH",
"693 49 OFFCURVE",
"742 0 OFFCURVE",
"833 0 CURVE SMOOTH"
);
},
{
closed = 1;
nodes = (
"1484 0 LINE SMOOTH",
"1540 0 OFFCURVE",
"1564 10 OFFCURVE",
"1586 35 CURVE SMOOTH",
"1594 45 LINE",
"1621 45 LINE",
"1634 31 LINE SMOOTH",
"1656 9 OFFCURVE",
"1677 0 OFFCURVE",
"1708 0 CURVE SMOOTH",
"1778 0 LINE",
"1778 77 LINE",
"1673 77 LINE",
"1673 343 LINE SMOOTH",
"1673 435 OFFCURVE",
"1624 484 OFFCURVE",
"1533 484 CURVE SMOOTH",
"1270 484 LINE",
"1270 407 LINE",
"1594 407 LINE",
"1594 77 LINE",
"1314 77 LINE",
"1314 203 LINE",
"1610 203 LINE",
"1610 280 LINE",
"1366 280 LINE SMOOTH",
"1282 280 OFFCURVE",
"1236 233 OFFCURVE",
"1236 149 CURVE SMOOTH",
"1236 131 LINE SMOOTH",
"1236 46 OFFCURVE",
"1282 0 OFFCURVE",
"1366 0 CURVE SMOOTH"
);
}
);
width = 1801;
}
);
},
{
glyphname = i_j.liga;
lastChange = "2025-01-06 23:28:42 +0000";
layers = (
{
background = {
paths = (
{
closed = 1;
nodes = (
"707 -200 LINE SMOOTH",
"874 -200 OFFCURVE",
"973 -126 OFFCURVE",
"973 30 CURVE SMOOTH",
"973 391 LINE",
"1167 391 LINE",
"1167 512 LINE",
"1001 512 LINE",
"952 451 LINE",
"921 451 LINE",
"865 512 LINE",
"518 512 LINE",
"518 391 LINE",
"844 391 LINE",
"844 52 LINE SMOOTH",
"844 -38 OFFCURVE",
"803 -79 OFFCURVE",
"713 -79 CURVE SMOOTH",
"545 -79 LINE",
"545 -200 LINE"
);
},
{
closed = 1;
nodes = (
"583 0 LINE",
"583 121 LINE",
"406 121 LINE",
"406 413 LINE SMOOTH",
"406 479 OFFCURVE",
"373 512 OFFCURVE",
"306 512 CURVE SMOOTH",
"50 512 LINE",
"50 391 LINE",
"277 391 LINE",
"277 121 LINE",
"38 121 LINE",
"38 0 LINE"
);
},
{
closed = 1;
nodes = (
"406 569 LINE",
"406 693 LINE",
"248 693 LINE",
"248 569 LINE"
);
},
{
closed = 1;
nodes = (
"1028 569 LINE",
"1028 693 LINE",
"847 693 LINE",
"847 569 LINE"
);
}
);
};
layerId = "1F2775BA-6CBC-4576-9106-FF363AAD7539";
paths = (
{
closed = 1;
nodes = (
"707 -200 LINE SMOOTH",
"874 -200 OFFCURVE",
"973 -126 OFFCURVE",
"973 30 CURVE SMOOTH",
"973 391 LINE",
"1169 391 LINE",
"1169 512 LINE",
"1046 512 LINE SMOOTH",
"1015 512 OFFCURVE",
"993 501 OFFCURVE",
"973 477 CURVE SMOOTH",
"952 451 LINE",
"921 451 LINE",
"895 480 LINE SMOOTH",
"874 503 OFFCURVE",
"852 512 OFFCURVE",
"821 512 CURVE SMOOTH",
"517 512 LINE",
"517 391 LINE",
"844 391 LINE",
"844 52 LINE SMOOTH",
"844 -38 OFFCURVE",
"803 -79 OFFCURVE",
"713 -79 CURVE SMOOTH",
"545 -79 LINE",
"545 -200 LINE"
);
},
{
closed = 1;
nodes = (
"583 0 LINE",
"583 121 LINE",
"406 121 LINE",
"406 372 LINE SMOOTH",
"406 463 OFFCURVE",
"357 512 OFFCURVE",
"266 512 CURVE SMOOTH",
"49 512 LINE",
"49 391 LINE",
"276 391 LINE",
"276 121 LINE",
"37 121 LINE",
"37 0 LINE"
);
},
{
closed = 1;
nodes = (
"406 569 LINE",
"406 693 LINE",
"247 693 LINE",
"247 569 LINE"
);
},
{
closed = 1;
nodes = (
"1027 569 LINE",
"1027 693 LINE",
"847 693 LINE",
"847 569 LINE"
);
}
);
width = 1200;
},
{
background = {
paths = (
{
closed = 1;
nodes = (
"740 -200 LINE SMOOTH",
"885 -200 OFFCURVE",
"958 -128 OFFCURVE",
"958 17 CURVE SMOOTH",
"958 407 LINE",
"1145 407 LINE",
"1145 484 LINE",
"964 484 LINE",
"920 440 LINE",
"894 440 LINE",
"854 484 LINE",
"538 484 LINE",
"538 407 LINE",
"879 407 LINE",
"879 17 LINE SMOOTH",
"879 -76 OFFCURVE",
"833 -123 OFFCURVE",
"740 -123 CURVE SMOOTH",
"513 -123 LINE",
"513 -200 LINE"
);
},
{
closed = 1;
nodes = (
"573 0 LINE",
"573 77 LINE",
"377 77 LINE",
"377 408 LINE SMOOTH",
"377 459 OFFCURVE",
"352 484 OFFCURVE",
"301 484 CURVE SMOOTH",
"73 484 LINE",
"73 407 LINE",
"298 407 LINE",
"298 77 LINE",
"46 77 LINE",
"46 0 LINE"
);
},
{
closed = 1;
nodes = (
"377 559 LINE",
"377 665 LINE",
"286 665 LINE",
"286 559 LINE"
);
},
{
closed = 1;
nodes = (
"994 559 LINE",
"994 665 LINE",
"901 665 LINE",
"901 559 LINE"
);
}
);
};
layerId = "07E2A1A4-9842-4AD3-8988-1CD562B06979";
paths = (
{
closed = 1;
nodes = (
"740 -200 LINE SMOOTH",
"885 -200 OFFCURVE",
"958 -128 OFFCURVE",
"958 17 CURVE SMOOTH",
"958 407 LINE",
"1145 407 LINE",
"1145 484 LINE",
"1013 484 LINE SMOOTH",
"993 484 OFFCURVE",
"978 478 OFFCURVE",
"964 464 CURVE SMOOTH",
"940 440 LINE",
"914 440 LINE",
"894 462 LINE SMOOTH",
"880 478 OFFCURVE",
"865 484 OFFCURVE",
"845 484 CURVE SMOOTH",
"538 484 LINE",
"538 407 LINE",
"879 407 LINE",
"879 17 LINE SMOOTH",
"879 -76 OFFCURVE",
"833 -123 OFFCURVE",
"740 -123 CURVE SMOOTH",
"512 -123 LINE",
"512 -200 LINE"
);
},
{
closed = 1;
nodes = (
"573 0 LINE",
"573 77 LINE",
"377 77 LINE",
"377 354 LINE SMOOTH",
"377 438 OFFCURVE",
"331 484 OFFCURVE",
"247 484 CURVE SMOOTH",
"73 484 LINE",
"73 407 LINE",
"298 407 LINE",
"298 77 LINE",
"46 77 LINE",
"46 0 LINE"
);
},
{
closed = 1;
nodes = (
"377 559 LINE",
"377 665 LINE",
"286 665 LINE",
"286 559 LINE"
);
},
{
closed = 1;
nodes = (
"994 559 LINE",
"994 665 LINE",
"900 665 LINE",
"900 559 LINE"
);
}
);
width = 1198;
}
);
},
{
glyphname = i_t.liga;
lastChange = "2025-01-07 00:28:23 +0000";
layers = (
{
background = {
paths = (
{
closed = 1;
nodes = (
"1159 0 LINE",
"1159 121 LINE",
"905 121 LINE",
"905 392 LINE",
"1157 392 LINE",
"1157 512 LINE",
"905 512 LINE",
"905 654 LINE",
"776 654 LINE",
"776 512 LINE",
"574 512 LINE",
"574 392 LINE",
"776 392 LINE",
"776 98 LINE SMOOTH",
"776 33 OFFCURVE",
"809 0 OFFCURVE",
"876 0 CURVE SMOOTH"
);
},
{
closed = 1;
nodes = (
"620 0 LINE",
"620 121 LINE",
"416 121 LINE",
"416 413 LINE SMOOTH",
"416 479 OFFCURVE",
"383 512 OFFCURVE",
"316 512 CURVE SMOOTH",
"50 512 LINE",
"50 391 LINE",
"287 391 LINE",
"287 121 LINE",
"38 121 LINE",
"38 0 LINE"
);
},
{
closed = 1;
nodes = (
"416 569 LINE",
"416 693 LINE",
"258 693 LINE",
"258 569 LINE"
);
}
);
};
layerId = "1F2775BA-6CBC-4576-9106-FF363AAD7539";
paths = (
{
closed = 1;
nodes = (
"1159 0 LINE",
"1159 121 LINE",
"905 121 LINE",
"905 392 LINE",
"1156 392 LINE",
"1156 512 LINE",
"905 512 LINE",
"905 653 LINE",
"775 653 LINE",
"775 512 LINE",
"574 512 LINE",
"574 392 LINE",
"775 392 LINE",
"775 120 LINE SMOOTH",
"775 42 OFFCURVE",
"817 0 OFFCURVE",
"895 0 CURVE SMOOTH"
);
},
{
closed = 1;
nodes = (
"619 0 LINE",
"619 121 LINE",
"416 121 LINE",
"416 372 LINE SMOOTH",
"416 463 OFFCURVE",
"367 512 OFFCURVE",
"276 512 CURVE SMOOTH",
"50 512 LINE",
"50 391 LINE",
"286 391 LINE",
"286 121 LINE",
"38 121 LINE",
"38 0 LINE"
);
},
{
closed = 1;
nodes = (
"416 569 LINE",
"416 693 LINE",
"257 693 LINE",
"257 569 LINE"
);
}
);
width = 1200;
},
{
background = {
paths = (
{
closed = 1;
nodes = (
"1153 0 LINE",
"1153 77 LINE",
"882 77 LINE",
"882 407 LINE",
"1136 407 LINE",
"1136 484 LINE",
"882 484 LINE",
"882 634 LINE",
"803 634 LINE",
"803 484 LINE",
"606 484 LINE",
"606 407 LINE",
"803 407 LINE",
"803 76 LINE SMOOTH",
"803 25 OFFCURVE",
"828 0 OFFCURVE",
"879 0 CURVE SMOOTH"
);
},
{
closed = 1;
nodes = (
"596 0 LINE",
"596 77 LINE",
"388 77 LINE",
"388 408 LINE SMOOTH",
"388 459 OFFCURVE",
"363 484 OFFCURVE",
"312 484 CURVE SMOOTH",
"74 484 LINE",
"74 407 LINE",
"309 407 LINE",
"309 77 LINE",
"47 77 LINE",
"47 0 LINE"
);
},
{
closed = 1;
nodes = (
"388 559 LINE",
"388 665 LINE",
"297 665 LINE",
"297 559 LINE"
);
}
);
};
layerId = "07E2A1A4-9842-4AD3-8988-1CD562B06979";
paths = (
{
closed = 1;
nodes = (
"1153 0 LINE",
"1153 77 LINE",
"882 77 LINE",
"882 407 LINE",
"1136 407 LINE",
"1136 484 LINE",
"882 484 LINE",
"882 634 LINE",
"803 634 LINE",
"803 484 LINE",
"606 484 LINE",
"606 407 LINE",
"803 407 LINE",
"803 111 LINE SMOOTH",
"803 39 OFFCURVE",
"842 0 OFFCURVE",
"913 0 CURVE SMOOTH"
);
},
{
closed = 1;
nodes = (
"596 0 LINE",
"596 77 LINE",
"388 77 LINE",
"388 354 LINE SMOOTH",
"388 438 OFFCURVE",
"342 484 OFFCURVE",
"258 484 CURVE SMOOTH",
"74 484 LINE",
"74 407 LINE",
"309 407 LINE",
"309 77 LINE",
"47 77 LINE",
"47 0 LINE"
);
},
{
closed = 1;
nodes = (
"388 559 LINE",
"388 665 LINE",
"297 665 LINE",
"297 559 LINE"
);
}
);
width = 1200;
}
);
},
{
glyphname = k_e.liga;
lastChange = "2025-01-07 00:39:59 +0000";
layers = (
{
background = {
paths = (
{
closed = 1;
nodes = (
"1151 0 LINE",
"1151 121 LINE",
"790 121 LINE",
"790 391 LINE",
"1011 391 LINE",
"1011 314 LINE",
"736 314 LINE",
"736 202 LINE",
"1049 202 LINE SMOOTH",
"1111 202 OFFCURVE",
"1142 232 OFFCURVE",
"1142 293 CURVE SMOOTH",
"1142 413 LINE SMOOTH",
"1142 479 OFFCURVE",
"1109 512 OFFCURVE",
"1042 512 CURVE SMOOTH",
"758 512 LINE SMOOTH",
"693 512 OFFCURVE",
"661 479 OFFCURVE",
"661 414 CURVE SMOOTH",
"661 97 LINE SMOOTH",
"661 32 OFFCURVE",
"694 0 OFFCURVE",
"761 0 CURVE SMOOTH"
);
},
{
closed = 1;
nodes = (
"196 0 LINE",
"196 693 LINE",
"66 693 LINE",
"66 0 LINE"
);
},
{
closed = 1;
nodes = (
"598 0 LINE",
"598 27 LINE",
"443 252 LINE",
"443 294 LINE",
"598 485 LINE",
"598 512 LINE",
"463 512 LINE",
"323 327 LINE",
"182 327 LINE",
"182 209 LINE",
"323 209 LINE",
"459 0 LINE"
);
}
);
};
layerId = "1F2775BA-6CBC-4576-9106-FF363AAD7539";
paths = (
{
closed = 1;
nodes = (
"1151 0 LINE",
"1151 121 LINE",
"792 121 LINE",
"792 391 LINE",
"1010 391 LINE",
"1010 314 LINE",
"776 314 LINE",
"776 202 LINE",
"991 202 LINE SMOOTH",
"1088 202 OFFCURVE",
"1141 255 OFFCURVE",
"1141 352 CURVE SMOOTH",
"1141 362 LINE SMOOTH",
"1141 459 OFFCURVE",
"1088 512 OFFCURVE",
"991 512 CURVE SMOOTH",
"822 512 LINE SMOOTH",
"718 512 OFFCURVE",
"662 456 OFFCURVE",
"662 352 CURVE SMOOTH",
"662 160 LINE SMOOTH",
"662 56 OFFCURVE",
"718 0 OFFCURVE",
"822 0 CURVE SMOOTH"
);
},
{
closed = 1;
nodes = (
"196 0 LINE",
"196 693 LINE",
"66 693 LINE",
"66 0 LINE"
);
},
{
closed = 1;
nodes = (
"598 0 LINE",
"598 27 LINE",
"443 252 LINE",
"443 294 LINE",
"598 485 LINE",
"598 512 LINE",
"463 512 LINE",
"323 327 LINE",
"182 327 LINE",
"182 209 LINE",
"323 209 LINE",
"459 0 LINE"
);
}
);
width = 1200;
},
{
layerId = "07E2A1A4-9842-4AD3-8988-1CD562B06979";
paths = (
{
closed = 1;
nodes = (
"1130 0 LINE",
"1130 77 LINE",
"762 77 LINE",
"762 407 LINE",
"1044 407 LINE",
"1044 284 LINE",
"746 284 LINE",
"746 207 LINE",
"993 207 LINE SMOOTH",
"1077 207 OFFCURVE",
"1123 253 OFFCURVE",
"1123 338 CURVE SMOOTH",
"1123 353 LINE SMOOTH",
"1123 438 OFFCURVE",
"1077 484 OFFCURVE",
"993 484 CURVE SMOOTH",
"823 484 LINE SMOOTH",
"732 484 OFFCURVE",
"683 435 OFFCURVE",
"683 343 CURVE SMOOTH",
"683 141 LINE SMOOTH",
"683 49 OFFCURVE",
"732 0 OFFCURVE",
"823 0 CURVE SMOOTH"
);
},
{
closed = 1;
nodes = (
"175 0 LINE",
"175 693 LINE",
"97 693 LINE",
"97 0 LINE"
);
},
{
closed = 1;
nodes = (
"570 0 LINE",
"570 23 LINE",
"408 242 LINE",
"408 279 LINE",
"570 461 LINE",
"570 484 LINE",
"487 484 LINE",
"325 300 LINE",
"160 300 LINE",
"160 223 LINE",
"324 223 LINE",
"486 0 LINE"
);
}
);
width = 1200;
}
);
},
{
glyphname = k_o.liga;
lastChange = "2025-01-06 23:29:44 +0000";
layers = (
{
layerId = "1F2775BA-6CBC-4576-9106-FF363AAD7539";
paths = (
{
closed = 1;
nodes = (
"196 0 LINE",
"196 209 LINE",
"323 209 LINE",
"459 0 LINE",
"598 0 LINE",
"598 27 LINE",
"443 252 LINE",
"443 294 LINE",
"598 485 LINE",
"598 512 LINE",
"463 512 LINE",
"323 327 LINE",
"196 327 LINE",
"196 693 LINE",
"66 693 LINE",
"66 0 LINE"
);
},
{
closed = 1;
nodes = (
"980 0 LINE SMOOTH",
"1084 0 OFFCURVE",
"1140 56 OFFCURVE",
"1140 160 CURVE SMOOTH",
"1140 352 LINE SMOOTH",
"1140 456 OFFCURVE",
"1084 512 OFFCURVE",
"980 512 CURVE SMOOTH",
"819 512 LINE SMOOTH",
"715 512 OFFCURVE",
"659 456 OFFCURVE",
"659 352 CURVE SMOOTH",
"659 160 LINE SMOOTH",
"659 56 OFFCURVE",
"715 0 OFFCURVE",
"819 0 CURVE SMOOTH"
);
},
{
closed = 1;
nodes = (
"788 391 LINE",
"1010 391 LINE",
"1010 121 LINE",
"788 121 LINE"
);
},
{
closed = 1;
nodes = (
"936 189 OFFCURVE",
"964 214 OFFCURVE",
"964 253 CURVE SMOOTH",
"964 292 OFFCURVE",
"936 317 OFFCURVE",
"899 317 CURVE SMOOTH",
"862 317 OFFCURVE",
"834 292 OFFCURVE",
"834 253 CURVE SMOOTH",
"834 214 OFFCURVE",
"862 189 OFFCURVE",
"899 189 CURVE SMOOTH"
);
}
);
width = 1200;
},
{
layerId = "07E2A1A4-9842-4AD3-8988-1CD562B06979";
paths = (
{
closed = 1;
nodes = (
"175 0 LINE",
"175 223 LINE",
"324 223 LINE",
"486 0 LINE",
"570 0 LINE",
"570 23 LINE",
"408 242 LINE",
"408 279 LINE",
"570 461 LINE",
"570 484 LINE",
"487 484 LINE",
"325 300 LINE",
"175 300 LINE",
"175 693 LINE",
"97 693 LINE",
"97 0 LINE"
);
},
{
closed = 1;
nodes = (
"969 0 LINE SMOOTH",
"1060 0 OFFCURVE",
"1109 49 OFFCURVE",
"1109 141 CURVE SMOOTH",
"1109 343 LINE SMOOTH",
"1109 435 OFFCURVE",
"1060 484 OFFCURVE",
"969 484 CURVE SMOOTH",
"822 484 LINE SMOOTH",
"731 484 OFFCURVE",
"682 435 OFFCURVE",
"682 343 CURVE SMOOTH",
"682 141 LINE SMOOTH",
"682 49 OFFCURVE",
"731 0 OFFCURVE",
"822 0 CURVE SMOOTH"
);
},
{
closed = 1;
nodes = (
"761 407 LINE",
"1030 407 LINE",
"1030 77 LINE",
"761 77 LINE"
);
},
{
closed = 1;
nodes = (
"922 197 OFFCURVE",
"941 215 OFFCURVE",
"941 243 CURVE SMOOTH",
"941 270 OFFCURVE",
"922 289 OFFCURVE",
"896 289 CURVE SMOOTH",
"870 289 OFFCURVE",
"851 270 OFFCURVE",
"851 243 CURVE SMOOTH",
"851 215 OFFCURVE",
"870 197 OFFCURVE",
"896 197 CURVE SMOOTH"
);
}
);
width = 1200;
}
);
},
{
glyphname = l_t.liga;
lastChange = "2025-01-06 23:32:44 +0000";
layers = (
{
background = {
paths = (
{
closed = 1;
nodes = (
"1159 0 LINE",
"1159 121 LINE",
"905 121 LINE",
"905 392 LINE",
"1157 392 LINE",
"1157 512 LINE",
"905 512 LINE",
"905 654 LINE",
"776 654 LINE",
"776 512 LINE",
"574 512 LINE",
"574 392 LINE",
"776 392 LINE",
"776 98 LINE SMOOTH",
"776 33 OFFCURVE",
"809 0 OFFCURVE",
"876 0 CURVE SMOOTH"
);
},
{
closed = 1;
nodes = (
"620 0 LINE",
"620 121 LINE",
"416 121 LINE",
"416 594 LINE SMOOTH",
"416 660 OFFCURVE",
"383 693 OFFCURVE",
"316 693 CURVE SMOOTH",
"50 693 LINE",
"50 572 LINE",
"287 572 LINE",
"287 121 LINE",
"38 121 LINE",
"38 0 LINE"
);
}
);
};
layerId = "1F2775BA-6CBC-4576-9106-FF363AAD7539";
paths = (
{
closed = 1;
nodes = (
"606 1 LINE",
"606 122 LINE",
"416 122 LINE",
"416 554 LINE SMOOTH",
"416 645 OFFCURVE",
"367 694 OFFCURVE",
"276 694 CURVE SMOOTH",
"50 694 LINE",
"50 573 LINE",
"286 573 LINE",
"286 122 LINE",
"38 122 LINE",
"38 1 LINE"
);
},
{
closed = 1;
nodes = (
"1159 0 LINE",
"1159 121 LINE",
"905 121 LINE",
"905 392 LINE",
"1157 392 LINE",
"1157 512 LINE",
"905 512 LINE",
"905 653 LINE",
"775 653 LINE",
"775 512 LINE",
"574 512 LINE",
"574 392 LINE",
"775 392 LINE",
"775 120 LINE SMOOTH",
"775 42 OFFCURVE",
"817 0 OFFCURVE",
"895 0 CURVE SMOOTH"
);
}
);
width = 1200;
},
{
layerId = "07E2A1A4-9842-4AD3-8988-1CD562B06979";
paths = (
{
closed = 1;
nodes = (
"596 0 LINE",
"596 77 LINE",
"388 77 LINE",
"388 563 LINE SMOOTH",
"388 647 OFFCURVE",
"342 693 OFFCURVE",
"258 693 CURVE SMOOTH",
"74 693 LINE",
"74 616 LINE",
"309 616 LINE",
"309 77 LINE",
"47 77 LINE",
"47 0 LINE"
);
},
{
closed = 1;
nodes = (
"1153 0 LINE",
"1153 77 LINE",
"882 77 LINE",
"882 407 LINE",
"1125 407 LINE",
"1125 484 LINE",
"882 484 LINE",
"882 634 LINE",
"803 634 LINE",
"803 484 LINE",
"606 484 LINE",
"606 407 LINE",
"803 407 LINE",
"803 111 LINE SMOOTH",
"803 39 OFFCURVE",
"842 0 OFFCURVE",
"913 0 CURVE SMOOTH"
);
}
);
width = 1200;
}
);
},
{
glyphname = m_m.liga;
lastChange = "2025-01-06 23:45:08 +0000";
layers = (
{
background = {
paths = (
{
closed = 1;
nodes = (
"194 0 LINE",
"194 391 LINE",
"300 391 LINE",
"300 0 LINE",
"430 0 LINE",
"430 391 LINE",
"535 391 LINE",
"535 0 LINE",
"665 0 LINE",
"665 391 LINE",
"771 391 LINE",
"771 0 LINE",
"900 0 LINE",
"900 391 LINE",
"1006 391 LINE",
"1006 0 LINE",
"1135 0 LINE",
"1135 423 LINE SMOOTH",
"1135 482 OFFCURVE",
"1111 512 OFFCURVE",
"1062 512 CURVE SMOOTH",
"951 512 LINE",
"899 451 LINE",
"876 451 LINE",
"826 512 LINE",
"714 512 LINE",
"658 451 LINE",
"636 451 LINE",
"587 512 LINE",
"480 512 LINE",
"428 451 LINE",
"406 451 LINE",
"355 512 LINE",
"245 512 LINE",
"189 451 LINE",
"166 451 LINE",
"119 512 LINE",
"65 512 LINE",
"65 0 LINE"
);
}
);
};
layerId = "1F2775BA-6CBC-4576-9106-FF363AAD7539";
paths = (
{
closed = 1;
nodes = (
"194 0 LINE",
"194 391 LINE",
"300 391 LINE",
"300 0 LINE",
"430 0 LINE",
"430 391 LINE",
"535 391 LINE",
"535 0 LINE",
"665 0 LINE",
"665 391 LINE",
"771 391 LINE",
"771 0 LINE",
"900 0 LINE",
"900 391 LINE",
"1006 391 LINE",
"1006 0 LINE",
"1135 0 LINE",
"1135 400 LINE SMOOTH",
"1135 465 OFFCURVE",
"1088 512 OFFCURVE",
"1023 512 CURVE SMOOTH",
"996 512 LINE SMOOTH",
"963 512 OFFCURVE",
"943 503 OFFCURVE",
"918 473 CURVE SMOOTH",
"899 451 LINE",
"876 451 LINE",
"849 484 LINE SMOOTH",
"834 503 OFFCURVE",
"813 512 OFFCURVE",
"790 512 CURVE SMOOTH",
"747 512 LINE SMOOTH",
"726 512 OFFCURVE",
"706 504 OFFCURVE",
"692 488 CURVE SMOOTH",
"658 451 LINE",
"636 451 LINE",
"610 483 LINE SMOOTH",
"595 501 OFFCURVE",
"573 512 OFFCURVE",
"550 512 CURVE SMOOTH",
"515 512 LINE SMOOTH",
"492 512 OFFCURVE",
"472 503 OFFCURVE",
"457 485 CURVE SMOOTH",
"428 451 LINE",
"406 451 LINE",
"378 485 LINE SMOOTH",
"363 503 OFFCURVE",
"342 512 OFFCURVE",
"319 512 CURVE SMOOTH",
"278 512 LINE SMOOTH",
"257 512 OFFCURVE",
"237 504 OFFCURVE",
"223 488 CURVE SMOOTH",
"189 451 LINE",
"166 451 LINE",
"119 512 LINE",
"65 512 LINE",
"65 0 LINE"
);
}
);
width = 1200;
},
{
background = {
paths = (
{
closed = 1;
nodes = (
"166 0 LINE",
"166 407 LINE",
"324 407 LINE",
"324 0 LINE",
"403 0 LINE",
"403 407 LINE",
"561 407 LINE",
"561 0 LINE",
"639 0 LINE",
"639 407 LINE",
"798 407 LINE",
"798 0 LINE",
"876 0 LINE",
"876 407 LINE",
"1034 407 LINE",
"1034 0 LINE",
"1113 0 LINE",
"1113 410 LINE SMOOTH",
"1113 459 OFFCURVE",
"1089 484 OFFCURVE",
"1041 484 CURVE SMOOTH",
"920 484 LINE",
"878 440 LINE",
"853 440 LINE",
"811 484 LINE",
"677 484 LINE",
"634 440 LINE",
"609 440 LINE",
"566 484 LINE",
"447 484 LINE",
"405 440 LINE",
"379 440 LINE",
"337 484 LINE",
"212 484 LINE",
"168 440 LINE",
"143 440 LINE",
"112 484 LINE",
"87 484 LINE",
"87 0 LINE"
);
}
);
};
layerId = "07E2A1A4-9842-4AD3-8988-1CD562B06979";
paths = (
{
closed = 1;
nodes = (
"166 0 LINE",
"166 407 LINE",
"324 407 LINE",
"324 0 LINE",
"403 0 LINE",
"403 407 LINE",
"561 407 LINE",
"561 0 LINE",
"639 0 LINE",
"639 407 LINE",
"798 407 LINE",
"798 0 LINE",
"876 0 LINE",
"876 407 LINE",
"1034 407 LINE",
"1034 0 LINE",
"1113 0 LINE",
"1113 396 LINE SMOOTH",
"1113 446 OFFCURVE",
"1075 484 OFFCURVE",
"1025 484 CURVE SMOOTH",
"954 484 LINE SMOOTH",
"932 484 OFFCURVE",
"911 475 OFFCURVE",
"896 459 CURVE SMOOTH",
"878 440 LINE",
"853 440 LINE",
"835 459 LINE SMOOTH",
"820 475 OFFCURVE",
"799 484 OFFCURVE",
"777 484 CURVE SMOOTH",
"711 484 LINE SMOOTH",
"689 484 OFFCURVE",
"668 476 OFFCURVE",
"653 460 CURVE SMOOTH",
"634 440 LINE",
"609 440 LINE",
"590 460 LINE SMOOTH",
"575 476 OFFCURVE",
"554 484 OFFCURVE",
"532 484 CURVE SMOOTH",
"481 484 LINE SMOOTH",
"459 484 OFFCURVE",
"438 475 OFFCURVE",
"423 459 CURVE SMOOTH",
"405 440 LINE",
"379 440 LINE",
"361 459 LINE SMOOTH",
"346 475 OFFCURVE",
"325 484 OFFCURVE",
"303 484 CURVE SMOOTH",
"245 484 LINE SMOOTH",
"224 484 OFFCURVE",
"204 476 OFFCURVE",
"189 461 CURVE SMOOTH",
"168 440 LINE",
"143 440 LINE",
"112 484 LINE",
"87 484 LINE",
"87 0 LINE"
);
}
);
width = 1200;
}
);
},
{
glyphname = o_t.liga;
lastChange = "2025-01-07 00:38:32 +0000";
layers = (
{
layerId = "07E2A1A4-9842-4AD3-8988-1CD562B06979";
paths = (
{
closed = 1;
nodes = (
"1154 0 LINE",
"1154 77 LINE",
"896 77 LINE",
"896 407 LINE",
"1137 407 LINE",
"1137 484 LINE",
"896 484 LINE",
"896 634 LINE",
"817 634 LINE",
"817 484 LINE",
"629 484 LINE",
"629 407 LINE",
"817 407 LINE",
"817 111 LINE SMOOTH",
"817 39 OFFCURVE",
"856 0 OFFCURVE",
"927 0 CURVE SMOOTH"
);
},
{
closed = 1;
nodes = (
"394 0 LINE SMOOTH",
"485 0 OFFCURVE",
"534 49 OFFCURVE",
"534 141 CURVE SMOOTH",
"534 343 LINE SMOOTH",
"534 435 OFFCURVE",
"485 484 OFFCURVE",
"394 484 CURVE SMOOTH",
"227 484 LINE SMOOTH",
"136 484 OFFCURVE",
"87 435 OFFCURVE",
"87 343 CURVE SMOOTH",
"87 141 LINE SMOOTH",
"87 49 OFFCURVE",
"136 0 OFFCURVE",
"227 0 CURVE SMOOTH"
);
},
{
closed = 1;
nodes = (
"166 407 LINE",
"455 407 LINE",
"455 77 LINE",
"166 77 LINE"
);
},
{
closed = 1;
nodes = (
"337 197 OFFCURVE",
"356 215 OFFCURVE",
"356 243 CURVE SMOOTH",
"356 270 OFFCURVE",
"337 289 OFFCURVE",
"311 289 CURVE SMOOTH",
"285 289 OFFCURVE",
"266 270 OFFCURVE",
"266 243 CURVE SMOOTH",
"266 215 OFFCURVE",
"285 197 OFFCURVE",
"311 197 CURVE SMOOTH"
);
}
);
width = 1200;
},
{
layerId = "1F2775BA-6CBC-4576-9106-FF363AAD7539";
paths = (
{
closed = 1;
nodes = (
"1168 0 LINE",
"1168 121 LINE",
"928 121 LINE",
"928 392 LINE",
"1165 392 LINE",
"1165 512 LINE",
"928 512 LINE",
"928 653 LINE",
"798 653 LINE",
"798 512 LINE",
"617 512 LINE",
"617 392 LINE",
"798 392 LINE",
"798 120 LINE SMOOTH",
"798 42 OFFCURVE",
"840 0 OFFCURVE",
"918 0 CURVE SMOOTH"
);
},
{
closed = 1;
nodes = (
"391 0 LINE SMOOTH",
"495 0 OFFCURVE",
"551 56 OFFCURVE",
"551 160 CURVE SMOOTH",
"551 352 LINE SMOOTH",
"551 456 OFFCURVE",
"495 512 OFFCURVE",
"391 512 CURVE SMOOTH",
"220 512 LINE SMOOTH",
"116 512 OFFCURVE",
"60 456 OFFCURVE",
"60 352 CURVE SMOOTH",
"60 160 LINE SMOOTH",
"60 56 OFFCURVE",
"116 0 OFFCURVE",
"220 0 CURVE SMOOTH"
);
},
{
closed = 1;
nodes = (
"189 391 LINE",
"421 391 LINE",
"421 121 LINE",
"189 121 LINE"
);
},
{
closed = 1;
nodes = (
"342 189 OFFCURVE",
"370 214 OFFCURVE",
"370 253 CURVE SMOOTH",
"370 292 OFFCURVE",
"342 317 OFFCURVE",
"305 317 CURVE SMOOTH",
"268 317 OFFCURVE",
"240 292 OFFCURVE",
"240 253 CURVE SMOOTH",
"240 214 OFFCURVE",
"268 189 OFFCURVE",
"305 189 CURVE SMOOTH"
);
}
);
width = 1200;
}
);
leftMetricsKey = o;
rightMetricsKey = t;
},
{
glyphname = s_t.liga;
lastChange = "2025-01-06 23:34:33 +0000";
layers = (
{
background = {
paths = (
{
closed = 1;
nodes = (
"451 0 LINE SMOOTH",
"518 0 OFFCURVE",
"551 33 OFFCURVE",
"551 98 CURVE SMOOTH",
"551 228 LINE SMOOTH",
"551 289 OFFCURVE",
"520 320 OFFCURVE",
"458 320 CURVE SMOOTH",
"195 320 LINE",
"195 391 LINE",
"530 391 LINE",
"530 512 LINE",
"168 512 LINE SMOOTH",
"99 512 OFFCURVE",
"65 479 OFFCURVE",
"65 413 CURVE SMOOTH",
"65 289 LINE SMOOTH",
"65 229 OFFCURVE",
"97 199 OFFCURVE",
"161 199 CURVE SMOOTH",
"422 199 LINE",
"422 121 LINE",
"65 121 LINE",
"65 0 LINE"
);
},
{
closed = 1;
nodes = (
"1159 0 LINE",
"1159 121 LINE",
"916 121 LINE",
"916 392 LINE",
"1157 392 LINE",
"1157 512 LINE",
"916 512 LINE",
"916 654 LINE",
"786 654 LINE",
"786 512 LINE",
"608 512 LINE",
"608 392 LINE",
"786 392 LINE",
"786 98 LINE SMOOTH",
"786 33 OFFCURVE",
"819 0 OFFCURVE",
"886 0 CURVE SMOOTH"
);
}
);
};
layerId = "1F2775BA-6CBC-4576-9106-FF363AAD7539";
paths = (
{
closed = 1;
nodes = (
"1159 0 LINE",
"1159 121 LINE",
"916 121 LINE",
"916 392 LINE",
"1156 392 LINE",
"1156 512 LINE",
"916 512 LINE",
"916 653 LINE",
"786 653 LINE",
"786 512 LINE",
"605 512 LINE",
"605 392 LINE",
"786 392 LINE",
"786 120 LINE SMOOTH",
"786 42 OFFCURVE",
"828 0 OFFCURVE",
"906 0 CURVE SMOOTH"
);
},
{
closed = 1;
nodes = (
"407 0 LINE SMOOTH",
"501 0 OFFCURVE",
"552 49 OFFCURVE",
"552 140 CURVE SMOOTH",
"552 180 LINE SMOOTH",
"552 271 OFFCURVE",
"501 320 OFFCURVE",
"407 320 CURVE SMOOTH",
"186 320 LINE",
"186 391 LINE",
"530 391 LINE",
"530 512 LINE",
"200 512 LINE SMOOTH",
"106 512 OFFCURVE",
"55 463 OFFCURVE",
"55 372 CURVE SMOOTH",
"55 339 LINE SMOOTH",
"55 248 OFFCURVE",
"106 199 OFFCURVE",
"200 199 CURVE SMOOTH",
"422 199 LINE",
"422 121 LINE",
"55 121 LINE",
"55 0 LINE"
);
}
);
width = 1200;
},
{
background = {
paths = (
{
closed = 1;
nodes = (
"469 0 LINE SMOOTH",
"520 0 OFFCURVE",
"545 25 OFFCURVE",
"545 76 CURVE SMOOTH",
"545 206 LINE SMOOTH",
"545 258 OFFCURVE",
"520 283 OFFCURVE",
"470 283 CURVE SMOOTH",
"156 283 LINE",
"156 407 LINE",
"524 407 LINE",
"524 484 LINE",
"153 484 LINE SMOOTH",
"102 484 OFFCURVE",
"77 459 OFFCURVE",
"77 408 CURVE SMOOTH",
"77 284 LINE SMOOTH",
"77 233 OFFCURVE",
"102 207 OFFCURVE",
"152 207 CURVE SMOOTH",
"467 207 LINE",
"467 77 LINE",
"77 77 LINE",
"77 0 LINE"
);
},
{
closed = 1;
nodes = (
"1153 0 LINE",
"1153 77 LINE",
"890 77 LINE",
"890 407 LINE",
"1136 407 LINE",
"1136 484 LINE",
"890 484 LINE",
"890 646 LINE",
"812 646 LINE",
"812 484 LINE",
"628 484 LINE",
"628 407 LINE",
"812 407 LINE",
"812 76 LINE SMOOTH",
"812 25 OFFCURVE",
"837 0 OFFCURVE",
"888 0 CURVE SMOOTH"
);
}
);
};
layerId = "07E2A1A4-9842-4AD3-8988-1CD562B06979";
paths = (
{
closed = 1;
nodes = (
"1153 0 LINE",
"1153 77 LINE",
"891 77 LINE",
"891 407 LINE",
"1136 407 LINE",
"1136 484 LINE",
"891 484 LINE",
"891 634 LINE",
"812 634 LINE",
"812 484 LINE",
"628 484 LINE",
"628 407 LINE",
"812 407 LINE",
"812 111 LINE SMOOTH",
"812 39 OFFCURVE",
"851 0 OFFCURVE",
"922 0 CURVE SMOOTH"
);
},
{
closed = 1;
nodes = (
"415 0 LINE SMOOTH",
"499 0 OFFCURVE",
"545 46 OFFCURVE",
"545 131 CURVE SMOOTH",
"545 152 LINE SMOOTH",
"545 237 OFFCURVE",
"499 283 OFFCURVE",
"415 283 CURVE SMOOTH",
"156 283 LINE",
"156 407 LINE",
"524 407 LINE",
"524 484 LINE",
"207 484 LINE SMOOTH",
"123 484 OFFCURVE",
"77 438 OFFCURVE",
"77 354 CURVE SMOOTH",
"77 337 LINE SMOOTH",
"77 253 OFFCURVE",
"123 207 OFFCURVE",
"207 207 CURVE SMOOTH",
"466 207 LINE",
"466 77 LINE",
"77 77 LINE",
"77 0 LINE"
);
}
);
width = 1200;
}
);
},
{
glyphname = zero;
lastChange = "2025-01-06 22:41:58 +0000";
layers = (
{
background = {
paths = (
{
closed = 1;
nodes = (
"72 32 OFFCURVE",
"104 0 OFFCURVE",
"168 0 CURVE SMOOTH",
"433 0 LINE SMOOTH",
"496 0 OFFCURVE",
"528 32 OFFCURVE",
"528 96 CURVE SMOOTH",
"528 537 LINE SMOOTH",
"528 601 OFFCURVE",
"496 633 OFFCURVE",
"433 633 CURVE SMOOTH",
"168 633 LINE SMOOTH",
"104 633 OFFCURVE",
"72 601 OFFCURVE",
"72 537 CURVE SMOOTH",
"72 96 LINE SMOOTH"
);
},
{
closed = 1;
nodes = (
"202 512 LINE",
"398 512 LINE",
"398 121 LINE",
"202 121 LINE"
);
},
{
closed = 1;
nodes = (
"181 126 LINE",
"488 438 LINE",
"419 507 LINE",
"112 195 LINE"
);
}
);
};
layerId = "1F2775BA-6CBC-4576-9106-FF363AAD7539";
paths = (
{
closed = 1;
nodes = (
"368 0 LINE SMOOTH",
"472 0 OFFCURVE",
"528 56 OFFCURVE",
"528 160 CURVE SMOOTH",
"528 473 LINE SMOOTH",
"528 577 OFFCURVE",
"472 633 OFFCURVE",
"368 633 CURVE SMOOTH",
"232 633 LINE SMOOTH",
"128 633 OFFCURVE",
"72 577 OFFCURVE",
"72 473 CURVE SMOOTH",
"72 160 LINE SMOOTH",
"72 56 OFFCURVE",
"128 0 OFFCURVE",
"232 0 CURVE SMOOTH"
);
},
{
closed = 1;
nodes = (
"202 512 LINE",
"398 512 LINE",
"398 121 LINE",
"202 121 LINE"
);
},
{
closed = 1;
nodes = (
"488 438 LINE",
"419 507 LINE",
"112 195 LINE",
"181 126 LINE"
);
}
);
width = 600;
},
{
layerId = "07E2A1A4-9842-4AD3-8988-1CD562B06979";
paths = (
{
closed = 1;
nodes = (
"364 0 LINE SMOOTH",
"455 0 OFFCURVE",
"504 49 OFFCURVE",
"504 141 CURVE SMOOTH",
"504 492 LINE SMOOTH",
"504 584 OFFCURVE",
"455 633 OFFCURVE",
"364 633 CURVE SMOOTH",
"236 633 LINE SMOOTH",
"145 633 OFFCURVE",
"96 584 OFFCURVE",
"96 492 CURVE SMOOTH",
"96 141 LINE SMOOTH",
"96 49 OFFCURVE",
"145 0 OFFCURVE",
"236 0 CURVE SMOOTH"
);
},
{
closed = 1;
nodes = (
"175 556 LINE",
"425 556 LINE",
"425 77 LINE",
"175 77 LINE"
);
},
{
closed = 1;
nodes = (
"490 460 LINE",
"447 513 LINE",
"110 172 LINE",
"153 121 LINE"
);
}
);
width = 600;
}
);
unicode = 0030;
},
{
glyphname = one;
lastChange = "2025-01-06 22:41:58 +0000";
layers = (
{
layerId = "1F2775BA-6CBC-4576-9106-FF363AAD7539";
paths = (
{
closed = 1;
nodes = (
"528 0 LINE",
"528 121 LINE",
"375 121 LINE",
"375 633 LINE",
"104 633 LINE",
"104 512 LINE",
"244 512 LINE",
"244 121 LINE",
"72 121 LINE",
"72 0 LINE"
);
}
);
width = 600;
},
{
layerId = "07E2A1A4-9842-4AD3-8988-1CD562B06979";
paths = (
{
closed = 1;
nodes = (
"514 0 LINE",
"514 77 LINE",
"348 77 LINE",
"348 633 LINE",
"131 633 LINE",
"131 556 LINE",
"269 556 LINE",
"269 77 LINE",
"96 77 LINE",
"96 0 LINE"
);
}
);
width = 600;
}
);
unicode = 0031;
},
{
glyphname = two;
lastChange = "2025-01-06 22:41:58 +0000";
layers = (
{
background = {
paths = (
{
closed = 1;
nodes = (
"538 0 LINE",
"538 121 LINE",
"214 121 LINE",
"214 172 LINE",
"528 357 LINE",
"528 539 LINE SMOOTH",
"528 602 OFFCURVE",
"495 633 OFFCURVE",
"430 633 CURVE SMOOTH",
"169 633 LINE SMOOTH",
"104 633 OFFCURVE",
"72 602 OFFCURVE",
"72 539 CURVE SMOOTH",
"72 414 LINE",
"204 414 LINE",
"204 512 LINE",
"396 512 LINE",
"396 422 LINE",
"72 231 LINE",
"73 0 LINE"
);
}
);
};
layerId = "1F2775BA-6CBC-4576-9106-FF363AAD7539";
paths = (
{
closed = 1;
nodes = (
"538 0 LINE",
"538 121 LINE",
"214 121 LINE",
"214 172 LINE",
"528 357 LINE",
"528 493 LINE SMOOTH",
"528 584 OFFCURVE",
"479 633 OFFCURVE",
"388 633 CURVE SMOOTH",
"212 633 LINE SMOOTH",
"121 633 OFFCURVE",
"72 584 OFFCURVE",
"72 493 CURVE SMOOTH",
"72 414 LINE",
"204 414 LINE",
"204 512 LINE",
"396 512 LINE",
"396 422 LINE",
"72 231 LINE",
"73 0 LINE"
);
}
);
width = 600;
},
{
layerId = "07E2A1A4-9842-4AD3-8988-1CD562B06979";
paths = (
{
closed = 1;
nodes = (
"512 0 LINE",
"512 77 LINE",
"177 77 LINE",
"177 144 LINE",
"504 405 LINE",
"504 522 LINE SMOOTH",
"504 594 OFFCURVE",
"465 633 OFFCURVE",
"394 633 CURVE SMOOTH",
"206 633 LINE SMOOTH",
"135 633 OFFCURVE",
"96 594 OFFCURVE",
"96 522 CURVE SMOOTH",
"96 454 LINE",
"175 454 LINE",
"175 556 LINE",
"425 556 LINE",
"425 440 LINE",
"96 178 LINE",
"96 0 LINE"
);
}
);
width = 600;
}
);
unicode = 0032;
},
{
glyphname = three;
lastChange = "2025-01-07 00:07:58 +0000";
layers = (
{
background = {
paths = (
{
closed = 1;
nodes = (
"368 0 LINE SMOOTH",
"472 0 OFFCURVE",
"528 56 OFFCURVE",
"528 160 CURVE SMOOTH",
"528 473 LINE SMOOTH",
"528 577 OFFCURVE",
"472 633 OFFCURVE",
"368 633 CURVE SMOOTH",
"232 633 LINE SMOOTH",
"128 633 OFFCURVE",
"72 577 OFFCURVE",
"72 473 CURVE SMOOTH",
"72 160 LINE SMOOTH",
"72 56 OFFCURVE",
"128 0 OFFCURVE",
"232 0 CURVE SMOOTH"
);
}
);
};
layerId = "1F2775BA-6CBC-4576-9106-FF363AAD7539";
paths = (
{
closed = 1;
nodes = (
"368 0 LINE SMOOTH",
"464 0 OFFCURVE",
"528 54 OFFCURVE",
"528 155 CURVE SMOOTH",
"528 189 LINE SMOOTH",
"528 235 OFFCURVE",
"510 277 OFFCURVE",
"479 295 CURVE SMOOTH",
"459 307 LINE",
"459 336 LINE",
"479 348 LINE SMOOTH",
"508 365 OFFCURVE",
"528 405 OFFCURVE",
"528 454 CURVE SMOOTH",
"528 478 LINE SMOOTH",
"528 573 OFFCURVE",
"472 633 OFFCURVE",
"368 633 CURVE SMOOTH",
"233 633 LINE SMOOTH",
"129 633 OFFCURVE",
"73 573 OFFCURVE",
"73 478 CURVE SMOOTH",
"73 436 LINE",
"204 436 LINE",
"204 512 LINE",
"397 512 LINE",
"396 382 LINE",
"264 382 LINE",
"264 262 LINE",
"396 262 LINE",
"396 121 LINE",
"204 121 LINE",
"204 197 LINE",
"73 197 LINE",
"73 155 LINE SMOOTH",
"73 60 OFFCURVE",
"129 0 OFFCURVE",
"233 0 CURVE SMOOTH"
);
}
);
width = 600;
},
{
layerId = "07E2A1A4-9842-4AD3-8988-1CD562B06979";
paths = (
{
closed = 1;
nodes = (
"374 0 LINE SMOOTH",
"458 0 OFFCURVE",
"504 46 OFFCURVE",
"504 131 CURVE SMOOTH",
"504 216 LINE SMOOTH",
"504 252 OFFCURVE",
"493 278 OFFCURVE",
"466 303 CURVE SMOOTH",
"455 313 LINE",
"455 342 LINE",
"465 351 LINE SMOOTH",
"492 375 OFFCURVE",
"504 401 OFFCURVE",
"504 438 CURVE SMOOTH",
"504 502 LINE SMOOTH",
"504 586 OFFCURVE",
"458 633 OFFCURVE",
"374 633 CURVE SMOOTH",
"226 633 LINE SMOOTH",
"142 633 OFFCURVE",
"96 586 OFFCURVE",
"96 502 CURVE SMOOTH",
"96 451 LINE",
"175 451 LINE",
"175 556 LINE",
"425 556 LINE",
"425 365 LINE",
"301 365 LINE",
"301 290 LINE",
"425 290 LINE",
"425 77 LINE",
"175 77 LINE",
"175 188 LINE",
"96 188 LINE",
"96 131 LINE SMOOTH",
"96 47 OFFCURVE",
"142 0 OFFCURVE",
"226 0 CURVE SMOOTH"
);
}
);
width = 600;
}
);
unicode = 0033;
},
{
glyphname = four;
lastChange = "2025-01-07 00:07:12 +0000";
layers = (
{
background = {
paths = (
{
closed = 1;
nodes = (
"470 0 LINE",
"470 115 LINE",
"572 115 LINE",
"572 236 LINE",
"470 236 LINE",
"470 360 LINE",
"340 360 LINE",
"340 236 LINE",
"184 236 LINE",
"184 271 LINE",
"442 588 LINE",
"442 633 LINE",
"322 633 LINE",
"49 300 LINE",
"49 115 LINE",
"340 115 LINE",
"340 0 LINE"
);
}
);
};
layerId = "1F2775BA-6CBC-4576-9106-FF363AAD7539";
paths = (
{
closed = 1;
nodes = (
"470 0 LINE",
"470 115 LINE",
"572 115 LINE",
"572 236 LINE",
"470 236 LINE",
"470 360 LINE",
"340 360 LINE",
"340 236 LINE",
"180 236 LINE",
"180 266 LINE",
"442 588 LINE",
"442 633 LINE",
"322 633 LINE",
"49 300 LINE",
"49 115 LINE",
"340 115 LINE",
"340 0 LINE"
);
}
);
width = 600;
},
{
layerId = "07E2A1A4-9842-4AD3-8988-1CD562B06979";
paths = (
{
closed = 1;
nodes = (
"438 0 LINE",
"438 138 LINE",
"552 138 LINE",
"552 215 LINE",
"438 215 LINE",
"438 340 LINE",
"359 340 LINE",
"359 215 LINE",
"130 215 LINE",
"130 248 LINE",
"397 610 LINE",
"397 633 LINE",
"321 633 LINE",
"51 268 LINE",
"51 138 LINE",
"359 138 LINE",
"359 0 LINE"
);
}
);
width = 600;
}
);
unicode = 0034;
},
{
glyphname = five;
lastChange = "2025-01-07 00:02:20 +0000";
layers = (
{
background = {
paths = (
{
closed = 1;
nodes = (
"388 0 LINE SMOOTH",
"479 0 OFFCURVE",
"528 49 OFFCURVE",
"528 140 CURVE SMOOTH",
"528 241 LINE SMOOTH",
"528 332 OFFCURVE",
"479 381 OFFCURVE",
"388 381 CURVE SMOOTH",
"295 381 LINE SMOOTH",
"265 381 OFFCURVE",
"243 372 OFFCURVE",
"221 351 CURVE SMOOTH",
"203 333 LINE",
"203 512 LINE",
"538 512 LINE",
"538 633 LINE",
"72 633 LINE",
"72 260 LINE",
"397 260 LINE",
"397 121 LINE",
"202 121 LINE",
"202 178 LINE",
"72 178 LINE",
"72 140 LINE SMOOTH",
"72 49 OFFCURVE",
"121 0 OFFCURVE",
"212 0 CURVE SMOOTH"
);
}
);
};
layerId = "1F2775BA-6CBC-4576-9106-FF363AAD7539";
paths = (
{
closed = 1;
nodes = (
"388 0 LINE SMOOTH",
"479 0 OFFCURVE",
"528 49 OFFCURVE",
"528 140 CURVE SMOOTH",
"528 269 LINE SMOOTH",
"528 360 OFFCURVE",
"479 409 OFFCURVE",
"388 409 CURVE SMOOTH",
"347 409 LINE SMOOTH",
"297 409 OFFCURVE",
"275 398 OFFCURVE",
"248 366 CURVE SMOOTH",
"235 351 LINE",
"203 351 LINE",
"203 512 LINE",
"538 512 LINE",
"538 633 LINE",
"72 633 LINE",
"72 261 LINE",
"201 261 LINE",
"218 288 LINE",
"397 288 LINE",
"397 121 LINE",
"202 121 LINE",
"202 180 LINE",
"72 180 LINE",
"72 140 LINE SMOOTH",
"72 49 OFFCURVE",
"121 0 OFFCURVE",
"212 0 CURVE SMOOTH"
);
}
);
width = 600;
},
{
background = {
paths = (
{
closed = 1;
nodes = (
"374 0 LINE SMOOTH",
"458 0 OFFCURVE",
"504 46 OFFCURVE",
"504 131 CURVE SMOOTH",
"504 226 LINE SMOOTH",
"504 310 OFFCURVE",
"458 356 OFFCURVE",
"374 356 CURVE SMOOTH",
"267 356 LINE SMOOTH",
"237 356 OFFCURVE",
"215 348 OFFCURVE",
"193 326 CURVE SMOOTH",
"175 308 LINE",
"175 556 LINE",
"502 556 LINE",
"502 633 LINE",
"96 633 LINE",
"96 279 LINE",
"425 279 LINE",
"425 77 LINE",
"175 77 LINE",
"175 163 LINE",
"96 163 LINE",
"96 131 LINE SMOOTH",
"96 46 OFFCURVE",
"142 0 OFFCURVE",
"226 0 CURVE SMOOTH"
);
}
);
};
layerId = "07E2A1A4-9842-4AD3-8988-1CD562B06979";
paths = (
{
closed = 1;
nodes = (
"374 0 LINE SMOOTH",
"458 0 OFFCURVE",
"504 46 OFFCURVE",
"504 131 CURVE SMOOTH",
"504 261 LINE SMOOTH",
"504 345 OFFCURVE",
"458 391 OFFCURVE",
"374 391 CURVE SMOOTH",
"292 391 LINE SMOOTH",
"255 391 OFFCURVE",
"235 380 OFFCURVE",
"215 360 CURVE SMOOTH",
"202 347 LINE",
"175 347 LINE",
"175 556 LINE",
"502 556 LINE",
"502 633 LINE",
"96 633 LINE",
"96 279 LINE",
"165 279 LINE",
"187 314 LINE",
"425 314 LINE",
"425 77 LINE",
"175 77 LINE",
"175 171 LINE",
"96 171 LINE",
"96 131 LINE SMOOTH",
"96 46 OFFCURVE",
"142 0 OFFCURVE",
"226 0 CURVE SMOOTH"
);
}
);
width = 600;
}
);
unicode = 0035;
},
{
glyphname = six;
lastChange = "2025-01-07 00:04:36 +0000";
layers = (
{
background = {
paths = (
{
closed = 1;
nodes = (
"388 0 LINE SMOOTH",
"479 0 OFFCURVE",
"528 49 OFFCURVE",
"528 140 CURVE SMOOTH",
"528 242 LINE SMOOTH",
"528 333 OFFCURVE",
"479 382 OFFCURVE",
"388 382 CURVE SMOOTH",
"296 382 LINE SMOOTH",
"266 382 OFFCURVE",
"244 373 OFFCURVE",
"222 352 CURVE SMOOTH",
"203 333 LINE",
"203 512 LINE",
"528 512 LINE",
"528 633 LINE",
"212 633 LINE SMOOTH",
"121 633 OFFCURVE",
"72 584 OFFCURVE",
"72 493 CURVE SMOOTH",
"72 140 LINE SMOOTH",
"72 49 OFFCURVE",
"121 0 OFFCURVE",
"212 0 CURVE SMOOTH"
);
},
{
closed = 1;
nodes = (
"203 261 LINE",
"399 261 LINE",
"399 121 LINE",
"203 121 LINE"
);
}
);
};
layerId = "1F2775BA-6CBC-4576-9106-FF363AAD7539";
paths = (
{
closed = 1;
nodes = (
"388 0 LINE SMOOTH",
"479 0 OFFCURVE",
"528 49 OFFCURVE",
"528 140 CURVE SMOOTH",
"528 269 LINE SMOOTH",
"528 360 OFFCURVE",
"479 409 OFFCURVE",
"388 409 CURVE SMOOTH",
"347 409 LINE SMOOTH",
"297 409 OFFCURVE",
"275 398 OFFCURVE",
"248 366 CURVE SMOOTH",
"235 351 LINE",
"203 351 LINE",
"203 512 LINE",
"528 512 LINE",
"528 633 LINE",
"212 633 LINE SMOOTH",
"121 633 OFFCURVE",
"72 584 OFFCURVE",
"72 493 CURVE SMOOTH",
"72 140 LINE SMOOTH",
"72 49 OFFCURVE",
"121 0 OFFCURVE",
"212 0 CURVE SMOOTH"
);
},
{
closed = 1;
nodes = (
"202 288 LINE",
"397 288 LINE",
"397 121 LINE",
"202 121 LINE"
);
}
);
width = 600;
},
{
background = {
paths = (
{
closed = 1;
nodes = (
"374 0 LINE SMOOTH",
"458 0 OFFCURVE",
"504 46 OFFCURVE",
"504 131 CURVE SMOOTH",
"504 227 LINE SMOOTH",
"504 311 OFFCURVE",
"458 357 OFFCURVE",
"374 357 CURVE SMOOTH",
"268 357 LINE SMOOTH",
"238 357 OFFCURVE",
"216 348 OFFCURVE",
"194 327 CURVE SMOOTH",
"175 308 LINE",
"175 556 LINE",
"504 556 LINE",
"504 633 LINE",
"226 633 LINE SMOOTH",
"142 633 OFFCURVE",
"96 587 OFFCURVE",
"96 502 CURVE SMOOTH",
"96 131 LINE SMOOTH",
"96 46 OFFCURVE",
"142 0 OFFCURVE",
"226 0 CURVE SMOOTH"
);
},
{
closed = 1;
nodes = (
"175 280 LINE",
"425 280 LINE",
"425 77 LINE",
"175 77 LINE"
);
}
);
};
layerId = "07E2A1A4-9842-4AD3-8988-1CD562B06979";
paths = (
{
closed = 1;
nodes = (
"374 0 LINE SMOOTH",
"458 0 OFFCURVE",
"504 46 OFFCURVE",
"504 131 CURVE SMOOTH",
"504 261 LINE SMOOTH",
"504 345 OFFCURVE",
"458 391 OFFCURVE",
"374 391 CURVE SMOOTH",
"292 391 LINE SMOOTH",
"255 391 OFFCURVE",
"235 380 OFFCURVE",
"215 360 CURVE SMOOTH",
"202 347 LINE",
"175 347 LINE",
"175 556 LINE",
"502 556 LINE",
"502 633 LINE",
"226 633 LINE SMOOTH",
"142 633 OFFCURVE",
"96 587 OFFCURVE",
"96 502 CURVE SMOOTH",
"96 131 LINE SMOOTH",
"96 46 OFFCURVE",
"142 0 OFFCURVE",
"226 0 CURVE SMOOTH"
);
},
{
closed = 1;
nodes = (
"175 314 LINE",
"425 314 LINE",
"425 77 LINE",
"175 77 LINE"
);
}
);
width = 600;
}
);
unicode = 0036;
},
{
glyphname = seven;
lastChange = "2025-01-07 00:07:20 +0000";
layers = (
{
layerId = "1F2775BA-6CBC-4576-9106-FF363AAD7539";
paths = (
{
closed = 1;
nodes = (
"303 0 LINE",
"539 468 LINE",
"539 633 LINE",
"52 633 LINE",
"52 416 LINE",
"173 416 LINE",
"173 512 LINE",
"408 512 LINE",
"408 483 LINE",
"180 45 LINE",
"180 0 LINE"
);
}
);
width = 600;
},
{
layerId = "07E2A1A4-9842-4AD3-8988-1CD562B06979";
paths = (
{
closed = 1;
nodes = (
"258 0 LINE",
"523 532 LINE",
"523 633 LINE",
"77 633 LINE",
"77 480 LINE",
"156 480 LINE",
"156 556 LINE",
"433 556 LINE",
"433 521 LINE",
"185 34 LINE",
"185 0 LINE"
);
}
);
width = 600;
}
);
unicode = 0037;
},
